<?xml version="1.0" encoding="utf-8"?>
<!-- Generator: Adobe Illustrator 18.0.0, SVG Export Plug-In . SVG Version: 6.00 Build 0)  -->
<!DOCTYPE svg PUBLIC "-//W3C//DTD SVG 1.1//EN" "http://www.w3.org/Graphics/SVG/1.1/DTD/svg11.dtd">
<svg version="1.1" xmlns="http://www.w3.org/2000/svg" xmlns:xlink="http://www.w3.org/1999/xlink" x="0px" y="0px" width="612px"
	 height="1138.7px" viewBox="0 -197.8 612 1138.7" enable-background="new 0 -197.8 612 1138.7" xml:space="preserve">
<symbol  id="Box" viewBox="-306 -18.9 612 72.7">
	<line fill="none" stroke="#5E5F5F" stroke-miterlimit="10" x1="-306" y1="-18.4" x2="306" y2="-18.4"/>
	<line fill="none" x1="-306" y1="53.8" x2="306" y2="53.8"/>
</symbol>
<symbol  id="Camera" viewBox="-20 -17.3 40 34.7">
	<g>
		<g>
			<path fill="#010101" d="M18.4,10.4c-1,1-2.3,1.6-3.8,1.6H10l-1.1,2.8c-0.3,0.7-0.7,1.3-1.4,1.8c-0.7,0.5-1.4,0.7-2.2,0.7H-5.3
				c-0.7,0-1.5-0.2-2.2-0.7c-0.7-0.5-1.2-1.1-1.4-1.8L-10,12h-4.7c-1.5,0-2.7-0.5-3.8-1.6c-1-1-1.6-2.3-1.6-3.8V-12
				c0-1.5,0.5-2.7,1.6-3.8c1-1,2.3-1.6,3.8-1.6h29.3c1.5,0,2.7,0.5,3.8,1.6c1,1,1.6,2.3,1.6,3.8V6.7C20,8.1,19.5,9.4,18.4,10.4z
				 M6.6-9.3C4.8-11.1,2.6-12,0-12s-4.8,0.9-6.6,2.7c-1.8,1.8-2.7,4-2.7,6.6c0,2.6,0.9,4.8,2.7,6.6c1.8,1.8,4,2.7,6.6,2.7
				s4.8-0.9,6.6-2.7c1.8-1.8,2.7-4,2.7-6.6C9.3-5.2,8.4-7.4,6.6-9.3z"/>
			<path fill="#010101" d="M0,3.3c-1.7,0-3.1-0.6-4.2-1.8C-5.4,0.4-6-1-6-2.7c0-1.7,0.6-3.1,1.8-4.2C-3.1-8.1-1.7-8.7,0-8.7
				c1.7,0,3.1,0.6,4.2,1.8C5.4-5.7,6-4.3,6-2.7C6-1,5.4,0.4,4.2,1.6C3.1,2.7,1.7,3.3,0,3.3z"/>
		</g>
	</g>
	<g>
	</g>
	<g>
	</g>
	<g>
	</g>
	<g>
	</g>
	<g>
	</g>
	<g>
	</g>
	<g>
	</g>
	<g>
	</g>
	<g>
	</g>
	<g>
	</g>
	<g>
	</g>
	<g>
	</g>
	<g>
	</g>
	<g>
	</g>
	<g>
	</g>
</symbol>
<symbol  id="Marker" viewBox="-146.2 -219.3 292.4 438.5">
	<g>
		<path fill="#010101" d="M103.4,176.4C74.8,205,40.4,219.3,0,219.3c-40.4,0-74.8-14.3-103.4-42.8c-28.5-28.5-42.8-63-42.8-103.4
			c0-20.7,3.1-37.8,9.4-51.1l104.2-221c2.9-6.3,7.3-11.2,13.3-14.8c6-3.6,12.4-5.4,19.3-5.4c6.9,0,13.3,1.8,19.3,5.4
			c6,3.6,10.5,8.6,13.6,14.8L136.8,22c6.3,13.3,9.4,30.4,9.4,51.1C146.2,113.4,131.9,147.9,103.4,176.4z M51.7,21.4
			C37.4,7.1,20.2,0,0,0s-37.4,7.1-51.7,21.4C-66,35.7-73.1,52.9-73.1,73.1c0,20.2,7.1,37.4,21.4,51.7C-37.4,139-20.2,146.2,0,146.2
			c20.2,0,37.4-7.1,51.7-21.4c14.3-14.3,21.4-31.5,21.4-51.7S66,35.7,51.7,21.4z"/>
	</g>
	<g>
	</g>
	<g>
	</g>
	<g>
	</g>
	<g>
	</g>
	<g>
	</g>
	<g>
	</g>
	<g>
	</g>
	<g>
	</g>
	<g>
	</g>
	<g>
	</g>
	<g>
	</g>
	<g>
	</g>
	<g>
	</g>
	<g>
	</g>
	<g>
	</g>
</symbol>
<symbol  id="Shopping" viewBox="-43.3 -36.7 86.7 73.3">
	<g>
		<g>
			<path fill="#010101" d="M23.3-30c0-1.8,0.7-3.4,2-4.7c1.3-1.3,2.9-2,4.7-2c1.8,0,3.4,0.7,4.7,2c1.3,1.3,2,2.9,2,4.7
				s-0.7,3.4-2,4.7c-1.3,1.3-2.9,2-4.7,2c-1.8,0-3.4-0.7-4.7-2C24-26.6,23.3-28.2,23.3-30z"/>
			<path fill="#010101" d="M42.3,29c-0.7,0.7-1.4,1-2.3,1h-62.6c0,0.2-0.1,0.7-0.2,1.3c-0.1,0.6-0.2,1.2-0.3,1.5
				c-0.1,0.4-0.2,0.8-0.4,1.4c-0.2,0.5-0.4,1-0.7,1.3c-0.3,0.3-0.6,0.6-1,0.8c-0.4,0.2-0.9,0.3-1.5,0.3H-40c-0.9,0-1.7-0.3-2.3-1
				c-0.7-0.7-1-1.4-1-2.3c0-0.9,0.3-1.7,1-2.3c0.7-0.7,1.4-1,2.3-1h10.6l9.2-42.9c-0.1-0.1-0.4-0.8-1.1-2c-0.6-1.2-1.2-2.2-1.5-3.1
				c-0.4-0.9-0.6-1.6-0.6-2.1c0-0.9,0.3-1.7,1-2.3c0.7-0.7,1.4-1,2.3-1h3.3H30h3.3c0.9,0,1.7,0.3,2.3,1c0.7,0.7,1,1.4,1,2.3
				c0,0.9-0.3,1.7-1,2.3c-0.7,0.7-1.4,1-2.3,1h-47.9c0.8,1.7,1.3,2.8,1.3,3.3c0,0.3,0,0.7-0.1,1.1s-0.2,0.9-0.3,1.4
				c-0.1,0.5-0.2,0.9-0.2,1.1l54.4,6.4c0.9,0.1,1.6,0.5,2.1,1.1c0.6,0.6,0.8,1.4,0.8,2.2v26.7C43.3,27.6,43,28.4,42.3,29z"/>
			<path fill="#010101" d="M-23.3-30c0-1.8,0.7-3.4,2-4.7c1.3-1.3,2.9-2,4.7-2c1.8,0,3.4,0.7,4.7,2c1.3,1.3,2,2.9,2,4.7
				s-0.7,3.4-2,4.7c-1.3,1.3-2.9,2-4.7,2c-1.8,0-3.4-0.7-4.7-2C-22.7-26.6-23.3-28.2-23.3-30z"/>
		</g>
	</g>
	<g>
	</g>
	<g>
	</g>
	<g>
	</g>
	<g>
	</g>
	<g>
	</g>
	<g>
	</g>
	<g>
	</g>
	<g>
	</g>
	<g>
	</g>
	<g>
	</g>
	<g>
	</g>
	<g>
	</g>
	<g>
	</g>
	<g>
	</g>
	<g>
	</g>
</symbol>
<symbol  id="Trash" viewBox="-18.3 -20 36.7 40">
	<g>
		<g>
			<path fill="#010101" d="M18.1,13.1c-0.2,0.2-0.4,0.2-0.6,0.2h-8l-1.8,4.3c-0.3,0.6-0.7,1.2-1.4,1.6C5.5,19.8,4.9,20,4.2,20h-8.3
				c-0.7,0-1.4-0.2-2.1-0.7c-0.7-0.5-1.1-1-1.4-1.6l-1.8-4.3h-8c-0.2,0-0.4-0.1-0.6-0.2c-0.2-0.2-0.2-0.4-0.2-0.6v-1.7
				c0-0.2,0.1-0.4,0.2-0.6c0.2-0.2,0.4-0.2,0.6-0.2h2.5v-24.8c0-1.4,0.4-2.7,1.2-3.7c0.8-1,1.8-1.5,2.9-1.5h21.7
				c1.1,0,2.1,0.5,2.9,1.6c0.8,1.1,1.2,2.3,1.2,3.7V10h2.5c0.2,0,0.4,0.1,0.6,0.2c0.2,0.2,0.2,0.4,0.2,0.6v1.7
				C18.3,12.7,18.3,12.9,18.1,13.1z M-4.6,16.4c0.1,0.2,0.3,0.3,0.4,0.3h8.3c0.2,0,0.3-0.1,0.4-0.3l1.3-3H-5.8L-4.6,16.4z
				 M11.7-14.7c0-0.4-0.1-0.7-0.2-1.1c-0.1-0.3-0.2-0.6-0.4-0.7c-0.1-0.1-0.2-0.2-0.3-0.2h-21.7c-0.1,0-0.1,0.1-0.3,0.2
				c-0.1,0.1-0.3,0.4-0.4,0.7c-0.1,0.3-0.2,0.7-0.2,1.1V10h23.3L11.7-14.7L11.7-14.7z"/>
			<path fill="#010101" d="M-7.5-11.7h1.7c0.2,0,0.4,0.1,0.6,0.2c0.2,0.2,0.2,0.4,0.2,0.6v15c0,0.2-0.1,0.4-0.2,0.6
				C-5.4,4.9-5.6,5-5.8,5h-1.7c-0.2,0-0.4-0.1-0.6-0.2c-0.2-0.2-0.2-0.4-0.2-0.6v-15c0-0.2,0.1-0.4,0.2-0.6
				C-7.9-11.6-7.7-11.7-7.5-11.7z"/>
			<path fill="#010101" d="M-0.8-11.7h1.7c0.2,0,0.4,0.1,0.6,0.2c0.2,0.2,0.2,0.4,0.2,0.6v15c0,0.2-0.1,0.4-0.2,0.6
				C1.3,4.9,1.1,5,0.8,5h-1.7c-0.2,0-0.4-0.1-0.6-0.2c-0.2-0.2-0.2-0.4-0.2-0.6v-15c0-0.2,0.1-0.4,0.2-0.6
				C-1.3-11.6-1.1-11.7-0.8-11.7z"/>
			<path fill="#010101" d="M5.8-11.7h1.7c0.2,0,0.4,0.1,0.6,0.2c0.2,0.2,0.2,0.4,0.2,0.6v15c0,0.2-0.1,0.4-0.2,0.6
				C7.9,4.9,7.7,5,7.5,5H5.8C5.6,5,5.4,4.9,5.2,4.8C5.1,4.6,5,4.4,5,4.2v-15c0-0.2,0.1-0.4,0.2-0.6C5.4-11.6,5.6-11.7,5.8-11.7z"/>
		</g>
	</g>
	<g>
	</g>
	<g>
	</g>
	<g>
	</g>
	<g>
	</g>
	<g>
	</g>
	<g>
	</g>
	<g>
	</g>
	<g>
	</g>
	<g>
	</g>
	<g>
	</g>
	<g>
	</g>
	<g>
	</g>
	<g>
	</g>
	<g>
	</g>
	<g>
	</g>
</symbol>
<symbol  id="Unlink" viewBox="-43.3 -43.3 86.7 86.7">
	<g>
		<g>
			<path fill="#010101" d="M-23.8-14.5c0.3,0.3,0.5,0.7,0.5,1.2c0,0.5-0.2,0.9-0.5,1.2c-0.3,0.3-0.7,0.5-1.2,0.5h-16.7
				c-0.5,0-0.9-0.2-1.2-0.5c-0.3-0.3-0.5-0.7-0.5-1.2c0-0.5,0.2-0.9,0.5-1.2c0.3-0.3,0.7-0.5,1.2-0.5H-25
				C-24.5-15-24.1-14.8-23.8-14.5z"/>
			<path fill="#010101" d="M13.3,23.3c0.5,0,0.9,0.2,1.2,0.5c0.3,0.3,0.5,0.7,0.5,1.2v16.7c0,0.5-0.2,0.9-0.5,1.2
				c-0.3,0.3-0.7,0.5-1.2,0.5c-0.5,0-0.9-0.2-1.2-0.5c-0.3-0.3-0.5-0.7-0.5-1.2V25c0-0.5,0.2-0.9,0.5-1.2
				C12.4,23.5,12.8,23.3,13.3,23.3z"/>
			<path fill="#010101" d="M-21.7-20c-0.5,0-0.9-0.2-1.2-0.5l-13.3-13.3c-0.3-0.3-0.5-0.7-0.5-1.2c0-0.5,0.2-0.9,0.5-1.2
				c0.4-0.3,0.8-0.5,1.2-0.5c0.5,0,0.9,0.2,1.2,0.5l13.3,13.3c0.3,0.3,0.5,0.7,0.5,1.2c0,0.5-0.2,0.9-0.5,1.2
				C-20.8-20.2-21.2-20-21.7-20z"/>
			<path fill="#010101" d="M21.7,20c0.4,0,0.8,0.2,1.2,0.5l13.3,13.3c0.3,0.3,0.5,0.7,0.5,1.2c0,0.5-0.2,0.9-0.5,1.2
				c-0.3,0.3-0.7,0.5-1.2,0.5c-0.5,0-0.9-0.2-1.2-0.5L20.5,22.9c-0.3-0.3-0.5-0.7-0.5-1.2s0.2-0.9,0.5-1.2
				C20.9,20.2,21.3,20,21.7,20z"/>
			<path fill="#010101" d="M20.6,8.1c-0.7,0.7-1.7,1.5-2.9,2.2L16.8-2.1L31-16.5c1-1,1.5-2.2,1.5-3.5c0-1.4-0.5-2.5-1.5-3.5
				l-7.7-7.6c-0.9-0.9-2.1-1.4-3.5-1.4c-1.4,0-2.6,0.5-3.5,1.4L2.1-16.8l-12.4-0.9c0.7-1.2,1.5-2.2,2.2-2.9L9.2-38.1
				c2.9-3,6.4-4.4,10.6-4.4c4.2,0,7.7,1.4,10.6,4.3l7.7,7.6c3,2.9,4.4,6.4,4.4,10.6c0,4.1-1.5,7.6-4.4,10.6L20.6,8.1z"/>
			<path fill="#010101" d="M42.9,14.5c-0.3,0.3-0.7,0.5-1.2,0.5H25c-0.5,0-0.9-0.2-1.2-0.5c-0.3-0.3-0.5-0.7-0.5-1.2
				c0-0.5,0.2-0.9,0.5-1.2c0.3-0.3,0.7-0.5,1.2-0.5h16.7c0.5,0,0.9,0.2,1.2,0.5c0.3,0.3,0.5,0.7,0.5,1.2
				C43.3,13.8,43.2,14.2,42.9,14.5z"/>
			<path fill="#010101" d="M-23.4,31.1c1,0.9,2.2,1.4,3.5,1.4c1.4,0,2.6-0.5,3.5-1.5l14.2-14.3l12.4,0.9c-0.7,1.2-1.5,2.2-2.2,2.9
				L-9.2,38.1c-2.9,3-6.4,4.4-10.6,4.4c-4.2,0-7.7-1.4-10.6-4.3l-7.7-7.6c-3-2.9-4.4-6.4-4.4-10.6c0-4.1,1.5-7.6,4.4-10.6l17.5-17.5
				c0.7-0.7,1.7-1.5,2.9-2.2l0.9,12.5L-31,16.5c-1,1-1.5,2.2-1.5,3.5c0,1.4,0.5,2.5,1.5,3.5L-23.4,31.1z"/>
			<path fill="#010101" d="M-13.3-23.3c-0.5,0-0.9-0.2-1.2-0.5c-0.3-0.3-0.5-0.7-0.5-1.2v-16.7c0-0.5,0.2-0.9,0.5-1.2
				c0.3-0.3,0.7-0.5,1.2-0.5c0.5,0,0.9,0.2,1.2,0.5c0.3,0.3,0.5,0.7,0.5,1.2V-25c0,0.5-0.2,0.9-0.5,1.2
				C-12.4-23.5-12.8-23.3-13.3-23.3z"/>
		</g>
	</g>
	<g>
	</g>
	<g>
	</g>
	<g>
	</g>
	<g>
	</g>
	<g>
	</g>
	<g>
	</g>
	<g>
	</g>
	<g>
	</g>
	<g>
	</g>
	<g>
	</g>
	<g>
	</g>
	<g>
	</g>
	<g>
	</g>
	<g>
	</g>
	<g>
	</g>
</symbol>
<symbol  id="Wrench" viewBox="-15 -15 30 30">
	<g>
		<g>
			<path fill="#010101" d="M-1.9,3.4L-14.3-9c-0.5-0.5-0.7-1-0.7-1.7c0-0.7,0.2-1.2,0.7-1.6l1.9-2c0.5-0.5,1-0.7,1.7-0.7
				c0.6,0,1.2,0.2,1.6,0.7L3.4-1.9C2.2-1.4,1.2-0.7,0.2,0.2C-0.7,1.1-1.4,2.2-1.9,3.4z M-8.7-10.4c-0.2-0.2-0.5-0.3-0.8-0.3
				c-0.3,0-0.6,0.1-0.8,0.3c-0.2,0.2-0.3,0.5-0.3,0.8c0,0.3,0.1,0.6,0.3,0.8c0.2,0.2,0.5,0.3,0.8,0.3c0.3,0,0.6-0.1,0.8-0.3
				c0.2-0.2,0.3-0.5,0.3-0.8C-8.4-9.9-8.5-10.1-8.7-10.4z"/>
			<path fill="#010101" d="M14.8,6.5c-0.1,0.1-0.2,0.2-0.4,0.2c-0.1,0-0.5-0.2-1.3-0.6c-0.7-0.4-1.6-0.9-2.5-1.5
				C9.7,4,9.3,3.7,9.2,3.7l-3.5,2v4.1l5.3,3.1c0.2,0.1,0.3,0.3,0.3,0.5c0,0.2-0.1,0.4-0.3,0.5c-0.5,0.4-1.2,0.6-2,0.8
				C8.3,14.9,7.5,15,6.8,15c-2.3,0-4.2-0.8-5.8-2.4C-0.5,11-1.3,9.1-1.3,6.8c0-2.3,0.8-4.2,2.4-5.8c1.6-1.6,3.5-2.4,5.8-2.4
				c1.7,0,3.3,0.5,4.7,1.5c1.4,1,2.4,2.3,3,4C14.8,5,15,5.6,15,6.1C15,6.3,14.9,6.4,14.8,6.5z"/>
		</g>
	</g>
	<g>
	</g>
	<g>
	</g>
	<g>
	</g>
	<g>
	</g>
	<g>
	</g>
	<g>
	</g>
	<g>
	</g>
	<g>
	</g>
	<g>
	</g>
	<g>
	</g>
	<g>
	</g>
	<g>
	</g>
	<g>
	</g>
	<g>
	</g>
	<g>
	</g>
</symbol>
<symbol  id="check" viewBox="-20 -20 40 40">
	<g>
		<g>
			<path fill="#010101" d="M17.3,10c-1.8,3.1-4.2,5.5-7.3,7.3C7,19.1,3.6,20,0,20c-3.6,0-7-0.9-10-2.7c-3.1-1.8-5.5-4.2-7.3-7.3
				C-19.1,7-20,3.6-20,0c0-3.6,0.9-7,2.7-10c1.8-3.1,4.2-5.5,7.3-7.3C-7-19.1-3.6-20,0-20s7,0.9,10,2.7c3.1,1.8,5.5,4.2,7.3,7.3
				C19.1-7,20-3.6,20,0C20,3.6,19.1,7,17.3,10z M12.3-7.1c-1.3-2.2-3-3.9-5.2-5.2c-2.2-1.3-4.5-1.9-7.1-1.9c-2.6,0-4.9,0.6-7.1,1.9
				c-2.2,1.3-3.9,3-5.2,5.2c-1.3,2.2-1.9,4.5-1.9,7.1c0,2.6,0.6,4.9,1.9,7.1c1.3,2.2,3,3.9,5.2,5.2c2.2,1.3,4.5,1.9,7.1,1.9
				c2.6,0,4.9-0.6,7.1-1.9c2.2-1.3,3.9-3,5.2-5.2c1.3-2.2,1.9-4.5,1.9-7.1C14.2-2.6,13.5-4.9,12.3-7.1z"/>
			<path fill="#010101" d="M7.8,7.2C7.5,7.5,7.1,7.7,6.7,7.7c-0.5,0-0.8-0.2-1.2-0.5L-1.7,0l-3.8,3.8c-0.3,0.3-0.7,0.5-1.2,0.5
				s-0.8-0.2-1.2-0.5l-2.7-2.7C-10.8,0.8-11,0.5-11,0c0-0.5,0.2-0.8,0.5-1.2l7.7-7.7c0.3-0.3,0.7-0.5,1.2-0.5c0.5,0,0.8,0.2,1.2,0.5
				l11,11C10.8,2.5,11,2.9,11,3.3c0,0.5-0.2,0.8-0.5,1.2L7.8,7.2z"/>
		</g>
	</g>
	<g>
	</g>
	<g>
	</g>
	<g>
	</g>
	<g>
	</g>
	<g>
	</g>
	<g>
	</g>
	<g>
	</g>
	<g>
	</g>
	<g>
	</g>
	<g>
	</g>
	<g>
	</g>
	<g>
	</g>
	<g>
	</g>
	<g>
	</g>
	<g>
	</g>
</symbol>
<symbol  id="eraser" viewBox="-15 -10 30 20">
	<g>
		<path fill="#D65F35" d="M14.8,8.8c-0.2,0.4-0.4,0.6-0.7,0.9C13.8,9.9,13.4,10,13,10H1c-0.6,0-1.1-0.2-1.5-0.7l-14-16
			c-0.3-0.3-0.4-0.6-0.5-1c-0.1-0.4,0-0.8,0.1-1.1c0.2-0.4,0.4-0.6,0.7-0.9c0.3-0.2,0.7-0.3,1.1-0.3h12c0.6,0,1.1,0.2,1.5,0.7l14,16
			c0.3,0.3,0.4,0.6,0.5,1C15,8.1,15,8.5,14.8,8.8z M-1-8h-12l5.3,6h12L-1-8z"/>
	</g>
	<g>
	</g>
	<g>
	</g>
	<g>
	</g>
	<g>
	</g>
	<g>
	</g>
	<g>
	</g>
	<g>
	</g>
	<g>
	</g>
	<g>
	</g>
	<g>
	</g>
	<g>
	</g>
	<g>
	</g>
	<g>
	</g>
	<g>
	</g>
	<g>
	</g>
</symbol>
<symbol  id="left_hand" viewBox="-46.7 -40 93.3 80">
	<g>
		<path fill="#010101" d="M44.7,11.4c-1.3,1.3-2.9,2-4.7,2H25c-0.3,0-0.7,0.1-1.1,0.2c-0.4,0.2-0.8,0.4-1.2,0.7
			c-0.4,0.3-0.8,0.6-1.2,0.9s-0.8,0.7-1.2,1.2c-0.5,0.5-0.8,0.9-1.1,1.1c-0.2,0.3-0.6,0.6-1,1.1c-0.4,0.5-0.7,0.8-0.7,0.9
			c-2.3,2.6-4,4.8-5.2,6.7c-0.5,0.7-1,1.8-1.7,3.2c-0.7,1.4-1.3,2.7-1.9,3.8c-0.6,1.1-1.3,2.2-2.1,3.3c-0.8,1.1-1.8,2-2.9,2.6
			C2.5,39.7,1.3,40,0,40c-4.3,0-7.9-1.2-10.8-3.5c-2.8-2.3-4.2-5.6-4.2-9.8c0-2.4,0.4-4.6,1.1-6.7h-19.5c-3.6,0-6.7-1.3-9.4-4
			s-4-5.7-4-9.3c0-3.6,1.3-6.8,3.9-9.4c2.6-2.6,5.8-4,9.4-4h8.8c0.1-2.2,0.8-4.2,1.9-6.2c-0.1-0.7-0.2-1.5-0.2-2.2
			c0-3.5,1.1-6.6,3.2-9.3l-0.1-0.3c0-4.9,1.5-8.6,4.5-11.3c3.1-2.7,7-4,12-4c4.4,0,9.9,1.2,16.5,3.6c5.7,2,9.6,3.1,11.6,3.1h15
			c1.8,0,3.4,0.7,4.7,2c1.3,1.3,2,2.9,2,4.7V6.7C46.7,8.5,46,10.1,44.7,11.4z M26.7-26.7H25c-2.5,0-5.4-0.6-8.7-1.7
			c-3.3-1.1-6.7-2.2-10.1-3.3c-3.4-1.1-6.6-1.7-9.5-1.7c-3,0-5.4,0.7-7.1,2.1c-1.7,1.4-2.5,3.6-2.5,6.6c0,1.1,0.1,2.1,0.2,2.9
			c-1,0.6-1.9,1.5-2.5,2.7c-0.6,1.3-0.9,2.5-0.9,3.8c0,1.3,0.3,2.5,0.9,3.6c-1.8,1.7-2.8,3.8-2.8,6.2c0,0.9,0.2,1.8,0.5,2.9
			c0.3,1.1,0.8,1.9,1.3,2.5h-17.2c-1.8,0-3.4,0.7-4.7,2c-1.3,1.3-2,2.9-2,4.7c0,1.8,0.7,3.3,2,4.7c1.4,1.3,2.9,2,4.6,2h30
			c0,0.7-0.3,1.5-0.8,2.5c-0.5,1-1.1,1.9-1.7,2.9c-0.6,0.9-1.2,2.1-1.7,3.5c-0.5,1.4-0.8,2.9-0.8,4.4c0,2.3,0.8,4,2.3,5.1
			c1.5,1.1,3.6,1.6,6,1.6c0.3,0,0.6-0.2,1-0.6c0.4-0.4,0.7-0.9,1.1-1.6c0.4-0.7,0.7-1.3,1-1.8c0.3-0.6,0.6-1.2,1-1.9
			c0.3-0.7,0.5-1.1,0.5-1.2c0.8-1.6,1.5-2.8,2-3.5c1.4-2.2,3.3-4.7,5.8-7.6c0.1-0.1,0.1-0.2,0.2-0.3c0.1-0.1,0.2-0.2,0.2-0.2
			c0.1-0.1,0.1-0.1,0.2-0.2c1-1.1,1.9-2.1,2.6-2.8c0.7-0.7,1.6-1.5,2.6-2.4c1-0.9,2.1-1.5,3.3-1.9c1.1-0.4,2.3-0.6,3.5-0.6h1.7
			L26.7-26.7L26.7-26.7L26.7-26.7z M39-25.7c-0.7-0.7-1.4-1-2.3-1c-0.9,0-1.7,0.3-2.3,1c-0.7,0.7-1,1.4-1,2.3c0,0.9,0.3,1.7,1,2.3
			c0.7,0.7,1.4,1,2.3,1c0.9,0,1.7-0.3,2.3-1c0.7-0.7,1-1.4,1-2.3C40-24.2,39.7-25,39-25.7z"/>
	</g>
	<g>
	</g>
	<g>
	</g>
	<g>
	</g>
	<g>
	</g>
	<g>
	</g>
	<g>
	</g>
	<g>
	</g>
	<g>
	</g>
	<g>
	</g>
	<g>
	</g>
	<g>
	</g>
	<g>
	</g>
	<g>
	</g>
	<g>
	</g>
	<g>
	</g>
</symbol>
<symbol  id="monitor" viewBox="-14.4 -12.5 28.8 25">
	<g>
		<path fill="#010101" d="M13.7,11.8c-0.5,0.5-1,0.7-1.7,0.7h-24c-0.7,0-1.2-0.2-1.7-0.7c-0.5-0.5-0.7-1-0.7-1.7V-6.2
			c0-0.7,0.2-1.2,0.7-1.7c0.5-0.5,1-0.7,1.7-0.7h8.2c0-0.4-0.1-0.8-0.2-1.2c-0.2-0.4-0.3-0.8-0.5-1.1c-0.2-0.3-0.2-0.5-0.2-0.7
			c0-0.3,0.1-0.5,0.3-0.7c0.2-0.2,0.4-0.3,0.7-0.3h7.7c0.3,0,0.5,0.1,0.7,0.3c0.2,0.2,0.3,0.4,0.3,0.7c0,0.1-0.1,0.3-0.2,0.7
			c-0.2,0.3-0.3,0.7-0.5,1.1C3.9-9.4,3.8-9,3.8-8.7H12c0.7,0,1.2,0.2,1.7,0.7c0.5,0.5,0.7,1,0.7,1.7v16.3
			C14.4,10.8,14.2,11.3,13.7,11.8z M12.5-2.4c0-0.1,0-0.2-0.1-0.3c-0.1-0.1-0.2-0.1-0.3-0.1h-24c-0.1,0-0.2,0-0.3,0.1
			c-0.1,0.1-0.1,0.2-0.1,0.3v12.5c0,0.1,0,0.2,0.1,0.3c0.1,0.1,0.2,0.1,0.3,0.1h24c0.1,0,0.2,0,0.3-0.1c0.1-0.1,0.1-0.2,0.1-0.3
			V-2.4L12.5-2.4z"/>
	</g>
	<g>
	</g>
	<g>
	</g>
	<g>
	</g>
	<g>
	</g>
	<g>
	</g>
	<g>
	</g>
	<g>
	</g>
	<g>
	</g>
	<g>
	</g>
	<g>
	</g>
	<g>
	</g>
	<g>
	</g>
	<g>
	</g>
	<g>
	</g>
	<g>
	</g>
</symbol>
<symbol  id="right_hand" viewBox="-46.7 -40 93.3 80">
	<g>
		<path fill="#010101" d="M42.7,16c-2.6,2.6-5.8,4-9.4,4H13.9c0.8,2.1,1.1,4.3,1.1,6.7c0,4.2-1.4,7.5-4.2,9.8C7.9,38.8,4.3,40,0,40
			c-1.3,0-2.5-0.3-3.6-0.9c-1.1-0.6-2-1.5-2.9-2.6c-0.8-1.1-1.5-2.2-2.1-3.3c-0.6-1.1-1.2-2.3-1.9-3.7c-0.7-1.4-1.3-2.5-1.7-3.2
			c-1.2-1.9-3-4.1-5.2-6.7c-0.1-0.1-0.3-0.4-0.7-0.9c-0.4-0.5-0.7-0.9-1-1.1c-0.2-0.3-0.6-0.6-1.1-1.1c-0.5-0.5-0.9-0.9-1.3-1.2
			c-0.4-0.3-0.8-0.6-1.2-0.9c-0.4-0.3-0.8-0.6-1.2-0.7c-0.4-0.2-0.8-0.2-1.1-0.2h-15c-1.8,0-3.4-0.7-4.7-2c-1.3-1.3-2-2.9-2-4.7
			v-33.3c0-1.8,0.7-3.4,2-4.7c1.3-1.3,2.9-2,4.7-2h15c2,0,5.9-1,11.6-3.1C-6.8-38.8-1.2-40,3.4-40c4.9,0,8.8,1.4,11.8,4.2
			c3,2.8,4.5,6.6,4.4,11.4c2.1,2.7,3.1,5.8,3.1,9.3c0,0.8-0.1,1.5-0.2,2.2c1.1,2,1.8,4,1.9,6.2h8.8c3.6,0,6.8,1.3,9.4,4
			c2.6,2.6,3.9,5.8,3.9,9.4C46.7,10.3,45.3,13.4,42.7,16z M-34.3-25.7c-0.7-0.7-1.4-1-2.3-1c-0.9,0-1.7,0.3-2.3,1
			c-0.7,0.7-1,1.4-1,2.3c0,0.9,0.3,1.7,1,2.3c0.7,0.7,1.4,1,2.3,1c0.9,0,1.7-0.3,2.3-1c0.7-0.7,1-1.4,1-2.3
			C-33.3-24.2-33.7-25-34.3-25.7z M38,2c-1.3-1.3-2.9-2-4.7-2H16.1c0.5-0.6,1-1.4,1.3-2.5c0.3-1.1,0.5-2,0.5-2.9
			c0-2.4-0.9-4.5-2.8-6.2c0.6-1.1,0.9-2.3,0.9-3.6c0-1.3-0.3-2.6-0.9-3.8c-0.6-1.3-1.4-2.2-2.5-2.7c0.2-1,0.3-2,0.3-2.9
			c0-5.8-3.3-8.7-9.8-8.7c-2.8,0-5.9,0.6-9.3,1.7c-3.4,1.1-6.8,2.2-10.1,3.3c-3.3,1.1-6.2,1.7-8.7,1.7h-1.7V6.7h1.7
			c2.5,0,4.9,1,7.3,3c1,0.9,2.8,2.7,5.3,5.5c2.5,2.8,4.4,5.3,5.8,7.6c0.5,0.7,1.1,1.9,1.9,3.4c2.3,4.8,3.9,7.2,4.7,7.2
			c2.5,0,4.5-0.5,6-1.6c1.5-1.1,2.3-2.8,2.3-5.1c0-1.5-0.3-3-0.8-4.4c-0.5-1.4-1.1-2.6-1.7-3.5s-1.2-1.9-1.7-2.9
			c-0.5-1-0.8-1.8-0.8-2.5h30c1.7,0,3.3-0.7,4.6-2c1.4-1.3,2-2.9,2-4.7C40,4.9,39.3,3.3,38,2z"/>
	</g>
	<g>
	</g>
	<g>
	</g>
	<g>
	</g>
	<g>
	</g>
	<g>
	</g>
	<g>
	</g>
	<g>
	</g>
	<g>
	</g>
	<g>
	</g>
	<g>
	</g>
	<g>
	</g>
	<g>
	</g>
	<g>
	</g>
	<g>
	</g>
	<g>
	</g>
</symbol>
<g id="Structure">
</g>
<g id="Layer_1">
	<g>
		<text transform="matrix(1 0 0 1 252.174 -56.6687)" font-family="'SourceSansPro-Regular'" font-size="12">The first step is to add the device to the system.</text>
		<g>
			
				<use xlink:href="#Camera"  width="40" height="34.7" x="-20" y="-17.3" transform="matrix(1.1538 0 0 -1.1538 275.2504 -25.6847)" overflow="visible"/>
			<text transform="matrix(1 0 0 1 301.2421 -21.7797)" font-family="'SourceSansPro-Regular'" font-size="18">Snapshot</text>
			<text transform="matrix(1 0 0 1 301.2424 -6.9468)" fill="#231F20" font-family="'SourceSansPro-Regular'" font-size="13">Inventories, tests and erasures.</text>
			<text transform="matrix(1 0 0 1 301.2416 -36.1539)" fill="#606161" font-family="'SourceSansPro-Regular'" font-size="15">event</text>
		</g>
		<g>
			<g>
				<g>
					<g>
						<circle fill="#F19C22" cx="185.3" cy="-34.1" r="6.2"/>
						<path fill="#F19C22" d="M185.3-41.3c4,0,7.2,3.2,7.2,7.2s-3.2,7.2-7.2,7.2s-7.2-3.2-7.2-7.2C178.1-38,181.3-41.3,185.3-41.3z
							 M185.3-28.9c2.8,0,5.1-2.3,5.1-5.1c0-2.8-2.3-5.1-5.1-5.1c-2.8,0-5.1,2.3-5.1,5.1S182.5-28.9,185.3-28.9z"/>
					</g>
					<rect x="184.3" y="-73.1" fill="#556B7A" width="2.1" height="32.9"/>
					<path fill="#556B7A" d="M191.5-47.4c0.3,0,0.5,0.1,0.7,0.3c0.4,0.4,0.4,1.1,0,1.5l-6.2,6.2c-0.4,0.4-1.1,0.4-1.5,0
						s-0.4-1.1,0-1.5l6.2-6.2C190.9-47.3,191.2-47.4,191.5-47.4z"/>
					<path fill="#556B7A" d="M179.1-47.4c0.3,0,0.5,0.1,0.7,0.3L186-41c0.4,0.4,0.4,1.1,0,1.5s-1.1,0.4-1.5,0l-6.2-6.2
						c-0.4-0.4-0.4-1.1,0-1.5C178.6-47.3,178.9-47.4,179.1-47.4z"/>
				</g>
			</g>
			
				<use xlink:href="#monitor"  width="28.8" height="25" x="-14.4" y="-12.5" transform="matrix(1 0 0 -1 184.8008 -13.1848)" overflow="visible"/>
		</g>
		
			<use xlink:href="#Box"  width="612" height="72.7" id="XMLID_2_" x="-306" y="-18.9" transform="matrix(1 0 0 -1 306 -18.784)" overflow="visible"/>
		<text transform="matrix(1 0 0 1 8.5888 -9.5386)" fill="#606161" font-family="'SourceSansPro-Regular'" font-size="40">1</text>
	</g>
	<g>
		<g>
			<text transform="matrix(1 0 0 1 252.8972 233.2893)" font-family="'SourceSansPro-Regular'" font-size="12">...and we repair it.</text>
			<g>
				<text transform="matrix(1 0 0 1 296.7081 268.6)" font-family="'SourceSansPro-Regular'" font-size="18">Repair</text>
				<text transform="matrix(1 0 0 1 296.7085 283.4329)" fill="#231F20" font-family="'SourceSansPro-Regular'" font-size="13">The device has been succesfully repaired.</text>
				<text transform="matrix(1 0 0 1 296.7077 254.2259)" fill="#606161" font-family="'SourceSansPro-Regular'" font-size="15">event</text>
				
					<use xlink:href="#Unlink"  width="86.7" height="86.7" x="-43.3" y="-43.3" transform="matrix(0.4615 0 0 -0.4615 272.1742 264.6951)" overflow="visible"/>
			</g>
		</g>
		
			<use xlink:href="#Box"  width="612" height="72.7" x="-306" y="-18.9" transform="matrix(1 0 0 -1 306 270.9915)" overflow="visible"/>
		<text transform="matrix(1 0 0 1 8.5888 278.094)" fill="#606161" font-family="'SourceSansPro-Regular'" font-size="40">5</text>
		<g>
			<g>
				<g>
					<g>
						<circle fill="#F19C22" cx="184.7" cy="258" r="6.2"/>
						<path fill="#F19C22" d="M184.7,250.8c4,0,7.2,3.2,7.2,7.2c0,4-3.2,7.2-7.2,7.2c-4,0-7.2-3.2-7.2-7.2S180.7,250.8,184.7,250.8z
							 M184.7,263.2c2.8,0,5.1-2.3,5.1-5.1c0-2.8-2.3-5.1-5.1-5.1c-2.8,0-5.1,2.3-5.1,5.1C179.6,260.9,181.9,263.2,184.7,263.2z"/>
					</g>
					<rect x="183.7" y="219" fill="#556B7A" width="2.1" height="32.9"/>
					<path fill="#556B7A" d="M190.9,244.7c0.3,0,0.5,0.1,0.7,0.3c0.4,0.4,0.4,1.1,0,1.5l-6.2,6.2c-0.4,0.4-1.1,0.4-1.5,0
						s-0.4-1.1,0-1.5l6.2-6.2C190.3,244.8,190.6,244.7,190.9,244.7z"/>
					<path fill="#556B7A" d="M178.5,244.7c0.3,0,0.5,0.1,0.7,0.3l6.2,6.2c0.4,0.4,0.4,1.1,0,1.5c-0.4,0.4-1.1,0.4-1.5,0l-6.2-6.2
						c-0.4-0.4-0.4-1.1,0-1.5C178,244.8,178.3,244.7,178.5,244.7z"/>
				</g>
			</g>
			
				<use xlink:href="#monitor"  width="28.8" height="25" x="-14.4" y="-12.5" transform="matrix(1 0 0 -1 184.6941 276.3521)" overflow="visible"/>
		</g>
	</g>
	<g>
		<g>
			<g>
				<g>
					<circle fill="#4C99BC" cx="184.8" cy="40.2" r="4.9"/>
					<path fill="#4C99BC" d="M184.8,34.6c3.1,0,5.7,2.5,5.7,5.7s-2.5,5.7-5.7,5.7c-3.1,0-5.7-2.5-5.7-5.7S181.7,34.6,184.8,34.6z
						 M184.8,44.3c2.2,0,4.1-1.8,4.1-4.1c0-2.2-1.8-4.1-4.1-4.1c-2.2,0-4.1,1.8-4.1,4.1C180.8,42.5,182.6,44.3,184.8,44.3z"/>
				</g>
				<g>
					<circle fill="#58B0E2" cx="58.7" cy="40.2" r="4.9"/>
					<path fill="#58B0E2" d="M58.7,34.6c3.1,0,5.7,2.5,5.7,5.7s-2.5,5.7-5.7,5.7c-3.1,0-5.7-2.5-5.7-5.7S55.5,34.6,58.7,34.6z
						 M58.7,44.3c2.2,0,4.1-1.8,4.1-4.1c0-2.2-1.8-4.1-4.1-4.1c-2.2,0-4.1,1.8-4.1,4.1C54.6,42.5,56.4,44.3,58.7,44.3z"/>
				</g>
				<rect x="184" y="9.4" fill="#556B7A" width="1.6" height="25.9"/>
				<g>
					<path fill="#556B7A" d="M59.1,33.3c0.1,0,0.2,0,0.4,0c2.1,0,3.7,0.4,3.5,0.9c-0.2,0.4-0.2,0.8-0.2,1.1c0,0.4-1.7,0.8-3.8,0.8
						S55,35.8,55,35.4c0-0.4,0.1-0.9,0.3-1.3C55.5,33.7,57.1,33.3,59.1,33.3z"/>
					<path fill="#556B7A" d="M75.3,25.7c0.9,0,1.9,0.1,2.6,0.2c1.6,0.3,1.6,0.8,0.2,1.1c-1.4,0.3-2.8,0.7-4,1
						c-1.3,0.4-3.7,0.4-5.4,0.2c-1.7-0.3-2-0.8-0.8-1.1c1.4-0.4,3-0.8,4.6-1.2C73.3,25.8,74.3,25.7,75.3,25.7z M64.2,29.2
						c0.5,0,1.1,0,1.6,0.1c1.9,0.2,2.8,0.7,1.9,1.1c-0.9,0.4-1.6,0.8-2.3,1.2c-0.7,0.4-2.8,0.7-4.8,0.5c-2-0.1-3.1-0.6-2.5-1
						c0.7-0.5,1.6-0.9,2.6-1.4C61.4,29.4,62.8,29.2,64.2,29.2z"/>
					<path fill="#556B7A" d="M178.8,12.6c0.4,0,0.8,0,1.2,0c2,0.1,3.1,0.6,2.5,1c-0.7,0.5-1.6,1-2.6,1.4c-0.9,0.4-3.2,0.6-5.1,0.4
						c-1.9-0.2-2.8-0.7-1.9-1.1c0.9-0.4,1.6-0.8,2.3-1.2C175.7,12.8,177.2,12.6,178.8,12.6z M169.6,16.4c0.8,0,1.6,0.1,2.3,0.2
						c1.7,0.3,2,0.8,0.8,1.1c-1.4,0.4-3,0.8-4.6,1.2c-1.4,0.3-3.9,0.3-5.4,0c-1.6-0.3-1.6-0.8-0.2-1.1c1.4-0.3,2.8-0.7,4-1
						C167.2,16.5,168.4,16.4,169.6,16.4z M155.1,19.3c1.2,0,2.4,0.1,3.2,0.4c1.2,0.4,0.8,0.9-1,1.1c-2.9,0.4-6.1,0.8-9.3,1.1
						c-1.9,0.2-4.2,0-5.1-0.4c-0.9-0.4-0.1-0.9,1.9-1.1c2.9-0.3,5.6-0.6,8.2-1C153.6,19.4,154.3,19.3,155.1,19.3z M133.6,21.3
						c1.8,0,3.4,0.3,3.7,0.6c0.5,0.4-0.9,0.9-2.9,1c-2.3,0.1-4.7,0.2-7,0.2c-2.1,0-4-0.3-4.2-0.7c-0.2-0.4,1.3-0.8,3.4-0.9
						c2.1,0,4.2-0.1,6.2-0.2C133.1,21.3,133.3,21.3,133.6,21.3z M113.6,21.7c1.9,0,3.6,0.3,3.8,0.7c0.2,0.4-1.3,0.8-3.4,0.9
						c-2.1,0-4.1,0.1-6.2,0.2c-2.1,0.1-4.1-0.2-4.6-0.6c-0.5-0.4,0.8-0.9,2.9-1c2.3-0.1,4.7-0.2,7.1-0.2
						C113.3,21.7,113.4,21.7,113.6,21.7z M94.2,22.8c1.4,0,2.8,0.2,3.5,0.5c0.9,0.4,0.1,0.9-1.9,1.1c-2.8,0.3-5.6,0.6-8.2,1
						c-1.7,0.3-4.1,0.2-5.3-0.2c-1.2-0.4-0.8-0.9,1-1.1c3-0.4,6.1-0.8,9.3-1.1C93.1,22.8,93.7,22.8,94.2,22.8z"/>
					<path fill="#556B7A" d="M181.8,8.6c2.1,0,3.8,0.4,3.8,0.8c0,0.4-0.1,0.9-0.3,1.3c-0.2,0.4-2,0.8-4.2,0.7
						c-2.1,0-3.7-0.4-3.5-0.9c0.2-0.4,0.2-0.8,0.2-1.1C177.9,9,179.7,8.6,181.8,8.6z"/>
				</g>
				<path fill="#556B7A" d="M189.7,29.7c0.2,0,0.4,0.1,0.6,0.2c0.3,0.3,0.3,0.8,0,1.1l-4.9,4.9c-0.3,0.3-0.8,0.3-1.1,0
					s-0.3-0.8,0-1.1l4.9-4.9C189.3,29.8,189.5,29.7,189.7,29.7z"/>
				<path fill="#556B7A" d="M180,29.7c0.2,0,0.4,0.1,0.6,0.2l4.9,4.9c0.3,0.3,0.3,0.8,0,1.1s-0.8,0.3-1.1,0l-4.9-4.9
					c-0.3-0.3-0.3-0.8,0-1.1C179.5,29.8,179.7,29.7,180,29.7z"/>
				<g>
					<circle fill="#3E7A96" cx="184.8" cy="4.6" r="4.9"/>
					<path fill="#3E7A96" d="M184.8-1.1c3.1,0,5.7,2.5,5.7,5.7s-2.5,5.7-5.7,5.7c-3.1,0-5.7-2.5-5.7-5.7S181.7-1.1,184.8-1.1z
						 M184.8,8.6c2.2,0,4.1-1.8,4.1-4.1s-1.8-4.1-4.1-4.1c-2.2,0-4.1,1.8-4.1,4.1S182.6,8.6,184.8,8.6z"/>
				</g>
			</g>
		</g>
		<g>
			<text transform="matrix(1 0 0 1 252.5586 9.8496)"><tspan x="0" y="0" font-family="'SourceSansPro-Regular'" font-size="12">Now we need to work with the device, </tspan><tspan x="0" y="14.4" font-family="'SourceSansPro-Regular'" font-size="12">preparing them for reuse.</tspan></text>
			<g>
				<text transform="matrix(1 0 0 1 296.7081 52.4127)" font-family="'SourceSansPro-Regular'" font-size="18">To Prepare</text>
				<text transform="matrix(1 0 0 1 296.7085 67.2456)" fill="#231F20" font-family="'SourceSansPro-Regular'" font-size="13">Indicates that the devices need to be prepared.</text>
				<text transform="matrix(1 0 0 1 296.7076 38.0385)" fill="#606161" font-family="'SourceSansPro-Regular'" font-size="15">event</text>
				
					<use xlink:href="#Wrench"  width="30" height="30" x="-15" y="-15" transform="matrix(1.3333 0 0 -1.3333 272.1742 48.5077)" overflow="visible"/>
			</g>
		</g>
		
			<use xlink:href="#monitor"  width="28.8" height="25" id="XMLID_4_" x="-14.4" y="-12.5" transform="matrix(1 0 0 -1 184.8158 58.5422)" overflow="visible"/>
		
			<use xlink:href="#Box"  width="612" height="72.7" id="XMLID_3_" x="-306" y="-18.9" transform="matrix(1 0 0 -1 306 53.0959)" overflow="visible"/>
		<text transform="matrix(1 0 0 1 8.5889 62.3246)" fill="#606161" font-family="'SourceSansPro-Regular'" font-size="40">2</text>
	</g>
	<g>
		<g>
			<text transform="matrix(1 0 0 1 252.8972 305.5038)" font-family="'SourceSansPro-Regular'" font-size="12">The device is ready to be reused</text>
			<g>
				<text transform="matrix(1 0 0 1 296.7081 340.8145)" font-family="'SourceSansPro-Regular'" font-size="18">Ready</text>
				<text transform="matrix(1 0 0 1 296.7085 355.6474)" fill="#231F20" font-family="'SourceSansPro-Regular'" font-size="13">The device is ready to be reused.</text>
				<text transform="matrix(1 0 0 1 296.7077 326.4403)" fill="#606161" font-family="'SourceSansPro-Regular'" font-size="15">event</text>
				
					<use xlink:href="#check"  width="40" height="40" id="XMLID_5_" x="-20" y="-20" transform="matrix(1 0 0 -1 272.1741 337.4275)" overflow="visible"/>
			</g>
		</g>
		
			<use xlink:href="#Box"  width="612" height="72.7" x="-306" y="-18.9" transform="matrix(1 0 0 -1 306 343.206)" overflow="visible"/>
		<text transform="matrix(1 0 0 1 8.5888 350.3085)" fill="#606161" font-family="'SourceSansPro-Regular'" font-size="40">6</text>
		<g>
			<g>
				<g>
					<g>
						<circle fill="#F19C22" cx="184.7" cy="330.2" r="6.2"/>
						<path fill="#F19C22" d="M184.7,323.1c4,0,7.2,3.2,7.2,7.2c0,4-3.2,7.2-7.2,7.2c-4,0-7.2-3.2-7.2-7.2S180.7,323,184.7,323.1z
							 M184.7,335.4c2.8,0,5.1-2.3,5.1-5.1s-2.3-5.1-5.1-5.1c-2.8,0-5.1,2.3-5.1,5.1C179.6,333.1,181.9,335.4,184.7,335.4z"/>
					</g>
					<rect x="183.7" y="291.2" fill="#556B7A" width="2.1" height="32.9"/>
					<path fill="#556B7A" d="M190.9,316.9c0.3,0,0.5,0.1,0.7,0.3c0.4,0.4,0.4,1.1,0,1.5l-6.2,6.2c-0.4,0.4-1.1,0.4-1.5,0
						c-0.4-0.4-0.4-1.1,0-1.5l6.2-6.2C190.3,317,190.6,316.9,190.9,316.9z"/>
					<path fill="#556B7A" d="M178.5,316.9c0.3,0,0.5,0.1,0.7,0.3l6.2,6.2c0.4,0.4,0.4,1.1,0,1.5c-0.4,0.4-1.1,0.4-1.5,0l-6.2-6.2
						c-0.4-0.4-0.4-1.1,0-1.5C178,317,178.3,316.9,178.5,316.9z"/>
				</g>
			</g>
			
				<use xlink:href="#monitor"  width="28.8" height="25" x="-14.4" y="-12.5" transform="matrix(1 0 0 -1 184.6941 348.5666)" overflow="visible"/>
		</g>
	</g>
	<g>
		<g>
			<text transform="matrix(1 0 0 1 252.8972 162.0961)" font-family="'SourceSansPro-Regular'" font-size="12">If the device is broken, we can take it to repair.</text>
			<g>
				<text transform="matrix(1 0 0 1 296.7081 197.4068)" font-family="'SourceSansPro-Regular'" font-size="18">To Repair</text>
				<text transform="matrix(1 0 0 1 296.7085 212.2397)" fill="#231F20" font-family="'SourceSansPro-Regular'" font-size="13">Sets a device to be repaired.</text>
				<text transform="matrix(1 0 0 1 296.7077 183.0326)" fill="#606161" font-family="'SourceSansPro-Regular'" font-size="15">event</text>
				
					<use xlink:href="#Unlink"  width="86.7" height="86.7" x="-43.3" y="-43.3" transform="matrix(0.4615 0 0 -0.4615 272.1742 193.5019)" overflow="visible"/>
			</g>
		</g>
		
			<use xlink:href="#monitor"  width="28.8" height="25" x="-14.4" y="-12.5" transform="matrix(1 0 0 -1 184.6941 203.3226)" overflow="visible"/>
		
			<use xlink:href="#Box"  width="612" height="72.7" id="XMLID_1_" x="-306" y="-18.9" transform="matrix(1 0 0 -1 306 198.09)" overflow="visible"/>
		<text transform="matrix(1 0 0 1 8.5889 207.3187)" fill="#606161" font-family="'SourceSansPro-Regular'" font-size="40">4</text>
		<g>
			<g>
				<g>
					<circle fill="#4C99BC" cx="184.6" cy="185.6" r="4.9"/>
					<path fill="#4C99BC" d="M184.6,180c3.1,0,5.7,2.5,5.7,5.7s-2.5,5.7-5.7,5.7c-3.1,0-5.7-2.5-5.7-5.7S181.5,180,184.6,180z
						 M184.6,189.7c2.2,0,4.1-1.8,4.1-4.1c0-2.2-1.8-4.1-4.1-4.1c-2.2,0-4.1,1.8-4.1,4.1C180.5,187.9,182.4,189.7,184.6,189.7z"/>
				</g>
				<g>
					<circle fill="#58B0E2" cx="121.5" cy="185.6" r="4.9"/>
					<path fill="#58B0E2" d="M121.5,180c3.1,0,5.7,2.5,5.7,5.7s-2.5,5.7-5.7,5.7s-5.7-2.5-5.7-5.7S118.4,180,121.5,180z
						 M121.5,189.7c2.2,0,4.1-1.8,4.1-4.1c0-2.2-1.8-4.1-4.1-4.1s-4.1,1.8-4.1,4.1C117.5,187.9,119.3,189.7,121.5,189.7z"/>
				</g>
				<rect x="183.8" y="154.8" fill="#556B7A" width="1.6" height="25.9"/>
				<g>
					<path fill="#556B7A" d="M121.7,178.7c0.1,0,0.1,0,0.2,0c1.1,0,1.8,0.4,1.7,0.9c-0.1,0.4-0.1,0.8-0.1,1.1c0,0.4-0.9,0.8-1.9,0.8
						c-1.1,0-1.9-0.4-1.9-0.8c0-0.4,0-0.9,0.1-1.3C119.9,179.1,120.7,178.7,121.7,178.7z"/>
					<path fill="#556B7A" d="M129.9,171.1c0.5,0,0.9,0.1,1.3,0.2c0.8,0.3,0.8,0.8,0.1,1.1c-0.7,0.3-1.4,0.7-2,1
						c-0.6,0.4-1.8,0.4-2.7,0.2c-0.9-0.3-1-0.8-0.4-1.1c0.7-0.4,1.5-0.8,2.3-1.2C128.9,171.2,129.4,171.1,129.9,171.1z M124.3,174.7
						c0.3,0,0.5,0,0.8,0.1c1,0.2,1.4,0.7,1,1.1c-0.4,0.4-0.8,0.8-1.1,1.2c-0.3,0.4-1.4,0.7-2.4,0.5c-1-0.1-1.6-0.6-1.2-1
						c0.4-0.5,0.8-0.9,1.3-1.4C122.9,174.8,123.6,174.7,124.3,174.7z"/>
					<path fill="#556B7A" d="M182,158c0.2,0,0.4,0,0.6,0c1,0.1,1.6,0.6,1.2,1c-0.4,0.5-0.8,1-1.3,1.4c-0.4,0.4-1.6,0.6-2.6,0.4
						c-1-0.2-1.4-0.7-1-1.1c0.4-0.4,0.8-0.8,1.1-1.2C180.4,158.3,181.1,158,182,158z M177.3,161.8c0.4,0,0.8,0.1,1.2,0.2
						c0.9,0.3,1,0.8,0.4,1.1c-0.7,0.4-1.5,0.8-2.3,1.2c-0.7,0.3-2,0.3-2.7,0c-0.8-0.3-0.8-0.8-0.1-1.1c0.7-0.3,1.4-0.7,2-1
						C176.1,161.9,176.7,161.8,177.3,161.8z M170,164.7c0.6,0,1.2,0.1,1.6,0.4c0.6,0.4,0.4,0.9-0.5,1.1c-1.5,0.4-3.1,0.8-4.7,1.1
						c-1,0.2-2.1,0-2.6-0.4c-0.5-0.4,0-0.9,0.9-1.1c1.4-0.3,2.8-0.6,4.1-1C169.3,164.8,169.6,164.7,170,164.7z M159.2,166.7
						c0.9,0,1.7,0.3,1.9,0.6c0.2,0.4-0.4,0.9-1.5,1c-1.2,0.1-2.4,0.2-3.5,0.2c-1,0-2-0.3-2.1-0.7c-0.1-0.4,0.7-0.8,1.7-0.9
						c1,0,2.1-0.1,3.1-0.2C158.9,166.7,159.1,166.7,159.2,166.7z M149.1,167.1c1,0,1.8,0.3,1.9,0.7c0.1,0.4-0.7,0.8-1.7,0.9
						c-1,0-2.1,0.1-3.1,0.2c-1,0.1-2.1-0.2-2.3-0.6c-0.2-0.4,0.4-0.9,1.5-1c1.2-0.1,2.4-0.2,3.5-0.2
						C149,167.1,149.1,167.1,149.1,167.1z M139.4,168.2c0.7,0,1.4,0.2,1.8,0.5c0.5,0.4,0,0.9-0.9,1.1c-1.4,0.3-2.8,0.6-4.1,1
						c-0.9,0.3-2.1,0.2-2.7-0.2c-0.6-0.4-0.4-0.9,0.5-1.1c1.5-0.4,3.1-0.8,4.7-1.1C138.9,168.2,139.1,168.2,139.4,168.2z"/>
					<path fill="#556B7A" d="M183.5,154c1.1,0,1.9,0.4,1.9,0.8c0,0.4,0,0.9-0.1,1.3c-0.1,0.4-1,0.8-2.1,0.7c-1.1,0-1.8-0.4-1.7-0.9
						c0.1-0.4,0.1-0.8,0.1-1.1C181.5,154.4,182.4,154,183.5,154z"/>
				</g>
				<path fill="#556B7A" d="M189.5,175.1c0.2,0,0.4,0.1,0.6,0.2c0.3,0.3,0.3,0.8,0,1.1l-4.9,4.9c-0.3,0.3-0.8,0.3-1.1,0
					c-0.3-0.3-0.3-0.8,0-1.1l4.9-4.9C189,175.2,189.2,175.1,189.5,175.1z"/>
				<path fill="#556B7A" d="M179.7,175.1c0.2,0,0.4,0.1,0.6,0.2l4.9,4.9c0.3,0.3,0.3,0.8,0,1.1c-0.3,0.3-0.8,0.3-1.1,0l-4.9-4.9
					c-0.3-0.3-0.3-0.8,0-1.1C179.3,175.2,179.5,175.1,179.7,175.1z"/>
				<g>
					<circle fill="#3E7A96" cx="184.6" cy="150" r="4.9"/>
					<path fill="#3E7A96" d="M184.6,144.3c3.1,0,5.7,2.5,5.7,5.7s-2.5,5.7-5.7,5.7c-3.1,0-5.7-2.5-5.7-5.7S181.5,144.3,184.6,144.3z
						 M184.6,154c2.2,0,4.1-1.8,4.1-4.1s-1.8-4.1-4.1-4.1c-2.2,0-4.1,1.8-4.1,4.1S182.4,154,184.6,154z"/>
				</g>
			</g>
		</g>
		<g>
			<g>
				<path fill="#556B7A" d="M178.5,331.1c-0.2,0-0.4-0.1-0.6-0.3l-5.2-5.2c-0.3-0.3-0.3-0.9,0-1.2s0.9-0.3,1.2,0l5.2,5.2
					c0.3,0.3,0.3,0.9,0,1.2C179,331,178.7,331.1,178.5,331.1z"/>
				<path fill="#556B7A" d="M173.4,336.3c-0.2,0-0.4-0.1-0.6-0.3c-0.3-0.3-0.3-0.9,0-1.2l5.2-5.2c0.3-0.3,0.9-0.3,1.2,0
					c0.3,0.3,0.3,0.9,0,1.2L174,336C173.8,336.2,173.6,336.3,173.4,336.3z"/>
				<path fill="#556B7A" d="M178.5,331.1h-48.9c-5.1,0-9.3-111.2-9.3-116.3v-24.3c0-0.5,0.4-0.9,0.9-0.9s0.9,0.4,0.9,0.9v24.3
					c0,4.2,3.4,114.6,7.6,114.6h48.9c0.5,0,0.9,0.4,0.9,0.9C179.4,330.7,179,331.1,178.5,331.1z"/>
				<g>
					<circle fill="#B4D77D" cx="121.2" cy="185.3" r="5.2"/>
					<path fill="#B4D77D" d="M121.2,191.3c-3.3,0-6-2.7-6-6s2.7-6,6-6s6,2.7,6,6S124.5,191.3,121.2,191.3z M121.2,181
						c-2.4,0-4.3,1.9-4.3,4.3s1.9,4.3,4.3,4.3s4.3-1.9,4.3-4.3S123.5,181,121.2,181z"/>
				</g>
			</g>
			<g>
			</g>
			<g>
			</g>
			<g>
			</g>
			<g>
			</g>
			<g>
			</g>
			<g>
			</g>
			<g>
			</g>
			<g>
			</g>
			<g>
			</g>
			<g>
			</g>
			<g>
			</g>
			<g>
			</g>
			<g>
			</g>
			<g>
			</g>
			<g>
			</g>
		</g>
	</g>
	<g>
		<g>
			<text transform="matrix(1 0 0 1 252.8972 378.0129)" font-family="'SourceSansPro-Regular'" font-size="12">Let’s place the device in a specific place in the warehouse.</text>
			<g>
				<text transform="matrix(1 0 0 1 296.7081 413.3236)" font-family="'SourceSansPro-Regular'" font-size="18">Locate</text>
				<text transform="matrix(1 0 0 1 296.7085 428.1565)" fill="#231F20" font-family="'SourceSansPro-Regular'" font-size="13">Places a device in a location.</text>
				<text transform="matrix(1 0 0 1 296.7077 398.9495)" fill="#606161" font-family="'SourceSansPro-Regular'" font-size="15">event</text>
				
					<use xlink:href="#Marker"  width="292.4" height="438.5" id="XMLID_6_" x="-146.2" y="-219.3" transform="matrix(9.121258e-02 0 0 -9.121258e-02 272.1741 409.9366)" overflow="visible"/>
			</g>
		</g>
		
			<use xlink:href="#Box"  width="612" height="72.7" x="-306" y="-18.9" transform="matrix(1 0 0 -1 306 415.7151)" overflow="visible"/>
		<text transform="matrix(1 0 0 1 8.5888 422.8176)" fill="#606161" font-family="'SourceSansPro-Regular'" font-size="40">7</text>
		<g>
			<g>
				<g>
					<g>
						<circle fill="#F19C22" cx="184.7" cy="402.7" r="6.2"/>
						<path fill="#F19C22" d="M184.7,395.6c4,0,7.2,3.2,7.2,7.2c0,4-3.2,7.2-7.2,7.2s-7.2-3.2-7.2-7.2
							C177.5,398.8,180.7,395.6,184.7,395.6z M184.7,407.9c2.8,0,5.1-2.3,5.1-5.1s-2.3-5.1-5.1-5.1s-5.1,2.3-5.1,5.1
							C179.6,405.6,181.9,407.9,184.7,407.9z"/>
					</g>
					<rect x="183.7" y="363.7" fill="#556B7A" width="2.1" height="32.9"/>
					<path fill="#556B7A" d="M190.9,389.4c0.3,0,0.5,0.1,0.7,0.3c0.4,0.4,0.4,1.1,0,1.5l-6.2,6.2c-0.4,0.4-1.1,0.4-1.5,0
						c-0.4-0.4-0.4-1.1,0-1.5l6.2-6.2C190.3,389.5,190.6,389.4,190.9,389.4z"/>
					<path fill="#556B7A" d="M178.5,389.4c0.3,0,0.5,0.1,0.7,0.3l6.2,6.2c0.4,0.4,0.4,1.1,0,1.5c-0.4,0.4-1.1,0.4-1.5,0l-6.2-6.2
						c-0.4-0.4-0.4-1.1,0-1.5C178,389.5,178.3,389.4,178.5,389.4z"/>
				</g>
			</g>
			
				<use xlink:href="#monitor"  width="28.8" height="25" x="-14.4" y="-12.5" transform="matrix(1 0 0 -1 184.6941 421.0757)" overflow="visible"/>
		</g>
	</g>
	<g>
		<g>
			<text transform="matrix(1 0 0 1 252.8972 450.896)" font-family="'SourceSansPro-Regular'" font-size="12">Lucky day! We have a new user for the device.</text>
			<g>
				<text transform="matrix(1 0 0 1 296.7081 486.2068)" font-family="'SourceSansPro-Regular'" font-size="18">Allocate</text>
				<text transform="matrix(1 0 0 1 296.7085 501.0396)" fill="#231F20" font-family="'SourceSansPro-Regular'" font-size="13">Assigns the device to a person or organization.</text>
				<text transform="matrix(1 0 0 1 296.7077 471.8326)" fill="#606161" font-family="'SourceSansPro-Regular'" font-size="15">event</text>
				
					<use xlink:href="#right_hand"  width="93.3" height="80" id="XMLID_7_" x="-46.7" y="-40" transform="matrix(0.5 0 0 -0.5 272.1741 482.8197)" overflow="visible"/>
			</g>
		</g>
		
			<use xlink:href="#Box"  width="612" height="72.7" x="-306" y="-18.9" transform="matrix(1 0 0 -1 306 488.5982)" overflow="visible"/>
		<text transform="matrix(1 0 0 1 8.5888 495.7007)" fill="#606161" font-family="'SourceSansPro-Regular'" font-size="40">8</text>
		<g>
			<g>
				<g>
					<g>
						<circle fill="#F19C22" cx="184.7" cy="475.6" r="6.2"/>
						<path fill="#F19C22" d="M184.7,468.4c4,0,7.2,3.2,7.2,7.2c0,4-3.2,7.2-7.2,7.2c-4,0-7.2-3.2-7.2-7.2S180.7,468.4,184.7,468.4z
							 M184.7,480.8c2.8,0,5.1-2.3,5.1-5.1s-2.3-5.1-5.1-5.1c-2.8,0-5.1,2.3-5.1,5.1C179.6,478.5,181.9,480.8,184.7,480.8z"/>
					</g>
					<rect x="183.7" y="436.6" fill="#556B7A" width="2.1" height="32.9"/>
					<path fill="#556B7A" d="M190.9,462.3c0.3,0,0.5,0.1,0.7,0.3c0.4,0.4,0.4,1.1,0,1.5l-6.2,6.2c-0.4,0.4-1.1,0.4-1.5,0
						s-0.4-1.1,0-1.5l6.2-6.2C190.3,462.4,190.6,462.3,190.9,462.3z"/>
					<path fill="#556B7A" d="M178.5,462.3c0.3,0,0.5,0.1,0.7,0.3l6.2,6.2c0.4,0.4,0.4,1.1,0,1.5c-0.4,0.4-1.1,0.4-1.5,0l-6.2-6.2
						c-0.4-0.4-0.4-1.1,0-1.5C178,462.4,178.3,462.3,178.5,462.3z"/>
				</g>
			</g>
			
				<use xlink:href="#monitor"  width="28.8" height="25" x="-14.4" y="-12.5" transform="matrix(1 0 0 -1 184.6941 493.9588)" overflow="visible"/>
		</g>
	</g>
	<g>
		<g>
			<text transform="matrix(1 0 0 1 252.8972 523.1105)" font-family="'SourceSansPro-Regular'" font-size="12">Multiple people can be assigned and de-assigned.</text>
			<g>
				<text transform="matrix(1 0 0 1 296.7081 558.4213)" font-family="'SourceSansPro-Regular'" font-size="18">Deallocate</text>
				<text transform="matrix(1 0 0 1 296.7085 573.2542)" fill="#231F20" font-family="'SourceSansPro-Regular'" font-size="13">Removes a person from a device.</text>
				<text transform="matrix(1 0 0 1 296.7077 544.0471)" fill="#606161" font-family="'SourceSansPro-Regular'" font-size="15">event</text>
				
					<use xlink:href="#left_hand"  width="93.3" height="80" id="XMLID_8_" x="-46.7" y="-40" transform="matrix(0.5 0 0 -0.5 272.1741 555.0342)" overflow="visible"/>
			</g>
		</g>
		
			<use xlink:href="#Box"  width="612" height="72.7" x="-306" y="-18.9" transform="matrix(1 0 0 -1 306 560.8127)" overflow="visible"/>
		<text transform="matrix(1 0 0 1 8.5888 567.9152)" fill="#606161" font-family="'SourceSansPro-Regular'" font-size="40">9</text>
		<g>
			<g>
				<g>
					<g>
						<circle fill="#F19C22" cx="184.7" cy="547.8" r="6.2"/>
						<path fill="#F19C22" d="M184.7,540.7c4,0,7.2,3.2,7.2,7.2c0,4-3.2,7.2-7.2,7.2s-7.2-3.2-7.2-7.2
							C177.5,543.9,180.7,540.7,184.7,540.7z M184.7,553c2.8,0,5.1-2.3,5.1-5.1c0-2.8-2.3-5.1-5.1-5.1s-5.1,2.3-5.1,5.1
							C179.6,550.7,181.9,553,184.7,553z"/>
					</g>
					<rect x="183.7" y="508.8" fill="#556B7A" width="2.1" height="32.9"/>
					<path fill="#556B7A" d="M190.9,534.5c0.3,0,0.5,0.1,0.7,0.3c0.4,0.4,0.4,1.1,0,1.5l-6.2,6.2c-0.4,0.4-1.1,0.4-1.5,0
						s-0.4-1.1,0-1.5l6.2-6.2C190.3,534.6,190.6,534.5,190.9,534.5z"/>
					<path fill="#556B7A" d="M178.5,534.5c0.3,0,0.5,0.1,0.7,0.3l6.2,6.2c0.4,0.4,0.4,1.1,0,1.5c-0.4,0.4-1.1,0.4-1.5,0l-6.2-6.2
						c-0.4-0.4-0.4-1.1,0-1.5C178,534.6,178.3,534.5,178.5,534.5z"/>
				</g>
			</g>
			
				<use xlink:href="#monitor"  width="28.8" height="25" x="-14.4" y="-12.5" transform="matrix(1 0 0 -1 184.6941 566.1733)" overflow="visible"/>
		</g>
	</g>
	<g>
		<g>
			<text transform="matrix(1 0 0 1 252.8972 595.325)" font-family="'SourceSansPro-Regular'" font-size="12">Time to transport the device!</text>
			<g>
				<text transform="matrix(1 0 0 1 296.7081 630.6357)" font-family="'SourceSansPro-Regular'" font-size="18">Receive</text>
				<text transform="matrix(1 0 0 1 296.7085 645.4686)" fill="#231F20" font-family="'SourceSansPro-Regular'" font-size="13">Somene receives the device.</text>
				<text transform="matrix(1 0 0 1 296.7077 616.2615)" fill="#606161" font-family="'SourceSansPro-Regular'" font-size="15">event</text>
				
					<use xlink:href="#Shopping"  width="86.7" height="73.3" id="XMLID_9_" x="-43.3" y="-36.7" transform="matrix(0.5454 0 0 -0.5454 272.1741 627.2487)" overflow="visible"/>
			</g>
		</g>
		
			<use xlink:href="#Box"  width="612" height="72.7" x="-306" y="-18.9" transform="matrix(1 0 0 -1 306 633.0272)" overflow="visible"/>
		<text transform="matrix(1 0 0 1 8.5888 640.1297)" fill="#606161" font-family="'SourceSansPro-Regular'" font-size="40">10</text>
		<g>
			<g>
				<g>
					<g>
						<circle fill="#F19C22" cx="184.7" cy="620.1" r="6.2"/>
						<path fill="#F19C22" d="M184.7,612.9c4,0,7.2,3.2,7.2,7.2c0,4-3.2,7.2-7.2,7.2c-4,0-7.2-3.2-7.2-7.2
							C177.5,616.1,180.7,612.9,184.7,612.9z M184.7,625.2c2.8,0,5.1-2.3,5.1-5.1c0-2.8-2.3-5.1-5.1-5.1s-5.1,2.3-5.1,5.1
							C179.6,622.9,181.9,625.2,184.7,625.2z"/>
					</g>
					<g>
						<rect x="183.7" y="581" fill="#556B7A" width="2.1" height="32.9"/>
						<path fill="#556B7A" d="M190.9,606.7c0.3,0,0.5,0.1,0.7,0.3c0.4,0.4,0.4,1.1,0,1.5l-6.2,6.2c-0.4,0.4-1.1,0.4-1.5,0
							c-0.4-0.4-0.4-1.1,0-1.5l6.2-6.2C190.3,606.8,190.6,606.7,190.9,606.7z"/>
						<path fill="#556B7A" d="M178.5,606.7c0.3,0,0.5,0.1,0.7,0.3l6.2,6.2c0.4,0.4,0.4,1.1,0,1.5c-0.4,0.4-1.1,0.4-1.5,0l-6.2-6.2
							c-0.4-0.4-0.4-1.1,0-1.5C178,606.8,178.3,606.7,178.5,606.7z"/>
					</g>
				</g>
			</g>
			
				<use xlink:href="#monitor"  width="28.8" height="25" x="-14.4" y="-12.5" transform="matrix(1 0 0 -1 184.6941 638.3878)" overflow="visible"/>
		</g>
	</g>
	<g>
		<g>
			<path fill="#EEC75E" d="M342.2,712.7c1.3,1.3,1.3,3.5,0,4.8c-1.3,1.3-5.2,3-6.5,1.7c-1.3-1.3,0.4-5.2,1.7-6.5
				C338.7,711.3,340.9,711.3,342.2,712.7z"/>
			<path fill="#DEB958" d="M338.3,712v0.1c0,2.4,2,4.4,4.4,4.4h0.1c0.7-1.3,0.4-2.9-0.6-3.9C341.2,711.6,339.6,711.4,338.3,712z"/>
			<path fill="#F16C50" d="M349.1,705.3c4,4,4.8,9.7,1,13.5l-1.8,1.8c-3.8,3.8-1.2-5.3-5.2-9.3c-4-4-13.2-1.4-9.3-5.2l1.8-1.8
				C339.4,700.5,345.1,701.3,349.1,705.3L349.1,705.3z"/>
			<path fill="#F4F0D4" d="M362.4,692c1.2,1.2,0.7,9-6.8,16.5c-4.9,4.9-7.9,6.6-7.9,6.6c-3.3,2.2-4.8,0.7-6.9-1.4
				c-2.1-2.1-3.6-3.6-1.4-6.9c0,0,1.7-3.1,6.6-8C353.4,691.3,361.2,690.8,362.4,692L362.4,692z"/>
			<path fill="#E7E3C8" d="M348.9,714c-3.4,2.3-5,0.7-7.2-1.4c-2.2-2.2-3.7-3.8-1.4-7.2l0.4-0.6c-0.9,1.2-1.3,1.9-1.3,1.9
				c-2.2,3.3-0.7,4.8,1.4,6.9c2.1,2.1,3.6,3.5,6.9,1.4c0,0,1.5-0.8,4-2.9C349.9,713.5,348.9,714,348.9,714z"/>
			<path fill="#8BA0AA" d="M354.5,699.9c1.1,1.1,1.1,3,0,4.1c-1.1,1.1-3,1.1-4.1,0c-1.1-1.1-1.1-3,0-4.1S353.4,698.7,354.5,699.9z"
				/>
			<path fill="#F16C50" d="M347.7,707.1c0.6,0.6-0.5,2.7-3.4,5.5c-2.9,2.9-4.6,3.6-5.2,3c-0.6-0.6,0.2-2.3,3-5.2
				C345.1,707.7,347.1,706.5,347.7,707.1z"/>
			<path fill="#344E5C" d="M352.5,699.7c0.6,0,1.1,0.2,1.6,0.7c0.4,0.4,0.7,1,0.7,1.6s-0.2,1.1-0.7,1.6c-0.4,0.4-1,0.7-1.6,0.7
				c-0.6,0-1.1-0.2-1.6-0.7c-0.4-0.4-0.7-1-0.7-1.6s0.2-1.1,0.7-1.6C351.3,699.9,351.9,699.7,352.5,699.7 M352.5,699
				c-0.8,0-1.5,0.3-2.1,0.9c-1.1,1.1-1.1,3,0,4.1c0.6,0.6,1.3,0.9,2.1,0.9c0.8,0,1.5-0.3,2.1-0.9c1.1-1.1,1.1-3,0-4.1
				C354,699.3,353.2,699,352.5,699z"/>
			<path fill="#F16C50" d="M355.2,692.6c0.2,1.6,1.1,3.2,2.4,4.6c1.2,1.2,2.6,2,4,2.3c1.5-3.8,1.4-6.8,0.7-7.5
				C361.7,691.3,358.9,691.2,355.2,692.6z"/>
			<g>
			</g>
			<g>
			</g>
			<g>
			</g>
			<g>
			</g>
			<g>
			</g>
			<g>
			</g>
			<g>
			</g>
			<g>
			</g>
			<g>
			</g>
			<g>
			</g>
			<g>
			</g>
			<g>
			</g>
			<g>
			</g>
			<g>
			</g>
			<g>
			</g>
		</g>
		<g>
			<g>
				<path fill="#344E5C" d="M386.6,669.4c-0.1-0.2-4.2-2-4.3-2.1c0,0-1.2-0.5-1.6,0c-0.4,0.4,0,1.6,0,1.6c0.2,0.2,2.4,3.9,2.6,3.9
					c0.4,0.1,0.8,0,1.1-0.3C384.6,672.2,386.7,669.8,386.6,669.4z M389.6,674.6c-0.1-0.1-2-4.3-2.1-4.3c-0.4-0.1-2.8,2-3.1,2.3
					c-0.3,0.3-0.4,0.7-0.3,1.1c0,0.2,3.8,2.4,3.9,2.6c0,0,1.2,0.5,1.6,0C390,675.8,389.6,674.6,389.6,674.6z"/>
				<path fill="#D2D6D7" d="M395.7,658.1c-0.1-0.2-13.2-10.1-13.4-10.3c-0.6-0.6-1.7-0.6-2.3,0s-0.7,1.7,0,2.3
					c0.1,0.1,10.1,13.3,10.3,13.4c0.6,0.3,3-1.5,3.5-2C394.2,661.1,396,658.7,395.7,658.1z M409,674.6c-0.1-0.1-10.1-13.3-10.3-13.4
					c-0.6-0.3-3,1.4-3.5,1.9c-0.5,0.5-2.3,2.9-2,3.5c0.1,0.2,13.3,10.1,13.4,10.3c0.6,0.6,1.7,0.6,2.3,0
					C409.7,676.2,409.7,675.2,409,674.6z"/>
				<g>
					<path fill="#344E5C" d="M397.1,662.7l11.4,14.5c0.2-0.1,0.4-0.2,0.5-0.4c0.6-0.6,0.7-1.7,0-2.3c-0.1-0.1-5.6-7.4-8.5-11.2
						l-1.3-1.6C399.2,661.8,397.1,662.7,397.1,662.7z M394.4,660l0.9-2.1l-2.4-1.9c-3.9-3-10.6-8.1-10.7-8.1c-0.3-0.3-0.6-0.4-1-0.5
						H381c-0.4,0-0.8,0.2-1.1,0.5c-0.2,0.2-0.3,0.3-0.4,0.5L394.4,660z"/>
				</g>
				<path fill="#304956" d="M389.6,676.2c0.4-0.4,0-1.6,0-1.6c-0.1-0.1-1.8-3.9-2.1-4.3l-3.3,3.3l0.5,0.5c1.1,0.7,3.2,2,3.3,2.1
					C388,676.2,389.2,676.7,389.6,676.2z"/>
				<path fill="#DEE3E6" d="M405.9,650.9c1.6,1.6,0.4,5.3-1.1,6.9c-1.6,1.6-21.7,19.2-23.3,17.6c-1.6-1.6,16-21.8,17.6-23.4
					C400.6,650.5,404.4,649.3,405.9,650.9z"/>
				<path fill="#E2584C" d="M397.9,659c0.6,0.6,0.4,1.8-0.4,2.6c-0.8,0.8-2,1-2.6,0.4c-0.6-0.6-0.4-1.8,0.4-2.6
					C396.1,658.6,397.3,658.4,397.9,659z"/>
				<path fill="#344E5C" d="M405.9,650.9c-1.2-1.2-3.8-0.8-5.6,0.2l0.2,0c1,0.6,2,1.3,2.9,2.2c0.9,0.9,1.6,1.9,2.2,2.9l0.1,0.4
					C406.7,654.8,407.2,652.2,405.9,650.9z"/>
			</g>
			<g>
			</g>
			<g>
			</g>
			<g>
			</g>
			<g>
			</g>
			<g>
			</g>
			<g>
			</g>
			<g>
			</g>
			<g>
			</g>
			<g>
			</g>
			<g>
			</g>
			<g>
			</g>
			<g>
			</g>
			<g>
			</g>
			<g>
			</g>
			<g>
			</g>
		</g>
		<g>
			<g>
				<g>
					<path fill="#D0D7DC" d="M440.4,710.3h-23.7v-16.5c0-0.1,0.1-0.1,0.1-0.1h23.4c0.1,0,0.1,0.1,0.1,0.1V710.3z"/>
				</g>
				<g>
					<path fill="#E5EBF0" d="M439.8,712c0.8,0,1.5-0.7,1.5-1.5v-5.1c0-2.2-1.7-4.5-3.7-5.1l-2.6-0.9c-0.3-0.1-0.7-0.1-0.9,0.1
						c-1.6,1.2-3.8,1.2-5.5,1.2c-1.8,0-3.9,0-5.5-1.2c-0.3-0.2-0.6-0.2-0.9-0.1l-2.6,0.9c-2.1,0.7-3.7,3-3.7,5.1v5.1
						c0,0.8,0.7,1.5,1.5,1.5L439.8,712L439.8,712z"/>
				</g>
				<g>
					<path fill="#D0D7DC" d="M421.1,700.8c2,0.9,5.1,1.6,7.4,1.6s5.4-0.7,7.4-1.6c0.4-0.2,0.8-0.4,1.2-0.7l-2.1-0.8
						c-0.3-0.1-0.7-0.1-0.9,0.1c-1.6,1.2-3.8,1.2-5.5,1.2c-1.8,0-3.9,0-5.5-1.2c-0.3-0.2-0.6-0.2-0.9-0.1l-2.1,0.8
						C420.3,700.4,420.7,700.6,421.1,700.8z"/>
				</g>
				<g>
					<path fill="#B7BEC9" d="M421.6,699.1l-2.2,0.8c-0.2,0.1-0.3,0.3-0.3,0.5V712h3v-12.6C422,699.2,421.8,699,421.6,699.1z"/>
				</g>
				<g>
					<path fill="#B7BEC9" d="M435.4,699.1l2.2,0.8c0.2,0.1,0.3,0.3,0.3,0.5V712h-3v-12.6C434.9,699.2,435.2,699,435.4,699.1z"/>
				</g>
				<g>
					<path fill="#E5EBF0" d="M428.5,682c-5.2,0-9.3,2.8-9.3,7.4v6.4c0,2,1.1,3.3,2.5,3.9c1.7,0.8,4.6,1.5,6.9,1.5
						c2.3,0,5.2-0.7,6.9-1.5c1.4-0.6,2.5-1.9,2.5-3.9v-6.4C437.8,684.8,433.7,682,428.5,682z"/>
				</g>
				<g>
					<path fill="#FEBE20" d="M434.9,687.9h-6.4h-6.4c-0.8,0-1.5,0.7-1.5,1.5v6.4c0,0,0,0.1,0,0.1c0,1.3,1.1,2.1,2.4,2.5
						c1.4,0.5,3.8,0.8,5.5,0.8c1.7,0,4.1-0.3,5.5-0.8c1.2-0.4,2.3-1.2,2.4-2.5c0,0,0-0.1,0-0.1v-6.4
						C436.4,688.6,435.7,687.9,434.9,687.9z"/>
				</g>
				<g>
					<path fill="#D0D7DC" d="M433.8,706.2h-10.6c-0.1,0-0.1,0.1-0.1,0.1v5.6h10.9v-5.6C433.9,706.3,433.9,706.2,433.8,706.2z"/>
				</g>
				<g>
					<path fill="#E5EBF0" d="M420.4,696.9l-1.6-0.7c-0.3-0.2-0.6-0.5-0.6-0.9v-5.2c0-0.4,0.2-0.7,0.6-0.9l1.6-0.7V696.9z"/>
				</g>
				<g>
					<path fill="#E5EBF0" d="M436.6,696.9l1.6-0.7c0.3-0.2,0.6-0.5,0.6-0.9v-5.2c0-0.4-0.2-0.7-0.6-0.9l-1.6-0.7V696.9z"/>
				</g>
				<g>
					<rect x="423" y="707.6" fill="#B7BEC9" width="10.9" height="0.7"/>
				</g>
				<g>
					<path fill="#A0B5C5" d="M430.2,708c0,0.5-0.4,1-1,1h-1.4c-0.5,0-1-0.4-1-1c0-0.5,0.4-1,1-1h1.4
						C429.7,707,430.2,707.5,430.2,708z"/>
				</g>
				<g>
					<path fill="#FFD250" d="M434.9,687.9h-6.4h0v11.3h0c1.7,0,4.1-0.3,5.5-0.8c1.2-0.4,2.3-1.2,2.4-2.5c0,0,0-0.1,0-0.1v-6.4
						C436.4,688.6,435.7,687.9,434.9,687.9z"/>
				</g>
			</g>
			<g>
			</g>
			<g>
			</g>
			<g>
			</g>
			<g>
			</g>
			<g>
			</g>
			<g>
			</g>
			<g>
			</g>
			<g>
			</g>
			<g>
			</g>
			<g>
			</g>
			<g>
			</g>
			<g>
			</g>
			<g>
			</g>
			<g>
			</g>
			<g>
			</g>
		</g>
		<g>
			<g>
				<g>
					<path fill="#FFD7A3" d="M211.9,686.7c1-0.7,0.9-2.7,0.9-3.2h8.4c0,0.5-0.1,2.5,0.9,3.2l-5.1,5.8L211.9,686.7z"/>
				</g>
				<g>
					<path fill="#FDC98E" d="M220.4,688.7l1.9-2c-1-0.7-0.9-2.7-0.9-3.2h-8.4C213.5,685.3,217.5,688.3,220.4,688.7z"/>
				</g>
				<g>
					<path fill="#FFE1B2" d="M223.7,677.5c0,3.8-2.2,8.4-6.6,8.4c-4.4,0-6.6-4.7-6.6-8.4c0-3.8,2.9-5.2,6.6-5.2
						C220.7,672.3,223.7,673.7,223.7,677.5z"/>
				</g>
				<g>
					<path fill="#F26956" d="M227.9,698.1c0.8,0,1.4-0.6,1.4-1.4v-4.5c0-2.1-1.6-4.3-3.6-4.9l-2.9-0.9c-1.6,1.2-3.8,2.9-5.7,2.9
						c-1.9,0-4.1-1.6-5.7-2.9l-2.9,0.9c-2,0.6-3.6,2.8-3.6,4.9v4.5c0,0.8,0.6,1.4,1.4,1.4H227.9z"/>
				</g>
				<g>
					<path fill="#E4504F" d="M217.1,689.2l-2,2c-0.2,0.2-0.5,0.2-0.7-0.1l-3.4-4.7l1.1-1.1c0.2-0.2,0.5-0.2,0.6,0L217.1,689.2z"/>
				</g>
				<g>
					<path fill="#E4504F" d="M217.1,689.2l2,2c0.2,0.2,0.5,0.2,0.7-0.1l3.4-4.7l-1.1-1.1c-0.2-0.2-0.5-0.2-0.6,0L217.1,689.2z"/>
				</g>
				<g>
					<circle fill="#E4504F" cx="217.1" cy="693.9" r="0.5"/>
				</g>
				<g>
					<circle fill="#E4504F" cx="217.1" cy="691.6" r="0.5"/>
				</g>
				<g>
					<path fill="#FFE1B2" d="M210.8,678c-0.7-0.2-1.2,0.2-1.2,0.9c0,1,0.9,3.4,1.9,1.9C212.5,679.3,210.8,678,210.8,678z"/>
				</g>
				<g>
					<path fill="#FFE1B2" d="M223.3,678c0.8-0.2,1.3,0.2,1.3,0.9c0,1-1,3.4-2.1,1.9C221.4,679.3,223.3,678,223.3,678z"/>
				</g>
				<g>
					<path fill="#7F554A" d="M211.9,676c-0.2,0.5-0.5,2.8-0.5,2.8l-0.9-0.5l-0.3-3.1L211.9,676z"/>
				</g>
				<g>
					<path fill="#7F554A" d="M222.3,676c0.2,0.5,0.5,2.8,0.5,2.8l0.9-0.5l0.3-3.1L222.3,676z"/>
				</g>
				<g>
					<path fill="#FCB323" d="M222,669.6l-3.6-1.3c-0.8-0.3-1.8-0.3-2.6,0l-3.6,1.3c-1.2,0.4-1.9,1.5-1.9,2.7v4.2h13.7v-4.2
						C223.9,671.1,223.1,670,222,669.6z"/>
				</g>
				<g>
					<path fill="#E4504F" d="M217.1,674.2c-2.8,0-7.1,1-7.1,2.3h14.2C224.2,675.3,219.9,674.2,217.1,674.2z"/>
				</g>
				<g>
					<path fill="#3A3950" d="M224.4,686.9l-6.3,11.2h3.2L227,688c-0.4-0.3-0.8-0.5-1.3-0.7L224.4,686.9z"/>
				</g>
				<g>
					<ellipse fill="#F26956" cx="217.1" cy="671.4" rx="2.8" ry="1.9"/>
				</g>
			</g>
			<g>
			</g>
			<g>
			</g>
			<g>
			</g>
			<g>
			</g>
			<g>
			</g>
			<g>
			</g>
			<g>
			</g>
			<g>
			</g>
			<g>
			</g>
			<g>
			</g>
			<g>
			</g>
			<g>
			</g>
			<g>
			</g>
			<g>
			</g>
			<g>
			</g>
		</g>
		<g>
			<g>
				<path fill="#2E4652" d="M286.4,697.4h-6.6v2.8h6.6V697.4z"/>
				<g>
					<polygon fill="#344E5C" points="286.4,699.2 279.9,699.2 279.9,700.2 286.4,700.2 					"/>
				</g>
				<path fill="#1F3038" d="M284.5,697.4v2.8h0.9v-2.8H284.5L284.5,697.4z M282.7,700.2h0.9v-2.8h-0.9V700.2z M280.8,700.2h0.9v-2.8
					h-0.9V700.2z"/>
				<path fill="#BF3B2C" d="M261.1,670.2h24.4c1,0,1.9,0.8,1.9,1.9v23.4c0,1-0.8,1.9-1.9,1.9h-24.4c-1,0-1.9-0.8-1.9-1.9V672
					C259.2,671,260.1,670.2,261.1,670.2z"/>
				<path fill="#FFFFFF" d="M285.5,674.9v-0.9c0-0.6-0.4-0.9-0.9-0.9H262c-0.5,0-0.9,0.4-0.9,0.9v0.9v10.3h24.4L285.5,674.9
					L285.5,674.9L285.5,674.9z"/>
				<path fill="#CDD1D3" d="M258.3,695.5h30v1.9h-30V695.5z"/>
				<path fill="#FFFFFF" d="M261.1,692.7h5.6V688h-5.6V692.7z M285.5,688h-5.6v4.7h5.6V688L285.5,688z"/>
				<path fill="#F4B863" d="M262,691.7h3.7v-2.8H262V691.7z M284.5,688.9h-3.7v2.8h3.7V688.9L284.5,688.9z"/>
				<path fill="#E4E6E6" d="M268.6,692.7h9.4v-0.9h-9.4V692.7z M268.6,690.8h9.4v-0.9h-9.4V690.8z M268.6,688v0.9h9.4V688H268.6z"/>
				<path fill="#F1F0F0" d="M261.1,685.2h12.2V673H262c-0.5,0-0.9,0.4-0.9,0.9L261.1,685.2L261.1,685.2z"/>
				<rect x="284.5" y="697.4" fill="#202E36" width="0.9" height="2.8"/>
				<rect x="280.8" y="697.4" fill="#202E36" width="0.9" height="2.8"/>
				<rect x="284.5" y="699.2" fill="#23353E" width="0.9" height="0.9"/>
				<rect x="282.7" y="699.2" fill="#23353E" width="0.9" height="0.9"/>
				<rect x="280.8" y="699.2" fill="#23353E" width="0.9" height="0.9"/>
				<path fill="#2E4652" d="M266.7,697.4h-6.6v2.8h6.6V697.4z"/>
				<g>
					<polygon fill="#344E5C" points="266.7,699.2 260.2,699.2 260.2,700.2 266.7,700.2 					"/>
				</g>
				<path fill="#1F3038" d="M264.9,697.4v2.8h0.9v-2.8H264.9L264.9,697.4z M263,700.2h0.9v-2.8H263V700.2z M261.1,700.2h0.9v-2.8
					h-0.9C261.1,697.4,261.1,700.2,261.1,700.2z"/>
				<rect x="264.9" y="697.4" fill="#202E36" width="0.9" height="2.8"/>
				<rect x="261.1" y="697.4" fill="#202E36" width="0.9" height="2.8"/>
				<rect x="264.9" y="699.2" fill="#23353E" width="0.9" height="0.9"/>
				<rect x="263" y="699.2" fill="#23353E" width="0.9" height="0.9"/>
				<rect x="261.1" y="699.2" fill="#23353E" width="0.9" height="0.9"/>
			</g>
			<g>
			</g>
			<g>
			</g>
			<g>
			</g>
			<g>
			</g>
			<g>
			</g>
			<g>
			</g>
			<g>
			</g>
			<g>
			</g>
			<g>
			</g>
			<g>
			</g>
			<g>
			</g>
			<g>
			</g>
			<g>
			</g>
			<g>
			</g>
			<g>
			</g>
		</g>
		<g>
			<g>
				<g>
					<path fill="#FFD7A3" d="M308,674.6c1-0.7,0.9-2.7,0.9-3.2h8.4c0,0.5-0.1,2.5,0.9,3.2l-5.1,5.8L308,674.6z"/>
				</g>
				<g>
					<path fill="#FDC98E" d="M316.4,676.6l1.9-2c-1-0.7-0.9-2.7-0.9-3.2h-8.4C309.5,673.2,313.5,676.1,316.4,676.6z"/>
				</g>
				<g>
					<path fill="#FFE1B2" d="M319.7,665.3c0,3.8-2.2,8.4-6.6,8.4s-6.6-4.7-6.6-8.4c0-3.8,2.9-5.2,6.6-5.2S319.7,661.6,319.7,665.3z"
						/>
				</g>
				<g>
					<path fill="#FFE1B2" d="M306.8,666.1c-0.7-0.2-1.2,0.2-1.2,0.9c0,1,0.9,3.4,1.9,1.9C308.5,667.5,306.8,666.1,306.8,666.1z"/>
				</g>
				<g>
					<path fill="#FFE1B2" d="M319.3,666.1c0.8-0.2,1.3,0.2,1.3,0.9c0,1-1,3.4-2.1,1.9C317.4,667.5,319.3,666.1,319.3,666.1z"/>
				</g>
				<g>
					<path fill="#7F554A" d="M307.9,664.1c-0.2,0.6-0.5,3.1-0.5,3.1l-0.9-0.5l-0.3-3.4L307.9,664.1z"/>
				</g>
				<g>
					<path fill="#7F554A" d="M318.3,664.1c0.2,0.6,0.5,3.1,0.5,3.1l0.9-0.5l0.3-3.4L318.3,664.1z"/>
				</g>
				<g>
					<path fill="#E5EBF0" d="M323.9,683.6c0.8,0,1.4-0.6,1.4-1.4V680c0-2.1-1.6-4.3-3.6-4.9l-2.9-0.9c-1.6,1.2-3.8,2.9-5.7,2.9
						s-4.1-1.6-5.7-2.9l-2.9,0.9c-2,0.6-3.6,2.8-3.6,4.9v2.2c0,0.8,0.6,1.4,1.4,1.4H323.9z"/>
				</g>
				<g>
					<path fill="#555566" d="M314,678.4c0,0.3-0.2,0.5-0.5,0.5h-0.9c-0.3,0-0.5-0.2-0.5-0.5v-0.9c0-0.3,0.2-0.5,0.5-0.5h0.9
						c0.3,0,0.5,0.2,0.5,0.5V678.4z"/>
				</g>
				<g>
					<circle fill="#D0D7DC" cx="313.1" cy="681.3" r="0.5"/>
				</g>
				<g>
					<path fill="#E5EBF0" d="M322.5,659.7c0,2.6-4.2,3.3-9.4,3.3s-9.4-0.7-9.4-3.3c0-2.6,4.2-6.1,9.4-6.1S322.5,657.1,322.5,659.7z"
						/>
				</g>
				<g>
					<ellipse fill="#3A3950" cx="313.1" cy="663" rx="7" ry="1.9"/>
				</g>
				<g>
					<path fill="#555566" d="M313.1,659.2c-3.9,0-7,0.6-7,1.4v2.3c0-0.3,3.1-0.5,7-0.5s7,0.2,7,0.5v-2.3
						C320.1,659.9,317,659.2,313.1,659.2z"/>
				</g>
				<g>
					<ellipse fill="#555566" cx="313.1" cy="660.2" rx="3.6" ry="1.9"/>
				</g>
				<g>
					<path fill="#D0D7DC" d="M313.1,677l-2,2c-0.2,0.2-0.5,0.2-0.7-0.1l-3.4-4.7l1.1-1.1c0.2-0.2,0.5-0.2,0.6,0L313.1,677z"/>
				</g>
				<g>
					<path fill="#D0D7DC" d="M313.1,677l2,2c0.2,0.2,0.5,0.2,0.7-0.1l3.4-4.7l-1.1-1.1c-0.2-0.2-0.5-0.2-0.6,0L313.1,677z"/>
				</g>
				<g>
					<polygon fill="#555566" points="313.7,678.7 313.1,678.9 312.5,678.7 312.2,683.6 313.1,683.6 314,683.6 					"/>
				</g>
				<g>
					<path fill="#555566" d="M324,683.6c0.7-0.1,1.2-0.7,1.2-1.4V680c0-2.1-1.6-4.3-3.6-4.9l-2.6-0.8l0,0l-3.7,9.3H324z"/>
				</g>
				<g>
					<path fill="#555566" d="M307,674.3L307,674.3l-2.6,0.8c-2,0.6-3.6,2.8-3.6,4.9v2.2c0,0.7,0.5,1.3,1.2,1.4h8.6L307,674.3z"/>
				</g>
				<g>
					<path fill="#FFD269" d="M313.7,659.8c-0.1-0.3-0.3-0.5-0.6-0.5s-0.4,0.2-0.6,0.5h-1.8v0.4h0.5v0.4h0.6v0.4h0.6
						c0.1,0.4,0.3,0.6,0.6,0.6c0.3,0,0.5-0.2,0.6-0.6h0.6v-0.4h0.6v-0.4h0.5v-0.4H313.7z"/>
				</g>
				<g>
					<path fill="#3A3950" d="M307,674.2l-2,2.4c-0.2,0.2-0.1,0.5,0.1,0.7l1,0.6l-1.1,1.1c-0.2,0.2-0.2,0.4,0,0.6l3,3.9l2.8,0
						L307,674.2z"/>
				</g>
				<g>
					<g>
						<polygon fill="#3A3950" points="319.2,674.2 323.9,675.6 323.4,677 320.1,676.1 						"/>
					</g>
					<g>
						<g>
							<polygon fill="#FFD269" points="321.2,676.4 321.7,675 321.3,674.9 320.8,676.3 							"/>
						</g>
						<g>
							<polygon fill="#FFD269" points="323.3,675.5 322.9,675.3 322.4,676.7 322.8,676.9 							"/>
						</g>
						<g>
							<polygon fill="#FFD269" points="322.5,675.2 322.1,675.1 321.6,676.5 322,676.6 							"/>
						</g>
					</g>
				</g>
				<g>
					<g>
						<polygon fill="#3A3950" points="307,674.2 302.3,675.6 302.8,677 306.1,676.1 						"/>
					</g>
					<g>
						<g>
							<polygon fill="#FFD269" points="305,676.4 304.5,675 304.9,674.9 305.4,676.3 							"/>
						</g>
						<g>
							<polygon fill="#FFD269" points="302.9,675.5 303.3,675.3 303.8,676.7 303.4,676.9 							"/>
						</g>
						<g>
							<polygon fill="#FFD269" points="303.7,675.2 304.1,675.1 304.6,676.5 304.2,676.6 							"/>
						</g>
					</g>
				</g>
				<g>
					<path fill="#3A3950" d="M319.2,674.2l2,2.4c0.2,0.2,0.1,0.5-0.1,0.7l-1,0.6l1.1,1.1c0.2,0.2,0.2,0.4,0,0.6l-3,3.9l-2.8,0
						L319.2,674.2z"/>
				</g>
				<g>
					<path fill="#7F554A" d="M313.1,670.1c0-0.4-0.6-0.5-1-0.4c-0.7,0.2-1.5,0.7-2.2,0.4c0,0,0.2,0.7,0.6,0.7
						C311.3,670.8,313.1,670.8,313.1,670.1z"/>
				</g>
				<g>
					<path fill="#7F554A" d="M313.1,670.1c0-0.4,0.6-0.5,1-0.4c0.7,0.2,1.5,0.7,2.2,0.4c0,0-0.2,0.7-0.6,0.7
						C314.9,670.8,313.1,670.8,313.1,670.1z"/>
				</g>
			</g>
			<g>
			</g>
			<g>
			</g>
			<g>
			</g>
			<g>
			</g>
			<g>
			</g>
			<g>
			</g>
			<g>
			</g>
			<g>
			</g>
			<g>
			</g>
			<g>
			</g>
			<g>
			</g>
			<g>
			</g>
			<g>
			</g>
			<g>
			</g>
			<g>
			</g>
		</g>
		<g>
			<g>
				<path fill="#556B7A" d="M315.4,686.9c0,0.2-0.1,0.4-0.3,0.6l-5.2,5.2c-0.3,0.3-0.9,0.3-1.2,0c-0.3-0.3-0.3-0.9,0-1.2l5.2-5.2
					c0.3-0.3,0.9-0.3,1.2,0C315.3,686.5,315.4,686.7,315.4,686.9z"/>
				<path fill="#556B7A" d="M320.5,692.1c0,0.2-0.1,0.4-0.3,0.6c-0.3,0.3-0.9,0.3-1.2,0l-5.2-5.2c-0.3-0.3-0.3-0.9,0-1.2
					c0.3-0.3,0.9-0.3,1.2,0l5.2,5.2C320.4,691.6,320.5,691.9,320.5,692.1z"/>
				<path fill="#556B7A" d="M315.3,686.9v8.8c0,5.1-62.6,9.3-67.7,9.3h-24.3c-0.5,0-0.9-0.4-0.9-0.9c0-0.5,0.4-0.9,0.9-0.9h24.3
					c4.2,0,66-3.4,66-7.6v-8.8c0-0.5,0.4-0.9,0.9-0.9C314.9,686.1,315.3,686.4,315.3,686.9z"/>
				<g>
					<circle fill="#B4D77D" cx="218" cy="704.2" r="5.2"/>
					<path fill="#B4D77D" d="M224.1,704.2c0,3.3-2.7,6-6,6s-6-2.7-6-6c0-3.3,2.7-6,6-6S224.1,700.8,224.1,704.2z M213.7,704.2
						c0,2.4,1.9,4.3,4.3,4.3s4.3-1.9,4.3-4.3s-1.9-4.3-4.3-4.3S213.7,701.8,213.7,704.2z"/>
				</g>
			</g>
			<g>
			</g>
			<g>
			</g>
			<g>
			</g>
			<g>
			</g>
			<g>
			</g>
			<g>
			</g>
			<g>
			</g>
			<g>
			</g>
			<g>
			</g>
			<g>
			</g>
			<g>
			</g>
			<g>
			</g>
			<g>
			</g>
			<g>
			</g>
			<g>
			</g>
		</g>
		<g>
			<g>
				<path fill="#556B7A" d="M202.1,696.9c-0.2,0-0.4-0.1-0.6-0.3l-5.2-5.2c-0.3-0.3-0.3-0.9,0-1.2c0.3-0.3,0.9-0.3,1.2,0l5.2,5.2
					c0.3,0.3,0.3,0.9,0,1.2C202.5,696.8,202.3,696.9,202.1,696.9z"/>
				<path fill="#556B7A" d="M196.9,702c-0.2,0-0.4-0.1-0.6-0.3c-0.3-0.3-0.3-0.9,0-1.2l5.2-5.2c0.3-0.3,0.9-0.3,1.2,0
					c0.3,0.3,0.3,0.9,0,1.2l-5.2,5.2C197.3,701.9,197.1,702,196.9,702z"/>
				<path fill="#556B7A" d="M202.1,696.9h-8.8c-5.1,0-9.3-4.2-9.3-9.3v-24.3c0-0.5,0.4-0.9,0.9-0.9c0.5,0,0.9,0.4,0.9,0.9v24.3
					c0,4.2,3.4,7.6,7.6,7.6h8.8c0.5,0,0.9,0.4,0.9,0.9S202.5,696.9,202.1,696.9z"/>
				<g>
					<circle fill="#B4D77D" cx="184.8" cy="658.1" r="5.2"/>
					<path fill="#B4D77D" d="M184.8,664.1c-3.3,0-6-2.7-6-6s2.7-6,6-6c3.3,0,6,2.7,6,6S188.1,664.1,184.8,664.1z M184.8,653.8
						c-2.4,0-4.3,1.9-4.3,4.3s1.9,4.3,4.3,4.3c2.4,0,4.3-1.9,4.3-4.3S187.2,653.8,184.8,653.8z"/>
				</g>
			</g>
			<g>
			</g>
			<g>
			</g>
			<g>
			</g>
			<g>
			</g>
			<g>
			</g>
			<g>
			</g>
			<g>
			</g>
			<g>
			</g>
			<g>
			</g>
			<g>
			</g>
			<g>
			</g>
			<g>
			</g>
			<g>
			</g>
			<g>
			</g>
			<g>
			</g>
		</g>
		
			<use xlink:href="#monitor"  width="28.8" height="25" x="-14.4" y="-12.5" transform="matrix(0.6 0 0 -0.6 177.5005 695.7188)" overflow="visible"/>
		<text transform="matrix(1 0 0 1 216.2567 664.0944)" fill="#231F20" font-family="'SourceSansPro-Regular'" font-size="13">Receive</text>
		<g>
			<g>
				<path fill="#556B7A" d="M430,679.3c-0.3,0.3-0.9,0.3-1.2,0l-5.2-5.2c-0.3-0.3-0.3-0.9,0-1.2c0.3-0.3,0.9-0.3,1.2,0l5.2,5.2
					c0.2,0.2,0.3,0.4,0.3,0.6C430.2,678.9,430.1,679.2,430,679.3z"/>
				<path fill="#556B7A" d="M435.1,674.2l-5.2,5.2c-0.3,0.3-0.9,0.3-1.2,0c-0.3-0.3-0.3-0.9,0-1.2l5.2-5.2c0.3-0.3,0.9-0.3,1.2,0
					c0.2,0.2,0.3,0.4,0.3,0.6S435.3,674,435.1,674.2z"/>
				<path fill="#556B7A" d="M429.3,679.6c-0.5,0-0.9-0.4-0.9-0.9v-8.8c0-4.2-61.9-7.6-66-7.6h-24.3c-0.5,0-0.9-0.4-0.9-0.9
					s0.4-0.9,0.9-0.9h24.3c5.1,0,67.7,4.2,67.7,9.3v8.8C430.1,679.2,429.8,679.6,429.3,679.6z"/>
				<g>
					<circle fill="#B4D77D" cx="332.9" cy="661.5" r="5.2"/>
					<path fill="#B4D77D" d="M332.9,667.5c-3.3,0-6-2.7-6-6s2.7-6,6-6c3.3,0,6,2.7,6,6S336.2,667.5,332.9,667.5z M332.9,665.8
						c2.4,0,4.3-1.9,4.3-4.3s-1.9-4.3-4.3-4.3s-4.3,1.9-4.3,4.3S330.5,665.8,332.9,665.8z"/>
				</g>
			</g>
			<g>
			</g>
			<g>
			</g>
			<g>
			</g>
			<g>
			</g>
			<g>
			</g>
			<g>
			</g>
			<g>
			</g>
			<g>
			</g>
			<g>
			</g>
			<g>
			</g>
			<g>
			</g>
			<g>
			</g>
			<g>
			</g>
			<g>
			</g>
			<g>
			</g>
		</g>
		<text transform="matrix(1 0 0 1 455.0299 715.6437)" fill="#231F20" font-family="'SourceSansPro-Regular'" font-size="13">Receive</text>
		<g>
			<g>
				<path fill="#556B7A" d="M184.9,720.1c0-0.2,0.1-0.4,0.3-0.6l5.2-5.2c0.3-0.3,0.9-0.3,1.2,0c0.3,0.3,0.3,0.9,0,1.2l-5.2,5.2
					c-0.3,0.3-0.9,0.3-1.2,0C185,720.6,184.9,720.4,184.9,720.1z"/>
				<path fill="#556B7A" d="M179.7,715c0-0.2,0.1-0.4,0.3-0.6c0.3-0.3,0.9-0.3,1.2,0l5.2,5.2c0.3,0.3,0.3,0.9,0,1.2
					c-0.3,0.3-0.9,0.3-1.2,0l-5.2-5.2C179.8,715.4,179.7,715.2,179.7,715z"/>
				<path fill="#556B7A" d="M184.9,720.1v-8.8c0-5.1,188.7-9.3,193.8-9.3H403c0.5,0,0.9,0.4,0.9,0.9c0,0.5-0.4,0.9-0.9,0.9h-24.3
					c-4.2,0-192.1,3.4-192.1,7.6v8.8c0,0.5-0.4,0.9-0.9,0.9S184.9,720.6,184.9,720.1z"/>
				<g>
					<circle fill="#B4D77D" cx="408.2" cy="702.9" r="5.2"/>
					<path fill="#B4D77D" d="M402.1,702.9c0-3.3,2.7-6,6-6s6,2.7,6,6c0,3.3-2.7,6-6,6S402.1,706.2,402.1,702.9z M412.5,702.9
						c0-2.4-1.9-4.3-4.3-4.3s-4.3,1.9-4.3,4.3s1.9,4.3,4.3,4.3S412.5,705.3,412.5,702.9z"/>
				</g>
			</g>
			<g>
			</g>
			<g>
			</g>
			<g>
			</g>
			<g>
			</g>
			<g>
			</g>
			<g>
			</g>
			<g>
			</g>
			<g>
			</g>
			<g>
			</g>
			<g>
			</g>
			<g>
			</g>
			<g>
			</g>
			<g>
			</g>
			<g>
			</g>
			<g>
			</g>
		</g>
		
			<use xlink:href="#Box"  width="612" height="72.7" x="-306" y="-18.9" transform="matrix(1 0 0 -1 306.4357 705.5033)" overflow="visible"/>
		
			<use xlink:href="#monitor"  width="28.8" height="25" x="-14.4" y="-12.5" transform="matrix(0.6 0 0 -0.6 355.2038 670.1025)" overflow="visible"/>
		<text transform="matrix(1 0 0 1 465.7788 666.1006)"><tspan x="0" y="0" font-family="'SourceSansPro-Regular'" font-size="12">We can track a device when</tspan><tspan x="16.8" y="14.4" font-family="'SourceSansPro-Regular'" font-size="12"> transporters Receive it, </tspan><tspan x="24.3" y="28.8" font-family="'SourceSansPro-Regular'" font-size="12">attaching the location.</tspan></text>
		<line fill="none" stroke="#B2B3B3" stroke-width="0.75" stroke-miterlimit="10" x1="258.3" y1="661.5" x2="301.2" y2="670.3"/>
		<line fill="none" stroke="#B2B3B3" stroke-width="0.75" stroke-miterlimit="10" x1="222.2" y1="665.5" x2="221.2" y2="667.5"/>
	</g>
	<line fill="none" stroke="#B2B3B3" stroke-width="0.75" stroke-miterlimit="10" x1="442.4" y1="709.5" x2="455" y2="711.7"/>
	<g>
		<text transform="matrix(1 0 0 1 252.174 740.6912)" font-family="'SourceSansPro-Regular'" font-size="12">Let’s ensure the integrity of the device by analyzing the components.</text>
		<g>
			
				<use xlink:href="#Camera"  width="40" height="34.7" x="-20" y="-17.3" transform="matrix(1.1538 0 0 -1.1538 275.2504 771.6751)" overflow="visible"/>
			<text transform="matrix(1 0 0 1 301.2421 775.5801)" font-family="'SourceSansPro-Regular'" font-size="18">Snapshot</text>
			<text transform="matrix(1 0 0 1 301.2424 790.413)" fill="#231F20" font-family="'SourceSansPro-Regular'" font-size="13">Inventories, tests and erasures.</text>
			<text transform="matrix(1 0 0 1 301.2416 761.2059)" fill="#606161" font-family="'SourceSansPro-Regular'" font-size="15">event</text>
		</g>
		<g>
			<g>
				<g>
					<g>
						<circle fill="#F19C22" cx="185.3" cy="763.3" r="6.2"/>
						<path fill="#F19C22" d="M185.3,756.1c4,0,7.2,3.2,7.2,7.2s-3.2,7.2-7.2,7.2s-7.2-3.2-7.2-7.2
							C178.1,759.3,181.3,756.1,185.3,756.1z M185.3,768.4c2.8,0,5.1-2.3,5.1-5.1c0-2.8-2.3-5.1-5.1-5.1s-5.1,2.3-5.1,5.1
							C180.2,766.1,182.5,768.4,185.3,768.4z"/>
					</g>
					<rect x="184.3" y="724.3" fill="#556B7A" width="2.1" height="32.9"/>
					<path fill="#556B7A" d="M191.5,749.9c0.3,0,0.5,0.1,0.7,0.3c0.4,0.4,0.4,1.1,0,1.5l-6.2,6.2c-0.4,0.4-1.1,0.4-1.5,0
						s-0.4-1.1,0-1.5l6.2-6.2C190.9,750,191.2,749.9,191.5,749.9z"/>
					<path fill="#556B7A" d="M179.1,749.9c0.3,0,0.5,0.1,0.7,0.3l6.2,6.2c0.4,0.4,0.4,1.1,0,1.5c-0.4,0.4-1.1,0.4-1.5,0l-6.2-6.2
						c-0.4-0.4-0.4-1.1,0-1.5C178.6,750,178.9,749.9,179.1,749.9z"/>
				</g>
			</g>
			
				<use xlink:href="#monitor"  width="28.8" height="25" x="-14.4" y="-12.5" transform="matrix(1 0 0 -1 184.8008 784.1749)" overflow="visible"/>
		</g>
		
			<use xlink:href="#Box"  width="612" height="72.7" id="XMLID_10_" x="-306" y="-18.9" transform="matrix(1 0 0 -1 306 778.5758)" overflow="visible"/>
		<text transform="matrix(1 0 0 1 8.5888 787.8213)" fill="#606161" font-family="'SourceSansPro-Regular'" font-size="40">1</text>
		<text transform="matrix(1 0 0 1 8.5887 710.1886)" fill="#606161" font-family="'SourceSansPro-Regular'" font-size="40">11</text>
	</g>
	<g>
		<g>
			<text transform="matrix(1 0 0 1 253.3329 813.4574)" font-family="'SourceSansPro-Regular'" font-size="12">Broken or outdated device?</text>
			<g>
				<text transform="matrix(1 0 0 1 297.1438 848.7681)" font-family="'SourceSansPro-Regular'" font-size="18">To Dispose</text>
				<text transform="matrix(1 0 0 1 297.1442 863.601)" fill="#231F20" font-family="'SourceSansPro-Regular'" font-size="13">The device needs to be taken to disposal.</text>
				<text transform="matrix(1 0 0 1 297.1434 834.3939)" fill="#606161" font-family="'SourceSansPro-Regular'" font-size="15">event</text>
				
					<use xlink:href="#Trash"  width="36.7" height="40" id="XMLID_11_" x="-18.3" y="-20" transform="matrix(1 0 0 -1 272.6098 845.3811)" overflow="visible"/>
			</g>
		</g>
		
			<use xlink:href="#Box"  width="612" height="72.7" x="-306" y="-18.9" transform="matrix(1 0 0 -1 306.4357 851.1595)" overflow="visible"/>
		<g>
			<g>
				<g>
					<g>
						<circle fill="#F19C22" cx="58.7" cy="838.5" r="6.2"/>
						<path fill="#F19C22" d="M58.7,831.3c4,0,7.2,3.2,7.2,7.2c0,4-3.2,7.2-7.2,7.2c-4,0-7.2-3.2-7.2-7.2
							C51.5,834.5,54.7,831.3,58.7,831.3z M58.7,843.6c2.8,0,5.1-2.3,5.1-5.1c0-2.8-2.3-5.1-5.1-5.1s-5.1,2.3-5.1,5.1
							C53.5,841.3,55.8,843.6,58.7,843.6z"/>
					</g>
					<rect x="57.7" y="799.5" fill="#556B7A" width="2.1" height="32.9"/>
					<path fill="#556B7A" d="M64.8,825.1c0.3,0,0.5,0.1,0.7,0.3c0.4,0.4,0.4,1.1,0,1.5l-6.2,6.2c-0.4,0.4-1.1,0.4-1.5,0
						c-0.4-0.4-0.4-1.1,0-1.5l6.2-6.2C64.3,825.2,64.6,825.1,64.8,825.1z"/>
					<path fill="#556B7A" d="M52.5,825.1c0.3,0,0.5,0.1,0.7,0.3l6.2,6.2c0.4,0.4,0.4,1.1,0,1.5s-1.1,0.4-1.5,0l-6.2-6.2
						c-0.4-0.4-0.4-1.1,0-1.5C52,825.2,52.3,825.1,52.5,825.1z"/>
				</g>
			</g>
			
				<use xlink:href="#monitor"  width="28.8" height="25" x="-14.4" y="-12.5" transform="matrix(1 0 0 -1 58.672 856.8204)" overflow="visible"/>
		</g>
	</g>
	<g>
		<rect x="57.6" y="45.9" fill="#556B7A" width="2.1" height="753.6"/>
	</g>
	<g>
		<g>
			<text transform="matrix(1 0 0 1 253.5242 884.7164)" font-family="'SourceSansPro-Regular'" font-size="12">Once the device has been taken care of...</text>
			<g>
				<text transform="matrix(1 0 0 1 297.3351 920.0271)" font-family="'SourceSansPro-Regular'" font-size="18">Dispose</text>
				<text transform="matrix(1 0 0 1 297.3354 934.86)"><tspan x="0" y="0" fill="#231F20" font-family="'SourceSansPro-Regular'" font-size="13">The device has </tspan><tspan x="82.8" y="0" fill="#231F20" font-family="'SourceSansPro-Regular'" font-size="13">been disposed</tspan><tspan x="165.3" y="0" fill="#231F20" font-family="'SourceSansPro-Regular'" font-size="13">.</tspan></text>
				<text transform="matrix(1 0 0 1 297.3346 905.6529)" fill="#606161" font-family="'SourceSansPro-Regular'" font-size="15">event</text>
				
					<use xlink:href="#Trash"  width="36.7" height="40" id="XMLID_12_" x="-18.3" y="-20" transform="matrix(1 0 0 -1 272.8011 916.6401)" overflow="visible"/>
			</g>
		</g>
		
			<use xlink:href="#Box"  width="612" height="72.7" x="-306" y="-18.9" transform="matrix(1 0 0 -1 306.627 922.4185)" overflow="visible"/>
		<g>
			<g>
				<g>
					<g>
						<circle fill="#F19C22" cx="58.9" cy="909.8" r="6.2"/>
						<path fill="#F19C22" d="M58.9,902.6c4,0,7.2,3.2,7.2,7.2c0,4-3.2,7.2-7.2,7.2c-4,0-7.2-3.2-7.2-7.2
							C51.7,905.8,54.9,902.6,58.9,902.6z M58.9,914.9c2.8,0,5.1-2.3,5.1-5.1c0-2.8-2.3-5.1-5.1-5.1s-5.1,2.3-5.1,5.1
							C53.7,912.6,56,914.9,58.9,914.9z"/>
					</g>
					<rect x="57.8" y="870.7" fill="#556B7A" width="2.1" height="32.9"/>
					<path fill="#556B7A" d="M65,896.4c0.3,0,0.5,0.1,0.7,0.3c0.4,0.4,0.4,1.1,0,1.5l-6.2,6.2c-0.4,0.4-1.1,0.4-1.5,0
						c-0.4-0.4-0.4-1.1,0-1.5l6.2-6.2C64.5,896.5,64.8,896.4,65,896.4z"/>
					<path fill="#556B7A" d="M52.7,896.4c0.3,0,0.5,0.1,0.7,0.3l6.2,6.2c0.4,0.4,0.4,1.1,0,1.5s-1.1,0.4-1.5,0l-6.2-6.2
						c-0.4-0.4-0.4-1.1,0-1.5C52.2,896.5,52.4,896.4,52.7,896.4z"/>
				</g>
			</g>
			<g>
				<g id="XMLID_13_">
					<path id="XMLID_19_" fill="#2D7C58" d="M68.6,931.7H58.4l0,7.2h8.5c1,0,2-0.6,2.5-1.4l1.2-2.2l-0.1,0L68.6,931.7z"/>
					<path id="XMLID_18_" fill="#2D7C58" d="M53.8,922.9l-6.2-3.6l-4.3,7.4c-0.5,0.9-0.5,2,0,2.9l1.2,2.1h4.2L53.8,922.9z"/>
					<path id="XMLID_17_" fill="#2D7C58" d="M58.7,914.5c0,0,5,8.8,5,8.8l6.2-3.5l-4.3-7.4c-0.5-0.9-1.5-1.4-2.5-1.4h-2.5v0.1
						L58.7,914.5z"/>
					<path id="XMLID_16_" fill="#4AB86E" d="M56.2,929.8L56.2,929.8c-0.5,0-0.8,0.4-0.8,0.8v1.2H44.6l3.6,6.1c0.4,0.6,1.1,1,1.8,1
						h5.4v1.2c0,0.4,0.4,0.8,0.8,0.8h0c0.2,0,0.4-0.1,0.6-0.2l4.8-4.8c0.3-0.3,0.3-0.8,0-1.1l-3-3l-1.7-1.7
						C56.6,929.8,56.4,929.8,56.2,929.8z"/>
					<path id="XMLID_15_" fill="#4AB86E" d="M56.7,921.9L56.7,921.9c0.2-0.4,0.1-0.9-0.3-1.1l-1-0.6l3.3-5.7l2.1-3.6v-0.1h-6.6
						c-1,0-2,0.6-2.5,1.5l-2.5,4.3l-1-0.6c-0.4-0.2-0.9-0.1-1.1,0.3l0,0c-0.1,0.2-0.1,0.4-0.1,0.6l0.6,2.4l1.1,4.2
						c0.1,0.4,0.5,0.7,1,0.6l6.5-1.7C56.4,922.2,56.6,922.1,56.7,921.9z"/>
					<path id="XMLID_14_" fill="#4AB86E" d="M71.5,922.4l1-0.6c0.4-0.2,0.5-0.7,0.3-1.1l0,0c-0.1-0.2-0.3-0.3-0.5-0.4l-6.5-1.8
						c-0.4-0.1-0.9,0.1-1,0.6l-1.7,6.5c-0.1,0.2,0,0.4,0.1,0.6l0,0c0.2,0.4,0.7,0.5,1.1,0.3l1-0.6l3.3,5.8l2,3.5l0.1,0l3.3-5.7
						c0.5-0.9,0.5-2,0-2.9L71.5,922.4z"/>
				</g>
				<g>
				</g>
				<g>
				</g>
				<g>
				</g>
				<g>
				</g>
				<g>
				</g>
				<g>
				</g>
				<g>
				</g>
				<g>
				</g>
				<g>
				</g>
				<g>
				</g>
				<g>
				</g>
				<g>
				</g>
				<g>
				</g>
				<g>
				</g>
				<g>
				</g>
			</g>
		</g>
	</g>
	<g>
		<text transform="matrix(1 0 0 1 276.228 -179.5638)" font-family="'SourceSansPro-Regular'" font-size="25">Events</text>
		<line fill="none" stroke="#B2B3B3" stroke-width="0.75" stroke-miterlimit="10" x1="360.1" y1="-186" x2="504.1" y2="-186"/>
		<line fill="none" stroke="#B2B3B3" stroke-width="0.75" stroke-miterlimit="10" x1="117.7" y1="-186" x2="261.7" y2="-186"/>
		<text transform="matrix(1 0 0 1 90.5551 -158.7036)" fill="#231F20" font-family="'SourceSansPro-Regular'" font-size="13">They represent the actions that happen to devices, and they are recorded in a log.</text>
		<text transform="matrix(1 0 0 1 242.431 -138.3665)" fill="#231F20" font-family="'SourceSansPro-Regular'" font-size="13">They can have a location.</text>
		<text transform="matrix(1 0 0 1 211.8298 -118.0291)" fill="#231F20" font-family="'SourceSansPro-Regular'" font-size="13">An event can affect multiple devices.</text>
		<text transform="matrix(1 0 0 1 185.7194 -97.6914)" fill="#231F20" font-family="'SourceSansPro-Regular'" font-size="13">The eReuse.org App can perform some events.</text>
	</g>
	
		<use xlink:href="#Box"  width="612" height="72.7" x="-306" y="-18.9" transform="matrix(1 0 0 -1 306 125.3104)" overflow="visible"/>
	<text transform="matrix(1 0 0 1 250.9362 86.1736)" font-family="'SourceSansPro-Regular'" font-size="12">Take a Snapshot event to detect changes in the device.</text>
	<text transform="matrix(1 0 0 1 249.3842 139.9897)"><tspan x="0" y="0" font-family="'SourceSansPro-Bold'" font-size="12">Added </tspan><tspan x="36.2" y="0" font-family="'SourceSansPro-Regular'" font-size="12">and </tspan><tspan x="58" y="0" font-family="'SourceSansPro-Bold'" font-size="12">removed </tspan><tspan x="107.8" y="0" font-family="'SourceSansPro-Regular'" font-size="12">components</tspan></text>
	<text transform="matrix(1 0 0 1 448.969 139.9898)"><tspan x="0" y="0" font-family="'SourceSansPro-Regular'" font-size="12">New </tspan><tspan x="24.8" y="0" font-family="'SourceSansPro-Bold'" font-size="12">erasures </tspan><tspan x="73.1" y="0" font-family="'SourceSansPro-Regular'" font-size="12">and </tspan><tspan x="94.9" y="0" font-family="'SourceSansPro-Bold'" font-size="12">tests</tspan></text>
	<g>
		<g>
			<path fill="#010101" d="M250.9,96.7h6.9v27.8h-3V122h-1.2v-7.1h1.2v-5.2h-1.2v-7.1h1.2v-2.8h-3.9V96.7z M295.7,106.2v15.7
				c0,1.3-1.1,2.4-2.4,2.4h0v2.4h-15.4v-2.4h-1.5v2.4H261v-2.4h-1.4v-20.6h33.6C294.6,103.8,295.7,104.8,295.7,106.2z M262.9,124.2
				h-0.8v1.7h0.8V124.2z M264.5,124.2h-0.8v1.7h0.8V124.2z M266,124.2h-0.8v1.7h0.8V124.2z M267.6,124.2h-0.8v1.7h0.8V124.2z
				 M268,114.1h-1.9v0.8h1.1v0.4c-0.4,0.5-0.9,0.7-1.4,0.7c-0.2,0-0.4,0-0.6-0.1c-0.2-0.1-0.4-0.2-0.5-0.4c-0.1-0.2-0.2-0.3-0.3-0.6
				c-0.1-0.2-0.1-0.4-0.1-0.7c0-0.2,0-0.5,0.1-0.7c0.1-0.2,0.2-0.4,0.3-0.6c0.1-0.2,0.3-0.3,0.5-0.4c0.2-0.1,0.4-0.1,0.6-0.1
				c0.3,0,0.5,0.1,0.8,0.2c0.2,0.1,0.4,0.3,0.6,0.6l0.8-0.6c-0.2-0.4-0.4-0.6-0.8-0.8c-0.4-0.2-0.8-0.3-1.3-0.3
				c-0.4,0-0.7,0.1-1,0.2c-0.3,0.1-0.6,0.3-0.8,0.6c-0.2,0.2-0.4,0.5-0.5,0.8c-0.1,0.3-0.2,0.7-0.2,1c0,0.4,0.1,0.7,0.2,1.1
				c0.1,0.3,0.3,0.6,0.5,0.9c0.2,0.2,0.5,0.4,0.8,0.6c0.3,0.1,0.6,0.2,1,0.2c0.6,0,1.1-0.2,1.5-0.6v0.6h0.9L268,114.1L268,114.1z
				 M269.1,124.2h-0.8v1.7h0.8V124.2z M270.6,124.2h-0.8v1.7h0.8V124.2z M272.2,124.2h-0.8v1.7h0.8V124.2z M272.5,111.5h-3.6v5.3h1
				v-2.2h2.1v-0.8h-2.1v-1.4h2.5L272.5,111.5L272.5,111.5z M273.7,124.2h-0.8v1.7h0.8V124.2z M275.2,124.2h-0.8v1.7h0.8V124.2z
				 M275.6,114.2l1.9-2.7h-1.1l-1.3,2l-1.3-2h-1.1l1.9,2.7l-1.8,2.6h1.1l1.3-1.9l1.3,1.9h1.1L275.6,114.2z M279.8,124.2H279v1.7h0.8
				V124.2z M281.3,124.2h-0.8v1.7h0.8V124.2z M282.9,124.2h-0.8v1.7h0.8V124.2z M284.4,124.2h-0.8v1.7h0.8V124.2z M286,124.2h-0.8
				v1.7h0.8V124.2z M287.5,124.2h-0.8v1.7h0.8V124.2z M289,124.2h-0.8v1.7h0.8V124.2z M290.6,124.2h-0.8v1.7h0.8V124.2z
				 M292.1,124.2h-0.8v1.7h0.8V124.2z M292.7,114.4c0-3.7-3-6.7-6.7-6.7s-6.7,3-6.7,6.7c0,3.7,3,6.7,6.7,6.7
				S292.7,118.2,292.7,114.4z M289.6,114.5c0.2-0.1,0.3-0.2,0.5-0.3c0.2-0.1,0.3-0.2,0.5-0.3c0.2-0.1,0.3-0.2,0.4-0.3c0,0,0,0,0,0
				c-0.2-1.3-0.8-2.4-1.8-3.2c0,0,0,0,0,0.1c-0.1,0.1-0.1,0.2-0.2,0.3c-0.1,0.1-0.2,0.2-0.2,0.3c-0.1,0.1-0.2,0.2-0.3,0.4
				c-0.1,0.1-0.2,0.3-0.3,0.4c-0.1,0.1-0.2,0.3-0.3,0.4c0,0,0,0,0,0c0-0.1,0-0.3,0-0.4c0-0.2,0-0.4,0-0.6c0-0.2,0-0.4,0-0.6
				c0-0.2,0-0.4,0-0.5c0-0.2,0-0.4,0-0.5c0,0,0,0,0,0c-0.6-0.2-1.2-0.4-1.9-0.4c-0.6,0-1.2,0.1-1.8,0.3c0,0,0,0,0,0.1
				c0,0.1,0.1,0.2,0.1,0.3c0,0.1,0.1,0.2,0.2,0.4c0.1,0.1,0.1,0.3,0.2,0.4c0.1,0.2,0.1,0.3,0.2,0.5c0.1,0.2,0.1,0.3,0.2,0.5
				c0,0,0,0,0,0c-0.1-0.1-0.2-0.1-0.3-0.2c-0.2-0.1-0.3-0.2-0.5-0.3c-0.2-0.1-0.3-0.2-0.5-0.3c-0.2-0.1-0.3-0.2-0.5-0.3
				c-0.2-0.1-0.3-0.2-0.4-0.3c0,0,0,0,0,0c-1,0.8-1.7,1.9-1.9,3.1c0,0,0,0,0.1,0c0.1,0,0.2,0,0.3,0c0.1,0,0.3,0,0.4,0.1
				c0.1,0,0.3,0,0.5,0.1c0.2,0,0.3,0.1,0.5,0.1c0.2,0,0.3,0.1,0.5,0.1c0,0,0,0,0,0c-0.1,0.1-0.2,0.1-0.3,0.2
				c-0.2,0.1-0.3,0.2-0.5,0.3c-0.2,0.1-0.3,0.2-0.5,0.3c-0.2,0.1-0.3,0.2-0.5,0.3c-0.2,0.1-0.3,0.2-0.4,0.3c0,0,0,0,0,0
				c0.2,1.3,0.8,2.4,1.8,3.2c0,0,0,0,0-0.1c0.1-0.1,0.1-0.2,0.2-0.3c0.1-0.1,0.2-0.2,0.2-0.3c0.1-0.1,0.2-0.2,0.3-0.4
				c0.1-0.1,0.2-0.3,0.3-0.4c0.1-0.1,0.2-0.3,0.3-0.4c0,0,0,0,0,0c0,0.1,0,0.3,0,0.4c0,0.2,0,0.4,0,0.6c0,0.2,0,0.4,0,0.6
				c0,0.2,0,0.4,0,0.5c0,0.2,0,0.4,0,0.5c0,0,0,0,0,0c0.6,0.2,1.2,0.4,1.9,0.4c0.6,0,1.2-0.1,1.8-0.3c0,0,0,0,0-0.1
				c0-0.1-0.1-0.2-0.1-0.3c0-0.1-0.1-0.2-0.2-0.4c-0.1-0.1-0.1-0.3-0.2-0.4c-0.1-0.2-0.1-0.3-0.2-0.5c-0.1-0.2-0.1-0.3-0.2-0.5
				c0,0,0,0,0,0c0.1,0.1,0.2,0.1,0.3,0.2c0.2,0.1,0.3,0.2,0.5,0.3c0.2,0.1,0.3,0.2,0.5,0.3c0.2,0.1,0.3,0.2,0.5,0.3
				c0.2,0.1,0.3,0.2,0.4,0.3c0,0,0,0,0,0c1-0.8,1.7-1.9,1.9-3.1c0,0,0,0-0.1,0c-0.1,0-0.2,0-0.3,0c-0.1,0-0.3,0-0.4-0.1
				c-0.1,0-0.3,0-0.5-0.1c-0.2,0-0.3-0.1-0.5-0.1c-0.2,0-0.3-0.1-0.5-0.1c0,0,0,0,0,0c0.1-0.1,0.2-0.1,0.3-0.2
				C289.3,114.7,289.5,114.6,289.6,114.5z"/>
			<g>
			</g>
			<g>
			</g>
			<g>
			</g>
			<g>
			</g>
			<g>
			</g>
			<g>
			</g>
			<g>
			</g>
			<g>
			</g>
			<g>
			</g>
			<g>
			</g>
			<g>
			</g>
			<g>
			</g>
			<g>
			</g>
			<g>
			</g>
			<g>
			</g>
		</g>
		<g>
			<path fill="#010101" d="M510.7,126.7c1,0,1.9-0.8,1.9-1.9V98.6c0-1-0.8-1.9-1.9-1.9H490c-1,0-1.9,0.8-1.9,1.9v26.3
				c0,1,0.8,1.9,1.9,1.9h11.4v-1.3h6.4v1.3H510.7z M509.6,99c0.5,0,0.9,0.4,0.9,0.9c0,0.5-0.4,0.9-0.9,0.9c-0.5,0-0.9-0.4-0.9-0.9
				C508.7,99.5,509.1,99,509.6,99z M509.6,122.5c0.5,0,0.9,0.4,0.9,0.9c0,0.5-0.4,0.9-0.9,0.9c-0.5,0-0.9-0.4-0.9-0.9
				C508.7,122.9,509.1,122.5,509.6,122.5z M491.1,124.4c-0.5,0-0.9-0.4-0.9-0.9c0-0.5,0.4-0.9,0.9-0.9c0.5,0,0.9,0.4,0.9,0.9
				C492.1,124,491.7,124.4,491.1,124.4z M491.1,100.9c-0.5,0-0.9-0.4-0.9-0.9c0-0.5,0.4-0.9,0.9-0.9c0.5,0,0.9,0.4,0.9,0.9
				C492.1,100.5,491.7,100.9,491.1,100.9z M500.4,118.5c-0.6,0-1.3-0.1-1.9-0.2c0.2,1.1,0.4,1.9,0.4,2.3c0,1.7-1.4,3-3,3s-3-1.4-3-3
				c0-0.6,0.5-3,1-5.3c-1.1-1.4-1.7-3.1-1.7-5c0-4.6,3.7-8.2,8.2-8.2s8.2,3.7,8.2,8.2C508.6,114.8,504.9,118.5,500.4,118.5z
				 M503.7,110.3c0,1.8-1.5,3.3-3.3,3.3s-3.3-1.5-3.3-3.3c0-1.8,1.5-3.3,3.3-3.3S503.7,108.4,503.7,110.3z M493.6,120.6
				c0,1.2,1,2.2,2.2,2.2s2.2-1,2.2-2.2s-2.2-10.6-2.2-10.6S493.6,119.3,493.6,120.6z M496.7,120.6c0,0.5-0.4,0.9-0.9,0.9
				c-0.5,0-0.9-0.4-0.9-0.9c0-0.5,0.4-0.9,0.9-0.9C496.3,119.7,496.7,120.1,496.7,120.6z"/>
		</g>
		<g>
			<path fill="#010101" d="M408.6,98.5h-82.5c-0.4,0-0.8,0.4-0.8,0.8v7.9c0,0.4,0.4,0.8,0.8,0.8h3.4c1,0,1.8,0.8,1.8,1.8
				c0,1-0.8,1.8-1.8,1.8h-3.4c-0.4,0-0.8,0.4-0.8,0.8v3c0,0.4,0.4,0.8,0.8,0.8h3.4c1,0,1.8,0.8,1.8,1.8s-0.8,1.8-1.8,1.8h-3.4
				c-0.4,0-0.8,0.4-0.8,0.8v3.8c0,0.4,0.4,0.8,0.8,0.8v3.4h39.4v-3.4h3.7v3.4h39.4v-3.4c0.4,0,0.8-0.4,0.8-0.8v-3.8
				c0-0.4-0.4-0.8-0.8-0.8h-3.4c-1,0-1.8-0.8-1.8-1.8s0.8-1.8,1.8-1.8h3.4c0.4,0,0.8-0.4,0.8-0.8v-3c0-0.4-0.4-0.8-0.8-0.8h-3.4
				c-1,0-1.8-0.8-1.8-1.8c0-1,0.8-1.8,1.8-1.8h3.4c0.4,0,0.8-0.4,0.8-0.8v-7.9C409.4,98.9,409,98.5,408.6,98.5z M331.1,127.2h-2
				v-2.9h2V127.2z M403.6,124.3h2v2.9h-2V124.3z M335,127.2h-2v-2.9h2V127.2z M338.9,127.2h-2v-2.9h2V127.2z M342.9,127.2h-2v-2.9h2
				V127.2z M346.8,127.2h-2v-2.9h2V127.2z M350.7,127.2h-2v-2.9h2V127.2z M354.6,127.2h-2v-2.9h2V127.2z M358.6,127.2h-2v-2.9h2
				V127.2z M362.5,127.2h-2v-2.9h2V127.2z M337.2,118.1v-13.8h60.4v13.8H337.2z M374.2,127.2h-2v-2.9h2V127.2z M378.1,127.2h-2v-2.9
				h2V127.2z M382,127.2h-2v-2.9h2V127.2z M386,127.2h-2v-2.9h2V127.2z M389.9,127.2h-2v-2.9h2V127.2z M393.8,127.2h-2v-2.9h2V127.2
				z M397.7,127.2h-2v-2.9h2V127.2z M401.7,127.2h-2v-2.9h2V127.2z M382.3,111.3h3.4v4.8h-1.5v-1.1c-0.7,0.7-1.6,1.1-2.6,1.1
				c-0.6,0-1.2-0.1-1.7-0.4c-0.5-0.2-1-0.6-1.4-1c-0.4-0.4-0.7-0.9-1-1.5c-0.2-0.6-0.4-1.2-0.4-1.9c0-0.6,0.1-1.2,0.4-1.8
				c0.2-0.6,0.6-1.1,1-1.5c0.4-0.4,0.9-0.8,1.4-1c0.6-0.3,1.2-0.4,1.8-0.4c0.9,0,1.6,0.2,2.3,0.6c0.6,0.4,1.1,0.9,1.4,1.5l-1.4,1
				c-0.2-0.5-0.6-0.8-1-1.1c-0.4-0.2-0.9-0.4-1.4-0.4c-0.4,0-0.8,0.1-1.1,0.3c-0.3,0.2-0.6,0.4-0.8,0.7c-0.2,0.3-0.4,0.6-0.5,1
				c-0.1,0.4-0.2,0.8-0.2,1.2c0,0.4,0.1,0.9,0.2,1.2c0.1,0.4,0.3,0.7,0.6,1c0.2,0.3,0.5,0.5,0.9,0.7c0.3,0.2,0.7,0.2,1.1,0.2
				c0.9,0,1.7-0.4,2.5-1.3v-0.7h-1.9V111.3L382.3,111.3z M393.1,111.3c0.4-0.2,0.8-0.5,1-0.9c0.2-0.4,0.3-0.8,0.3-1.3
				c0-0.3-0.1-0.6-0.2-0.9c-0.1-0.3-0.2-0.5-0.4-0.8c-0.2-0.2-0.4-0.4-0.7-0.5c-0.3-0.1-0.6-0.2-0.9-0.2h-5v9.4h4.5
				c0.4,0,0.8-0.1,1.2-0.2c0.4-0.1,0.7-0.3,1-0.5c0.3-0.2,0.5-0.5,0.7-0.8c0.2-0.3,0.2-0.6,0.2-1c0-0.6-0.2-1.1-0.5-1.5
				C394,111.8,393.6,111.5,393.1,111.3z M389.1,108.3h2.5c0.3,0,0.5,0.1,0.7,0.3c0.2,0.2,0.3,0.5,0.3,0.9c0,0.4-0.1,0.7-0.3,0.9
				c-0.2,0.2-0.5,0.3-0.8,0.3h-2.4V108.3L389.1,108.3z M392.9,113.9c-0.1,0.2-0.1,0.3-0.3,0.4c-0.1,0.1-0.2,0.2-0.4,0.3
				c-0.1,0.1-0.3,0.1-0.5,0.1h-2.7v-2.5h2.8c0.2,0,0.3,0,0.4,0.1c0.1,0.1,0.2,0.2,0.3,0.3c0.1,0.1,0.2,0.2,0.2,0.4
				c0.1,0.2,0.1,0.3,0.1,0.5C393,113.6,392.9,113.7,392.9,113.9z"/>
			<g>
			</g>
			<g>
			</g>
			<g>
			</g>
			<g>
			</g>
			<g>
			</g>
			<g>
			</g>
			<g>
			</g>
			<g>
			</g>
			<g>
			</g>
			<g>
			</g>
			<g>
			</g>
			<g>
			</g>
			<g>
			</g>
			<g>
			</g>
			<g>
			</g>
		</g>
		<g>
			<g>
				<path fill="#5BBC62" d="M287.1,94.4c-0.3-0.3-0.6-0.4-1-0.4h-5.9v-5.9c0-0.4-0.1-0.7-0.4-1c-0.3-0.3-0.6-0.4-1-0.4h-2.7
					c-0.4,0-0.7,0.1-1,0.4c-0.3,0.3-0.4,0.6-0.4,1V94h-5.9c-0.4,0-0.7,0.1-1,0.4c-0.3,0.3-0.4,0.6-0.4,1v2.7c0,0.4,0.1,0.7,0.4,1
					c0.3,0.3,0.6,0.4,1,0.4h5.9v5.9c0,0.4,0.1,0.7,0.4,1c0.3,0.3,0.6,0.4,1,0.4h2.7c0.4,0,0.7-0.1,1-0.4c0.3-0.3,0.4-0.6,0.4-1v-5.9
					h5.9c0.4,0,0.7-0.1,1-0.4c0.3-0.3,0.4-0.6,0.4-1v-2.7C287.5,95,287.4,94.7,287.1,94.4z"/>
			</g>
			<g>
			</g>
			<g>
			</g>
			<g>
			</g>
			<g>
			</g>
			<g>
			</g>
			<g>
			</g>
			<g>
			</g>
			<g>
			</g>
			<g>
			</g>
			<g>
			</g>
			<g>
			</g>
			<g>
			</g>
			<g>
			</g>
			<g>
			</g>
			<g>
			</g>
		</g>
		<g>
			<g>
				<path fill="#D65F36" d="M357.3,96.4c-0.2-0.2-0.5-0.4-0.9-0.4h-15.8c-0.3,0-0.6,0.1-0.9,0.4c-0.2,0.2-0.4,0.5-0.4,0.9v2.5
					c0,0.3,0.1,0.6,0.4,0.9c0.2,0.2,0.5,0.4,0.9,0.4h15.8c0.3,0,0.6-0.1,0.9-0.4c0.2-0.2,0.4-0.5,0.4-0.9v-2.5
					C357.7,96.9,357.5,96.6,357.3,96.4z"/>
			</g>
			<g>
			</g>
			<g>
			</g>
			<g>
			</g>
			<g>
			</g>
			<g>
			</g>
			<g>
			</g>
			<g>
			</g>
			<g>
			</g>
			<g>
			</g>
			<g>
			</g>
			<g>
			</g>
			<g>
			</g>
			<g>
			</g>
			<g>
			</g>
			<g>
			</g>
		</g>
		
			<use xlink:href="#eraser"  width="30" height="20" id="XMLID_20_" x="-15" y="-10" transform="matrix(1 0 0 -1 520.0725 100.749)" overflow="visible"/>
	</g>
	<g>
		<g>
			<g>
				<polygon fill="#556B7A" points="215.1,92.9 204.8,92.9 204.8,91.5 216.5,91.5 216.5,103.3 215.1,103.3 				"/>
				<polygon fill="#556B7A" points="184.1,81.2 185.5,81.2 185.5,91.5 196.5,91.5 196.5,92.9 184.1,92.9 				"/>
				<g>
					<circle fill="#EF785A" cx="215.8" cy="107.4" r="4.1"/>
					<path fill="#EF785A" d="M211,107.4c0-2.7,2.2-4.8,4.8-4.8c2.7,0,4.8,2.2,4.8,4.8c0,2.7-2.2,4.8-4.8,4.8
						C213.2,112.2,211,110.1,211,107.4z M212.4,107.4c0,1.9,1.5,3.4,3.4,3.4c1.9,0,3.4-1.5,3.4-3.4c0-1.9-1.5-3.4-3.4-3.4
						C213.9,103.9,212.4,105.5,212.4,107.4z"/>
				</g>
				<g>
					<circle fill="#F19C22" cx="200.6" cy="92.2" r="4.1"/>
					<path fill="#F19C22" d="M195.8,92.2c0-2.7,2.2-4.8,4.8-4.8s4.8,2.2,4.8,4.8c0,2.7-2.2,4.8-4.8,4.8S195.8,94.9,195.8,92.2z
						 M197.2,92.2c0,1.9,1.5,3.4,3.4,3.4s3.4-1.5,3.4-3.4c0-1.9-1.5-3.4-3.4-3.4S197.2,90.3,197.2,92.2z"/>
				</g>
				<g>
					<circle fill="#F3D55B" cx="184.8" cy="77" r="4.1"/>
					<path fill="#F3D55B" d="M180,77c0-2.7,2.2-4.8,4.8-4.8c2.7,0,4.8,2.2,4.8,4.8s-2.2,4.8-4.8,4.8C182.1,81.9,180,79.7,180,77z
						 M181.3,77c0,1.9,1.5,3.4,3.4,3.4c1.9,0,3.4-1.5,3.4-3.4s-1.5-3.4-3.4-3.4C182.9,73.6,181.3,75.1,181.3,77z"/>
				</g>
			</g>
			<g>
			</g>
			<g>
			</g>
			<g>
			</g>
			<g>
			</g>
			<g>
			</g>
			<g>
			</g>
			<g>
			</g>
			<g>
			</g>
			<g>
			</g>
			<g>
			</g>
			<g>
			</g>
			<g>
			</g>
			<g>
			</g>
			<g>
			</g>
			<g>
			</g>
		</g>
		<g>
			<g>
				<polygon fill="#556B7A" points="185.5,133.6 184.1,133.6 184.1,121.9 195.8,121.9 195.8,123.3 185.5,123.3 				"/>
				<polygon fill="#556B7A" points="216.5,123.3 204.1,123.3 204.1,121.9 215.1,121.9 215.1,111.5 216.5,111.5 				"/>
				<g>
					<circle fill="#EF785A" cx="184.8" cy="137.7" r="4.1"/>
					<path fill="#EF785A" d="M184.8,142.6c-2.7,0-4.8-2.2-4.8-4.8s2.2-4.8,4.8-4.8c2.7,0,4.8,2.2,4.8,4.8S187.4,142.6,184.8,142.6z
						 M184.8,134.3c-1.9,0-3.4,1.5-3.4,3.4s1.5,3.4,3.4,3.4c1.9,0,3.4-1.5,3.4-3.4S186.7,134.3,184.8,134.3z"/>
				</g>
				<g>
					<circle fill="#F19C22" cx="200" cy="122.6" r="4.1"/>
					<path fill="#F19C22" d="M200,127.4c-2.7,0-4.8-2.2-4.8-4.8c0-2.7,2.2-4.8,4.8-4.8s4.8,2.2,4.8,4.8S202.6,127.4,200,127.4z
						 M200,119.1c-1.9,0-3.4,1.5-3.4,3.4c0,1.9,1.5,3.4,3.4,3.4s3.4-1.5,3.4-3.4C203.4,120.7,201.9,119.1,200,119.1z"/>
				</g>
				<g>
					<circle fill="#F3D55B" cx="215.8" cy="107.4" r="4.1"/>
					<path fill="#F3D55B" d="M215.8,112.2c-2.7,0-4.8-2.2-4.8-4.8c0-2.7,2.2-4.8,4.8-4.8c2.7,0,4.8,2.2,4.8,4.8
						C220.6,110.1,218.5,112.2,215.8,112.2z M215.8,103.9c-1.9,0-3.4,1.5-3.4,3.4c0,1.9,1.5,3.4,3.4,3.4c1.9,0,3.4-1.5,3.4-3.4
						C219.3,105.5,217.7,103.9,215.8,103.9z"/>
				</g>
			</g>
			<g>
			</g>
			<g>
			</g>
			<g>
			</g>
			<g>
			</g>
			<g>
			</g>
			<g>
			</g>
			<g>
			</g>
			<g>
			</g>
			<g>
			</g>
			<g>
			</g>
			<g>
			</g>
			<g>
			</g>
			<g>
			</g>
			<g>
			</g>
			<g>
			</g>
		</g>
	</g>
	<text transform="matrix(1 0 0 1 8.5888 133.5987)" fill="#606161" font-family="'SourceSansPro-Regular'" font-size="40">3</text>
</g>
</svg>
