<?xml version="1.0" encoding="UTF-8" standalone="no"?><!DOCTYPE svg PUBLIC "-//W3C//DTD SVG 1.1//EN" "http://www.w3.org/Graphics/SVG/1.1/DTD/svg11.dtd"><svg width="100%" height="100%" viewBox="0 0 1150 306" version="1.1" xmlns="http://www.w3.org/2000/svg" xmlns:xlink="http://www.w3.org/1999/xlink" xml:space="preserve" style="fill-rule:evenodd;clip-rule:evenodd;stroke-linecap:round;stroke-linejoin:round;stroke-miterlimit:1.5;"><rect id="Artboard1" x="0" y="0" width="1150" height="306" style="fill:none;"/><g><path d="M75.008,230.1c0,0 154.167,-27.1 218,-27.1c55.737,0 116.667,24.842 165,27.1c41.865,1.957 106.101,-20.581 148,-21.548c54.5,-1.258 118.667,27.166 179,28c53.33,0.736 111.5,-17.334 160,-15c43.902,2.112 93.834,12.166 116,19c8.307,2.56 13.435,10.388 12,16.648c-1.216,5.309 -13.49,8.048 -21.98,7.831c-13,-0.334 -51.02,-4.479 -51.02,-4.479" style="fill:none;stroke:#bfff00;stroke-width:2px;"/><path d="M75.008,211.552c0,0 156.167,7 220,7c55.737,0 99.667,-4.259 148,-2c41.865,1.956 80.101,20.967 122,20c54.5,-1.258 66.667,-24.834 127,-24c53.33,0.736 145.5,19.136 194,21.469c43.902,2.112 152.834,-6.833 175,0c8.307,2.561 13.435,7.878 12,14.138c-1.216,5.309 -18.509,4.61 -27,4.393c-13,-0.334 -47,3.45 -47,3.45" style="fill:none;stroke:#bfff00;stroke-width:2px;"/><path d="M75.008,220.593c0,0 156.167,-9.041 220,-9.041c55.737,0 101.667,8.741 150,11c41.865,1.956 90.601,0.967 132.5,0c54.5,-1.258 118.167,2.166 178.5,3c53.33,0.736 128.5,-1.334 177,1c43.902,2.112 105.834,9.677 128,16.51c8.307,2.561 13.435,7.878 12,14.138c-1.216,5.309 -18.509,4.611 -27,4.393c-13,-0.333 -47,-3.041 -47,-3.041" style="fill:none;stroke:#bfff00;stroke-width:2px;"/><g><path d="M947.82,271.818l2.801,-34.287l44.555,2.254c0,0 7.377,-0.128 7.387,5.879c0.009,6.016 -0.702,17.634 -1.7,24.224c-0.764,5.031 -7.373,4.097 -7.373,4.097l-45.67,-2.167Z" style="fill:#2f2e2f;fill-rule:nonzero;"/><path d="M948.414,243.86l-1.648,23.97l-13.18,-0.907l1.648,-23.97l13.18,0.907Z" style="fill:#2f2e2f;fill-rule:nonzero;"/><path d="M937.249,262.013l7.007,0.351" style="fill:none;stroke:#bfff00;stroke-width:1.79px;stroke-linejoin:miter;stroke-miterlimit:10;"/><path d="M938.445,248.087l7.006,0.351" style="fill:none;stroke:#bfff00;stroke-width:1.79px;stroke-linejoin:miter;stroke-miterlimit:10;"/><path d="M939.404,257.447l5.097,0.254" style="fill:none;stroke:#bfff00;stroke-width:1.79px;stroke-linejoin:miter;stroke-miterlimit:10;"/><path d="M939.554,252.826l5.099,0.255" style="fill:none;stroke:#bfff00;stroke-width:1.79px;stroke-linejoin:miter;stroke-miterlimit:10;"/></g></g><g id="Logo-01"><g transform="matrix(1.02675,0,0,1.02675,-168.639,-15.2874)"><path d="M189.803,224.92l36.749,0c14.356,0 24.843,-0.538 31.462,-1.612c6.619,-1.075 12.12,-2.901 16.504,-5.48c9.628,-5.76 16.806,-14.549 21.534,-26.369c4.728,-11.82 7.091,-27.056 7.091,-45.71c0,-17.794 -2.277,-32.601 -6.833,-44.42c-4.556,-11.82 -11.347,-20.696 -20.373,-26.627c-4.642,-3.094 -10.337,-5.287 -17.085,-6.576c-6.748,-1.289 -18.159,-1.934 -34.234,-1.934l-4.126,0l-30.689,0l0,158.728Zm27.207,-174.33l12.894,0c15.645,0 27.379,0.817 35.202,2.45c7.822,1.633 14.57,4.255 20.244,7.865c11.69,7.393 20.609,18.289 26.755,32.687c6.146,14.399 9.219,31.612 9.219,51.641c0,21.577 -3.352,39.715 -10.057,54.414c-6.705,14.699 -16.634,25.616 -29.786,32.751c-5.501,2.923 -12.249,5.007 -20.244,6.254c-7.994,1.246 -20.201,1.87 -36.619,1.87l-52.222,0l0,-189.932l44.614,0Z" style="fill:none;"/><path d="M351.636,175.019l0,0.774c0,16.762 4.04,30.108 12.121,40.036c8.08,9.929 18.911,14.893 32.493,14.893c10.745,0 19.728,-2.901 26.949,-8.704c7.221,-5.802 11.605,-13.732 13.152,-23.789l15.86,0c-1.719,13.925 -7.737,25.079 -18.052,33.46c-10.315,8.381 -23.296,12.572 -38.941,12.572c-18.653,0 -33.267,-6.318 -43.84,-18.955c-10.573,-12.636 -15.86,-30.172 -15.86,-52.608c0,-22.866 5.308,-40.703 15.925,-53.511c10.616,-12.808 25.38,-19.212 44.291,-19.212c18.396,0 32.73,6.124 43.002,18.374c10.273,12.249 15.409,29.377 15.409,51.383l0,5.287l-102.509,0Zm0.258,-12.765l85.875,0.129c-0.687,-15.13 -4.792,-27.014 -12.314,-35.653c-7.521,-8.639 -17.514,-12.958 -29.979,-12.958c-12.55,0 -22.758,4.384 -30.623,13.152c-7.866,8.768 -12.185,20.544 -12.959,35.33Z" style="fill:none;"/><path d="M506.377,240.522l-51.577,-137.066l17.149,0l43.84,117.724l43.067,-117.724l16.376,0l-51.19,137.066l-17.665,0Z" style="fill:none;"/><path d="M585.042,74.444l0,-23.854l15.731,0l0,23.854l-15.731,0Zm0,166.078l0,-137.066l15.731,0l0,137.066l-15.731,0Z" style="fill:none;"/><path d="M721.473,193.2l15.859,0c-1.461,15.731 -7.263,28.131 -17.407,37.2c-10.143,9.068 -23.338,13.603 -39.585,13.603c-18.568,0 -33.203,-6.361 -43.905,-19.083c-10.702,-12.723 -16.053,-30.044 -16.053,-51.964c0,-22.694 5.437,-40.531 16.311,-53.511c10.874,-12.98 25.767,-19.47 44.679,-19.47c15.387,0 28.044,4.319 37.973,12.958c9.929,8.64 15.28,20.008 16.053,34.106l-15.215,0c-1.289,-9.972 -5.48,-17.966 -12.572,-23.984c-7.092,-6.017 -15.838,-9.026 -26.239,-9.026c-13.668,0 -24.521,5.158 -32.558,15.473c-8.038,10.316 -12.056,24.328 -12.056,42.036c0,18.137 4.061,32.493 12.185,43.066c8.123,10.573 19.019,15.86 32.686,15.86c10.66,0 19.557,-3.309 26.691,-9.929c7.135,-6.619 11.519,-15.73 13.153,-27.335Z" style="fill:none;"/><path d="M762.229,175.019l0,0.774c0,16.762 4.04,30.108 12.12,40.036c8.08,9.929 18.912,14.893 32.493,14.893c10.746,0 19.729,-2.901 26.949,-8.704c7.221,-5.802 11.605,-13.732 13.152,-23.789l15.86,0c-1.719,13.925 -7.736,25.079 -18.052,33.46c-10.315,8.381 -23.295,12.572 -38.94,12.572c-18.654,0 -33.267,-6.318 -43.84,-18.955c-10.574,-12.636 -15.86,-30.172 -15.86,-52.608c0,-22.866 5.308,-40.703 15.924,-53.511c10.616,-12.808 25.38,-19.212 44.292,-19.212c18.395,0 32.729,6.124 43.002,18.374c10.272,12.249 15.408,29.377 15.408,51.383l0,5.287l-102.508,0Zm0.257,-12.765l85.876,0.129c-0.688,-15.13 -4.793,-27.014 -12.314,-35.653c-7.522,-8.639 -17.515,-12.958 -29.979,-12.958c-12.551,0 -22.758,4.384 -30.624,13.152c-7.865,8.768 -12.185,20.544 -12.959,35.33Z" style="fill:none;"/><path d="M968.938,240.522l0,-84.973c0,-13.668 -2.085,-23.081 -6.254,-28.239c-4.169,-5.157 -11.325,-7.736 -21.469,-7.736c-12.55,0 -22.521,3.546 -29.914,10.638c-7.393,7.091 -11.089,16.655 -11.089,28.689l0,81.621l-23.21,0l0,-189.932l23.21,0l0,71.305c4.212,-7.479 10.014,-13.174 17.407,-17.085c7.393,-3.911 16.032,-5.867 25.917,-5.867c10.402,0 19.17,1.569 26.305,4.707c7.134,3.137 12.636,7.844 16.504,14.119c2.149,3.352 3.697,7.285 4.642,11.798c0.946,4.513 1.418,11.669 1.418,21.469l0,89.486l-23.467,0Z" style="fill:none;"/><path d="M1034.33,102.425l0,84.715c0,13.581 2.128,23.016 6.383,28.302c4.255,5.287 11.454,7.93 21.597,7.93c13.41,0 23.554,-3.933 30.431,-11.798c6.877,-7.865 10.315,-19.449 10.315,-34.75l0,-74.399l23.21,0l0,138.097l-22.178,0l0,-20.631c-4.814,7.994 -11.046,14.011 -18.697,18.052c-7.65,4.04 -16.633,6.06 -26.949,6.06c-9.627,0 -18.009,-1.633 -25.143,-4.9c-7.135,-3.266 -12.594,-7.908 -16.376,-13.926c-2.149,-3.352 -3.696,-7.285 -4.642,-11.798c-0.946,-4.513 -1.418,-11.669 -1.418,-21.469l0,-6.576l0,-82.909l23.467,0Z" style="fill:none;"/><path d="M1168.18,170.506c0,17.192 3.525,30.43 10.574,39.714c7.048,9.284 17.106,13.926 30.172,13.926c12.722,0 22.758,-4.513 30.108,-13.539c7.35,-9.026 11.024,-21.404 11.024,-37.135c0,-17.45 -3.545,-30.925 -10.637,-40.424c-7.092,-9.498 -17.171,-14.248 -30.237,-14.248c-13.668,0 -23.919,4.32 -30.753,12.959c-6.834,8.639 -10.251,21.555 -10.251,38.747Zm-21.92,70.016l0,-189.932l22.694,0l0,71.047c5.33,-7.822 11.755,-13.732 19.277,-17.73c7.521,-3.997 16.01,-5.995 25.466,-5.995c18.31,0 33.009,6.705 44.098,20.115c11.089,13.41 16.634,31.375 16.634,53.897c0,22.178 -5.481,39.865 -16.441,53.06c-10.96,13.195 -25.638,19.793 -44.033,19.793c-9.714,0 -18.203,-1.763 -25.466,-5.287c-7.264,-3.524 -13.776,-8.983 -19.535,-16.376l0,17.408l-22.694,0Z" style="fill:none;"/><path d="M189.803,224.92l36.749,0c14.356,0 24.843,-0.538 31.462,-1.612c6.619,-1.075 12.12,-2.901 16.504,-5.48c9.628,-5.76 16.806,-14.549 21.534,-26.369c4.728,-11.82 7.091,-27.056 7.091,-45.71c0,-17.794 -2.277,-32.601 -6.833,-44.42c-4.556,-11.82 -11.347,-20.696 -20.373,-26.627c-4.642,-3.094 -10.337,-5.287 -17.085,-6.576c-6.748,-1.289 -18.159,-1.934 -34.234,-1.934l-4.126,0l-30.689,0l0,158.728Zm27.207,-174.33l12.894,0c15.645,0 27.379,0.817 35.202,2.45c7.822,1.633 14.57,4.255 20.244,7.865c11.69,7.393 20.609,18.289 26.755,32.687c6.146,14.399 9.219,31.612 9.219,51.641c0,21.577 -3.352,39.715 -10.057,54.414c-6.705,14.699 -16.634,25.616 -29.786,32.751c-5.501,2.923 -12.249,5.007 -20.244,6.254c-7.994,1.246 -20.201,1.87 -36.619,1.87l-52.222,0l0,-189.932l44.614,0Z" style="fill-rule:nonzero;stroke:#2e2e2e;stroke-width:0.97px;stroke-linecap:butt;stroke-miterlimit:1.41421;"/><path d="M351.636,175.019l0,0.774c0,16.762 4.04,30.108 12.121,40.036c8.08,9.929 18.911,14.893 32.493,14.893c10.745,0 19.728,-2.901 26.949,-8.704c7.221,-5.802 11.605,-13.732 13.152,-23.789l15.86,0c-1.719,13.925 -7.737,25.079 -18.052,33.46c-10.315,8.381 -23.296,12.572 -38.941,12.572c-18.653,0 -33.267,-6.318 -43.84,-18.955c-10.573,-12.636 -15.86,-30.172 -15.86,-52.608c0,-22.866 5.308,-40.703 15.925,-53.511c10.616,-12.808 25.38,-19.212 44.291,-19.212c18.396,0 32.73,6.124 43.002,18.374c10.273,12.249 15.409,29.377 15.409,51.383l0,5.287l-102.509,0Zm0.258,-12.765l85.875,0.129c-0.687,-15.13 -4.792,-27.014 -12.314,-35.653c-7.521,-8.639 -17.514,-12.958 -29.979,-12.958c-12.55,0 -22.758,4.384 -30.623,13.152c-7.866,8.768 -12.185,20.544 -12.959,35.33Z" style="fill-rule:nonzero;stroke:#2e2e2e;stroke-width:0.97px;stroke-linecap:butt;stroke-miterlimit:1.41421;"/><path d="M506.377,240.522l-51.577,-137.066l17.149,0l43.84,117.724l43.067,-117.724l16.376,0l-51.19,137.066l-17.665,0Z" style="fill-rule:nonzero;stroke:#2e2e2e;stroke-width:0.97px;stroke-linecap:butt;stroke-miterlimit:1.41421;"/><path d="M585.042,74.444l0,-23.854l15.731,0l0,23.854l-15.731,0Zm0,166.078l0,-137.066l15.731,0l0,137.066l-15.731,0Z" style="fill-rule:nonzero;stroke:#2e2e2e;stroke-width:0.97px;stroke-linecap:butt;stroke-miterlimit:1.41421;"/><path d="M721.473,193.2l15.859,0c-1.461,15.731 -7.263,28.131 -17.407,37.2c-10.143,9.068 -23.338,13.603 -39.585,13.603c-18.568,0 -33.203,-6.361 -43.905,-19.083c-10.702,-12.723 -16.053,-30.044 -16.053,-51.964c0,-22.694 5.437,-40.531 16.311,-53.511c10.874,-12.98 25.767,-19.47 44.679,-19.47c15.387,0 28.044,4.319 37.973,12.958c9.929,8.64 15.28,20.008 16.053,34.106l-15.215,0c-1.289,-9.972 -5.48,-17.966 -12.572,-23.984c-7.092,-6.017 -15.838,-9.026 -26.239,-9.026c-13.668,0 -24.521,5.158 -32.558,15.473c-8.038,10.316 -12.056,24.328 -12.056,42.036c0,18.137 4.061,32.493 12.185,43.066c8.123,10.573 19.019,15.86 32.686,15.86c10.66,0 19.557,-3.309 26.691,-9.929c7.135,-6.619 11.519,-15.73 13.153,-27.335Z" style="fill-rule:nonzero;stroke:#2e2e2e;stroke-width:0.97px;stroke-linecap:butt;stroke-miterlimit:1.41421;"/><path d="M762.229,175.019l0,0.774c0,16.762 4.04,30.108 12.12,40.036c8.08,9.929 18.912,14.893 32.493,14.893c10.746,0 19.729,-2.901 26.949,-8.704c7.221,-5.802 11.605,-13.732 13.152,-23.789l15.86,0c-1.719,13.925 -7.736,25.079 -18.052,33.46c-10.315,8.381 -23.295,12.572 -38.94,12.572c-18.654,0 -33.267,-6.318 -43.84,-18.955c-10.574,-12.636 -15.86,-30.172 -15.86,-52.608c0,-22.866 5.308,-40.703 15.924,-53.511c10.616,-12.808 25.38,-19.212 44.292,-19.212c18.395,0 32.729,6.124 43.002,18.374c10.272,12.249 15.408,29.377 15.408,51.383l0,5.287l-102.508,0Zm0.257,-12.765l85.876,0.129c-0.688,-15.13 -4.793,-27.014 -12.314,-35.653c-7.522,-8.639 -17.515,-12.958 -29.979,-12.958c-12.551,0 -22.758,4.384 -30.624,13.152c-7.865,8.768 -12.185,20.544 -12.959,35.33Z" style="fill-rule:nonzero;stroke:#2e2e2e;stroke-width:0.97px;stroke-linecap:butt;stroke-miterlimit:1.41421;"/><path d="M968.938,240.522l0,-84.973c0,-13.668 -2.085,-23.081 -6.254,-28.239c-4.169,-5.157 -11.325,-7.736 -21.469,-7.736c-12.55,0 -22.521,3.546 -29.914,10.638c-7.393,7.091 -11.089,16.655 -11.089,28.689l0,81.621l-23.21,0l0,-189.932l23.21,0l0,71.305c4.212,-7.479 10.014,-13.174 17.407,-17.085c7.393,-3.911 16.032,-5.867 25.917,-5.867c10.402,0 19.17,1.569 26.305,4.707c7.134,3.137 12.636,7.844 16.504,14.119c2.149,3.352 3.697,7.285 4.642,11.798c0.946,4.513 1.418,11.669 1.418,21.469l0,89.486l-23.467,0Z" style="fill-rule:nonzero;stroke:#2e2e2e;stroke-width:0.97px;stroke-linecap:butt;stroke-miterlimit:1.41421;"/><path d="M1034.33,102.425l0,84.715c0,13.581 2.128,23.016 6.383,28.302c4.255,5.287 11.454,7.93 21.597,7.93c13.41,0 23.554,-3.933 30.431,-11.798c6.877,-7.865 10.315,-19.449 10.315,-34.75l0,-74.399l23.21,0l0,138.097l-22.178,0l0,-20.631c-4.814,7.994 -11.046,14.011 -18.697,18.052c-7.65,4.04 -16.633,6.06 -26.949,6.06c-9.627,0 -18.009,-1.633 -25.143,-4.9c-7.135,-3.266 -12.594,-7.908 -16.376,-13.926c-2.149,-3.352 -3.696,-7.285 -4.642,-11.798c-0.946,-4.513 -1.418,-11.669 -1.418,-21.469l0,-6.576l0,-82.909l23.467,0Z" style="fill-rule:nonzero;stroke:#2e2e2e;stroke-width:0.97px;stroke-linecap:butt;stroke-miterlimit:1.41421;"/><path d="M1168.18,170.506c0,17.192 3.525,30.43 10.574,39.714c7.048,9.284 17.106,13.926 30.172,13.926c12.722,0 22.758,-4.513 30.108,-13.539c7.35,-9.026 11.024,-21.404 11.024,-37.135c0,-17.45 -3.545,-30.925 -10.637,-40.424c-7.092,-9.498 -17.171,-14.248 -30.237,-14.248c-13.668,0 -23.919,4.32 -30.753,12.959c-6.834,8.639 -10.251,21.555 -10.251,38.747Zm-21.92,70.016l0,-189.932l22.694,0l0,71.047c5.33,-7.822 11.755,-13.732 19.277,-17.73c7.521,-3.997 16.01,-5.995 25.466,-5.995c18.31,0 33.009,6.705 44.098,20.115c11.089,13.41 16.634,31.375 16.634,53.897c0,22.178 -5.481,39.865 -16.441,53.06c-10.96,13.195 -25.638,19.793 -44.033,19.793c-9.714,0 -18.203,-1.763 -25.466,-5.287c-7.264,-3.524 -13.776,-8.983 -19.535,-16.376l0,17.408l-22.694,0Z" style="fill-rule:nonzero;stroke:#2e2e2e;stroke-width:0.97px;stroke-linecap:butt;stroke-miterlimit:1.41421;"/></g></g></svg>