<svg xmlns="http://www.w3.org/2000/svg" xmlns:xlink="http://www.w3.org/1999/xlink" version="1.1" x="0px" y="0px" viewBox="0 0 32 40" enable-background="new 0 0 32 32" xml:space="preserve"><g><g><path fill="#000000" d="M24.8,31.2H7.2c-0.4,0-0.8-0.3-0.8-0.8v-29c0-0.4,0.3-0.7,0.8-0.7h17.6c0.4,0,0.8,0.3,0.8,0.7v29    C25.6,30.9,25.2,31.2,24.8,31.2z M7.9,29.7H24V2.2H7.9V29.7z"/></g><g><rect x="10.1" y="4.6" fill="#000000" width="11.8" height="1.5"/></g><g><rect x="10.1" y="9.5" fill="#000000" width="11.8" height="1.5"/></g><g><path fill="#000000" d="M16,21.3c-1.5,0-2.8-1.2-2.8-2.8s1.2-2.8,2.8-2.8c1.5,0,2.8,1.2,2.8,2.8S17.5,21.3,16,21.3z M16,17.3    c-0.7,0-1.3,0.6-1.3,1.3s0.6,1.3,1.3,1.3c0.7,0,1.3-0.6,1.3-1.3S16.7,17.3,16,17.3z"/></g><g><rect x="15.1" y="22.6" fill="#000000" width="1.8" height="1.5"/></g></g><text x="0" y="47" fill="#000000" font-size="5px" font-weight="bold" font-family="'Helvetica Neue', Helvetica, Arial-Unicode, Arial, Sans-serif">Created by Creative Stall</text><text x="0" y="52" fill="#000000" font-size="5px" font-weight="bold" font-family="'Helvetica Neue', Helvetica, Arial-Unicode, Arial, Sans-serif">from the Noun Project</text></svg>