<?xml version="1.0" encoding="UTF-8" standalone="no"?><!DOCTYPE svg PUBLIC
    "-//W3C//DTD SVG 1.1//EN" "http://www.w3.org/Graphics/SVG/1.1/DTD/svg11.dtd">
<svg width="100%" height="100%" viewBox="0 0 1548 223" version="1.1"
     xmlns="http://www.w3.org/2000/svg" xmlns:xlink="http://www.w3.org/1999/xlink"
     xml:space="preserve" xmlns:serif="http://www.serif.com/"
     style="fill-rule:evenodd;clip-rule:evenodd;stroke-linejoin:round;stroke-miterlimit:1.41421;"><rect id="Artboard1" x="0" y="0" width="1548" height="222.043" style="fill:none;"/>
  <clipPath id="_clip1"><rect x="0" y="0" width="1548" height="222.043"/></clipPath>
  <g clip-path="url(#_clip1)"><g id="Logo-01" serif:id="Logo 01"><g><g transform="matrix(1.67706,0,0,1.67706,-1182.29,-718.208)">
    <path
        d="M733.45,558l-24.802,-95.389l12.627,0l19.493,76.285l20.139,-76.285l13.535,0l20.852,75.767l19.751,-75.767l12.304,0l-25.32,95.389l-12.758,0l-21.694,-78.616l-20.852,78.616l-13.275,0Z"
        style="fill:รง;fill-rule:nonzero;stroke:#2e2e2e;stroke-width:0.6px;"/><path
      d="M853.99,510.403c0,12.218 2.817,21.769 8.451,28.655c5.634,6.886 13.438,10.329 23.41,10.329c9.93,0 17.69,-3.443 23.281,-10.329c5.591,-6.886 8.386,-16.437 8.386,-28.655c0,-12.261 -2.795,-21.824 -8.386,-28.688c-5.591,-6.864 -13.351,-10.296 -23.281,-10.296c-9.972,0 -17.776,3.432 -23.41,10.296c-5.634,6.864 -8.451,16.427 -8.451,28.688Zm-13.404,0c0,-15.758 4.004,-28.073 12.012,-36.945c8.009,-8.871 19.093,-13.307 33.253,-13.307c14.118,0 25.159,4.425 33.124,13.275c7.965,8.85 11.948,21.176 11.948,36.977c0,15.758 -3.983,28.072 -11.948,36.944c-7.965,8.872 -19.006,13.308 -33.124,13.308c-14.16,0 -25.244,-4.436 -33.253,-13.308c-8.008,-8.872 -12.012,-21.186 -12.012,-36.944Z"
      style="fill:#2e2e2e;fill-rule:nonzero;stroke:#2e2e2e;stroke-width:0.6px;"/><path
      d="M966.566,473.815l0,32.314l22.147,0c7.987,0 13.632,-1.295 16.934,-3.886c3.303,-2.59 4.954,-6.907 4.954,-12.951c0,-5.656 -1.554,-9.649 -4.662,-11.98c-3.109,-2.332 -8.851,-3.497 -17.226,-3.497l-22.147,0Zm-12.693,-11.204l36.977,0c6.001,0 10.415,0.259 13.243,0.778c2.828,0.518 5.364,1.381 7.609,2.59c4.015,2.202 7.07,5.267 9.163,9.196c2.094,3.928 3.141,8.548 3.141,13.858c0,5.137 -1.101,9.53 -3.303,13.178c-2.201,3.648 -5.482,6.508 -9.843,8.58c3.713,1.037 6.357,2.785 7.933,5.246c1.576,2.461 2.558,6.627 2.947,12.498l1.1,15.736c0.216,3.368 0.659,5.882 1.328,7.545c0.669,1.662 1.673,2.838 3.011,3.529l0,2.655l-14.959,0c-1.209,-1.986 -2.05,-6.238 -2.525,-12.757l0,-0.389l-0.777,-12.433c-0.432,-6.39 -1.792,-10.534 -4.08,-12.434c-2.288,-1.9 -8.009,-2.849 -17.161,-2.849l-20.982,0l0,40.862l-12.822,0l0,-95.389Z"
      style="fill:#2e2e2e;fill-rule:nonzero;stroke:#2e2e2e;stroke-width:0.6px;"/><path
      d="M1050.76,558l0,-115.795l15.565,0l0,55.893l55.736,-55.893l20.91,0l-47.324,46.381l48.661,69.414l-19.496,0l-40.563,-58.094l-17.924,17.53l0,40.564l-15.565,0Z"
      style="fill:#2e2e2e;fill-rule:nonzero;stroke:#2e2e2e;stroke-width:0.6px;"/><path
      d="M1159.37,558l0,-95.389l38.467,0c9.886,0 17.301,1.943 22.244,5.829c4.943,3.885 7.415,9.692 7.415,17.42c0,4.964 -1.144,9.184 -3.432,12.66c-2.289,3.475 -5.699,6.141 -10.232,7.997c5.742,1.08 10.21,3.638 13.405,7.674c3.194,4.037 4.792,9.142 4.792,15.315c0,8.721 -2.893,15.65 -8.678,20.788c-5.785,5.137 -13.642,7.706 -23.572,7.706l-40.409,0Zm12.952,-55.303l22.73,0c6.692,0 11.613,-1.209 14.765,-3.627c3.151,-2.417 4.727,-6.195 4.727,-11.332c0,-4.836 -1.511,-8.419 -4.533,-10.75c-3.022,-2.332 -7.663,-3.497 -13.923,-3.497l-23.766,0l0,29.206Zm0,43.776l26.292,0c6.605,0 11.613,-1.457 15.024,-4.371c3.41,-2.914 5.115,-7.156 5.115,-12.725c0,-5.526 -1.737,-9.584 -5.213,-12.175c-3.475,-2.59 -8.947,-3.885 -16.416,-3.885l-24.802,0l0,33.156Z"
      style="fill:#2e2e2e;fill-rule:nonzero;stroke:#2e2e2e;stroke-width:0.6px;"/><path
      d="M1253.81,558l0,-95.389l67.996,0l0,11.851l-55.173,0l0,28.494l50.964,0l0,11.138l-50.964,0l0,31.991l56.274,0l0,11.915l-69.097,0Z"
      style="fill:#2e2e2e;fill-rule:nonzero;stroke:#2e2e2e;stroke-width:0.6px;"/><path
      d="M1345.08,558l0,-95.389l14.182,0l44.554,69.292c0.993,1.511 1.856,2.935 2.59,4.274c0.734,1.338 1.317,2.59 1.749,3.756l0,-77.322l12.368,0l0,95.389l-14.052,0l-45.525,-70.262c-0.691,-1.08 -1.327,-2.202 -1.91,-3.368c-0.583,-1.166 -1.134,-2.396 -1.652,-3.691l0,77.321l-12.304,0Z"
      style="fill:#2e2e2e;fill-rule:nonzero;stroke:#2e2e2e;stroke-width:0.6px;"/><path
      d="M1514.19,522.577l12.563,0c-0.561,11.614 -4.522,20.863 -11.883,27.749c-7.36,6.886 -16.869,10.329 -28.526,10.329c-13.426,0 -23.949,-4.576 -31.569,-13.729c-7.62,-9.152 -11.43,-21.823 -11.43,-38.013c0,-14.937 3.994,-26.799 11.98,-35.584c7.987,-8.786 18.759,-13.178 32.315,-13.178c10.793,0 19.632,2.784 26.518,8.353c6.886,5.57 10.869,13.168 11.948,22.795l-12.693,0c-1.208,-6.303 -4.079,-11.149 -8.612,-14.538c-4.534,-3.389 -10.427,-5.083 -17.679,-5.083c-9.671,0 -17.172,3.389 -22.504,10.167c-5.332,6.778 -7.997,16.34 -7.997,28.687c0,11.657 2.773,21.004 8.321,28.041c5.548,7.037 12.898,10.555 22.05,10.555c7.814,0 14.214,-2.428 19.201,-7.285c4.986,-4.857 7.652,-11.279 7.997,-19.266Z"
      style="fill:#2e2e2e;fill-rule:nonzero;stroke:#2e2e2e;stroke-width:0.6px;"/><path
      d="M1548.67,558l0,-95.389l12.951,0l0,39.179l49.475,0l0,-39.179l13.017,0l0,95.389l-13.017,0l0,-44.683l-49.475,0l0,44.683l-12.951,0Z"
      style="fill:#2e2e2e;fill-rule:nonzero;stroke:#2e2e2e;stroke-width:0.6px;"/></g><rect
      x="93.511" y="5.071" width="1107" height="18.424" style="fill:#2e2e2e;"/></g></g></g></svg>
