<?xml version="1.0" standalone="no"?>
<!DOCTYPE svg PUBLIC "-//W3C//DTD SVG 20010904//EN"
 "http://www.w3.org/TR/2001/REC-SVG-20010904/DTD/svg10.dtd">
<svg version="1.0" xmlns="http://www.w3.org/2000/svg"
 width="700.000000pt" height="700.000000pt" viewBox="0 0 700.000000 700.000000"
 preserveAspectRatio="xMidYMid meet">
<metadata>
Created by potrace 1.11, written by Peter Selinger 2001-2013
</metadata>
<g transform="translate(0.000000,700.000000) scale(0.100000,-0.100000)"
fill="#000000" stroke="none">
<path d="M3460 6900 c0 -6 -43 -10 -110 -10 -60 0 -110 -4 -110 -9 0 -4 -28
-11 -62 -15 -34 -3 -64 -10 -68 -15 -3 -5 -33 -13 -68 -17 -34 -3 -62 -11 -62
-15 0 -5 -20 -9 -45 -9 -25 0 -45 -4 -45 -9 0 -5 -18 -11 -40 -15 -22 -3 -40
-10 -40 -15 0 -5 -18 -11 -40 -15 -22 -3 -40 -11 -40 -16 0 -6 -18 -10 -40
-10 -29 0 -40 -4 -40 -15 0 -11 -11 -15 -40 -15 -22 0 -40 -4 -40 -10 0 -5
-11 -12 -25 -16 -14 -3 -25 -10 -25 -15 0 -5 -13 -9 -30 -9 -20 0 -30 -5 -30
-15 0 -9 -9 -15 -25 -15 -14 0 -25 -4 -25 -9 0 -5 -18 -11 -40 -15 -22 -3 -40
-11 -40 -16 0 -6 -11 -10 -25 -10 -16 0 -25 -6 -25 -15 0 -8 -7 -15 -15 -15
-8 0 -15 -4 -15 -9 0 -5 -13 -12 -30 -16 -17 -4 -30 -11 -30 -16 0 -5 -11 -11
-25 -15 -14 -3 -25 -10 -25 -15 0 -5 -9 -9 -20 -9 -12 0 -31 -11 -43 -24 -12
-13 -32 -26 -44 -30 -13 -4 -23 -12 -23 -17 0 -5 -7 -9 -15 -9 -8 0 -15 -7
-15 -15 0 -9 -9 -15 -25 -15 -14 0 -25 -4 -25 -10 0 -5 -7 -10 -15 -10 -8 0
-15 -7 -15 -15 0 -9 -9 -15 -25 -15 -16 0 -25 -6 -25 -15 0 -8 -7 -15 -15 -15
-8 0 -15 -4 -15 -10 0 -5 -7 -10 -15 -10 -8 0 -15 -7 -15 -15 0 -9 -9 -15 -25
-15 -16 0 -25 -6 -25 -15 0 -8 -5 -15 -11 -15 -6 0 -24 -13 -41 -30 -16 -16
-34 -30 -39 -30 -5 0 -31 -22 -58 -50 -27 -27 -52 -50 -56 -50 -11 0 -65 -57
-65 -69 0 -6 -11 -11 -25 -11 -16 0 -25 -6 -25 -15 0 -8 -7 -15 -15 -15 -8 0
-15 -7 -15 -15 0 -8 -5 -15 -11 -15 -14 0 -39 -25 -39 -39 0 -6 -7 -11 -15
-11 -8 0 -15 -7 -15 -15 0 -8 -7 -15 -15 -15 -8 0 -15 -5 -15 -11 0 -13 -25
-39 -38 -39 -5 0 -13 -11 -16 -25 -4 -14 -11 -25 -16 -25 -6 0 -10 -7 -10 -15
0 -8 -5 -15 -11 -15 -14 0 -69 -55 -69 -69 0 -6 -4 -11 -10 -11 -5 0 -10 -7
-10 -15 0 -8 -5 -15 -10 -15 -17 0 -50 -39 -50 -60 0 -11 -5 -20 -11 -20 -14
0 -39 -25 -39 -39 0 -6 -7 -11 -15 -11 -8 0 -15 -7 -15 -15 0 -8 -7 -15 -15
-15 -8 0 -15 -9 -15 -20 0 -12 -11 -31 -25 -44 -14 -13 -25 -33 -25 -45 0 -12
-6 -21 -15 -21 -8 0 -15 -7 -15 -15 0 -8 -4 -15 -10 -15 -5 0 -12 -11 -16 -25
-3 -14 -10 -25 -15 -25 -5 0 -9 -7 -9 -15 0 -8 -7 -15 -15 -15 -8 0 -15 -9
-15 -20 0 -12 -11 -31 -24 -43 -14 -13 -28 -35 -31 -50 -4 -15 -11 -27 -16
-27 -5 0 -9 -11 -9 -25 0 -14 -4 -25 -10 -25 -5 0 -12 -11 -16 -25 -3 -14 -10
-25 -14 -25 -4 0 -11 -11 -14 -25 -4 -14 -11 -25 -16 -25 -6 0 -10 -9 -10 -20
0 -11 -4 -20 -10 -20 -5 0 -12 -11 -16 -25 -3 -14 -10 -25 -15 -25 -5 0 -12
-18 -15 -40 -4 -22 -10 -40 -15 -40 -5 0 -9 -11 -9 -25 0 -16 -6 -25 -15 -25
-10 0 -15 -10 -15 -30 0 -16 -4 -30 -10 -30 -5 0 -12 -16 -16 -35 -3 -19 -10
-35 -15 -35 -5 0 -9 -13 -9 -30 0 -20 -5 -30 -15 -30 -11 0 -15 -11 -15 -40 0
-22 -4 -40 -10 -40 -5 0 -13 -18 -16 -40 -4 -22 -10 -40 -15 -40 -5 0 -9 -20
-9 -45 0 -33 -4 -45 -15 -45 -11 0 -15 -11 -15 -40 0 -22 -4 -40 -9 -40 -5 0
-12 -29 -16 -65 -3 -36 -10 -65 -15 -65 -5 0 -12 -25 -15 -55 -4 -30 -11 -55
-16 -55 -5 0 -9 -36 -9 -80 0 -44 -4 -80 -9 -80 -5 0 -12 -47 -16 -105 -4 -58
-11 -105 -16 -105 -5 0 -9 -126 -9 -295 0 -166 4 -295 9 -295 5 0 12 -49 16
-110 4 -60 11 -110 16 -110 5 0 9 -36 9 -80 0 -44 4 -80 9 -80 5 0 13 -25 16
-55 4 -30 11 -55 15 -55 5 0 12 -25 15 -55 4 -30 11 -55 16 -55 5 0 9 -18 9
-40 0 -29 4 -40 15 -40 11 0 15 -11 15 -40 0 -22 4 -40 9 -40 5 0 11 -18 15
-40 3 -22 11 -40 16 -40 6 0 10 -18 10 -40 0 -29 4 -40 15 -40 9 0 15 -9 15
-25 0 -14 5 -25 10 -25 6 0 10 -11 10 -25 0 -14 -4 -25 -10 -25 -5 0 -10 -9
-10 -20 0 -11 -7 -20 -15 -20 -8 0 -15 -9 -15 -20 0 -11 -4 -20 -9 -20 -5 0
-12 -13 -16 -30 -4 -16 -11 -30 -16 -30 -5 0 -9 -11 -9 -25 0 -16 -6 -25 -15
-25 -10 0 -15 -10 -15 -30 0 -16 -4 -30 -10 -30 -5 0 -12 -11 -16 -25 -3 -14
-12 -25 -20 -25 -8 0 -14 -7 -14 -15 0 -8 -4 -15 -10 -15 -5 0 -10 -13 -10
-30 0 -16 -4 -30 -10 -30 -5 0 -12 -11 -16 -25 -3 -14 -10 -25 -15 -25 -5 0
-9 -11 -9 -24 0 -14 -7 -31 -15 -40 -8 -8 -15 -26 -15 -40 0 -14 -4 -26 -9
-26 -5 0 -11 -18 -15 -40 -3 -22 -10 -40 -15 -40 -5 0 -11 -18 -15 -40 -3 -22
-11 -40 -16 -40 -6 0 -10 -18 -10 -40 0 -29 -4 -40 -15 -40 -10 0 -15 -10 -15
-30 0 -16 -4 -30 -9 -30 -5 0 -12 -22 -16 -50 -4 -27 -11 -50 -16 -50 -5 0 -9
-43 -9 -95 0 -52 4 -95 9 -95 5 0 11 -18 15 -40 3 -22 11 -40 16 -40 6 0 10
-7 10 -15 0 -8 7 -15 15 -15 11 0 15 11 15 40 0 22 4 40 10 40 5 0 13 18 16
40 4 22 10 40 14 40 4 0 10 18 14 40 3 22 11 40 16 40 6 0 10 18 10 40 0 22 4
40 9 40 5 0 12 13 16 30 4 16 11 30 15 30 5 0 12 16 16 35 3 19 10 35 15 35 5
0 9 14 9 30 0 20 5 30 15 30 8 0 15 7 15 15 0 8 4 15 9 15 5 0 12 11 15 25 4
14 11 25 16 25 6 0 10 14 10 30 0 20 5 30 15 30 9 0 15 9 15 25 0 14 4 25 10
25 5 0 12 11 16 25 3 14 10 25 15 25 5 0 9 7 9 15 0 8 7 15 15 15 8 0 15 7 15
15 0 8 4 15 10 15 5 0 12 11 16 25 3 14 10 25 15 25 5 0 9 7 9 15 0 8 7 15 15
15 9 0 15 9 15 25 0 16 6 25 15 25 8 0 15 7 15 15 0 8 5 15 11 15 14 0 39 25
39 39 0 6 7 11 15 11 8 0 15 5 15 11 0 7 16 26 35 45 19 18 35 37 35 43 0 6 4
11 10 11 13 0 50 37 50 50 0 6 7 10 15 10 8 0 15 5 15 10 0 6 5 10 11 10 14 0
39 25 39 39 0 6 7 11 15 11 11 0 15 12 15 45 0 33 -4 45 -15 45 -9 0 -15 9
-15 25 0 14 -4 25 -9 25 -5 0 -12 11 -15 25 -4 14 -11 25 -16 25 -6 0 -10 18
-10 40 0 29 -4 40 -15 40 -9 0 -15 9 -15 25 0 14 -4 25 -9 25 -5 0 -12 13 -16
30 -4 16 -11 30 -16 30 -5 0 -12 18 -15 40 -4 22 -10 40 -15 40 -5 0 -9 18 -9
40 0 22 -4 40 -9 40 -5 0 -11 18 -15 40 -3 22 -10 40 -15 40 -5 0 -12 20 -15
45 -4 25 -11 45 -17 45 -5 0 -9 23 -9 50 0 28 -4 50 -9 50 -4 0 -11 34 -14 77
-3 42 -10 79 -15 82 -5 3 -13 41 -17 84 -3 42 -11 77 -16 77 -13 0 -12 617 1
622 5 2 12 55 16 118 4 64 12 118 18 122 6 4 12 41 14 82 2 42 8 76 13 76 5 0
9 32 9 70 0 39 4 70 9 70 5 0 12 25 16 55 3 30 10 55 15 55 5 0 12 25 15 55 4
30 11 55 16 55 5 0 9 18 9 40 0 22 5 40 10 40 6 0 10 11 10 24 0 14 6 31 13
38 8 7 17 26 21 41 3 15 11 27 16 27 6 0 10 18 10 40 0 29 4 40 15 40 10 0 15
10 15 30 0 17 4 30 10 30 5 0 12 11 16 25 3 14 10 25 15 25 5 0 9 11 9 25 0
16 6 25 15 25 9 0 15 9 15 25 0 14 4 25 9 25 5 0 12 14 16 30 4 17 11 30 16
30 5 0 9 7 9 15 0 8 7 15 15 15 9 0 15 9 15 25 0 16 6 25 15 25 8 0 15 7 15
15 0 8 4 15 10 15 5 0 12 11 16 25 3 14 10 25 15 25 5 0 9 5 9 11 0 6 14 24
30 41 17 16 30 34 30 39 0 5 23 31 50 58 27 27 50 52 50 56 0 11 57 65 69 65
6 0 11 11 11 25 0 16 6 25 15 25 8 0 15 7 15 15 0 8 7 15 15 15 8 0 15 5 15
11 0 14 25 39 39 39 6 0 11 7 11 15 0 8 5 15 10 15 6 0 10 7 10 15 0 8 7 15
15 15 8 0 15 7 15 15 0 8 7 15 15 15 8 0 15 5 15 11 0 11 24 39 34 39 10 0 46
39 46 50 0 6 4 10 9 10 5 0 13 9 16 20 3 11 13 20 21 20 8 0 14 7 14 15 0 8 5
15 10 15 6 0 10 7 10 15 0 9 9 15 25 15 16 0 25 6 25 15 0 8 7 15 15 15 8 0
15 7 15 15 0 8 7 15 15 15 8 0 15 5 15 10 0 6 7 10 15 10 8 0 15 5 15 11 0 14
25 39 39 39 6 0 11 6 11 14 0 8 11 17 25 20 14 4 25 11 25 16 0 6 5 10 11 10
6 0 24 14 41 30 16 17 35 30 42 30 6 0 18 9 26 20 8 11 19 20 25 20 6 0 18 8
27 18 29 30 47 42 63 42 8 0 15 7 15 15 0 9 9 15 25 15 14 0 25 4 25 10 0 5
11 12 25 16 14 3 25 10 25 15 0 5 7 9 15 9 8 0 15 7 15 15 0 9 9 15 25 15 14
0 25 4 25 9 0 5 11 12 25 15 14 4 25 11 25 16 0 6 14 10 30 10 20 0 30 5 30
15 0 9 9 15 25 15 14 0 25 4 25 9 0 5 11 12 25 15 14 4 25 10 25 15 0 5 13 12
30 16 17 4 30 11 30 16 0 5 14 9 30 9 17 0 30 5 30 10 0 6 11 10 24 10 14 0
31 7 39 15 8 7 26 17 41 21 14 3 26 10 26 15 0 5 18 9 40 9 29 0 40 4 40 15 0
11 11 15 40 15 22 0 40 4 40 9 0 5 18 11 40 15 22 3 40 11 40 16 0 6 25 10 55
10 42 0 55 3 55 15 0 12 13 15 55 15 30 0 55 4 55 9 0 5 34 12 75 16 41 4 75
11 75 16 0 5 50 9 110 9 91 0 110 3 110 15 0 13 37 15 270 15 233 0 270 -2
270 -15 0 -12 17 -15 94 -15 53 0 96 -4 98 -10 2 -5 31 -13 66 -16 34 -4 62
-11 62 -15 0 -5 25 -9 55 -9 42 0 55 -3 55 -15 0 -11 11 -15 36 -15 19 0 42
-7 50 -15 9 -8 24 -15 35 -15 10 0 19 -4 19 -10 0 -5 11 -10 25 -10 16 0 25
-6 25 -15 0 -10 10 -15 34 -15 21 0 36 -6 40 -15 3 -8 12 -15 21 -15 8 0 15
-4 15 -10 0 -5 11 -12 25 -16 14 -3 25 -10 25 -15 0 -5 11 -9 25 -9 16 0 25
-6 25 -15 0 -8 7 -15 15 -15 8 0 15 -4 15 -9 0 -5 11 -12 25 -15 14 -4 25 -11
25 -16 0 -6 11 -10 25 -10 16 0 25 -6 25 -15 0 -8 7 -15 15 -15 8 0 15 -4 15
-9 0 -5 14 -12 30 -16 17 -4 30 -11 30 -16 0 -5 11 -9 25 -9 16 0 25 -6 25
-15 0 -8 9 -15 20 -15 12 0 31 -11 44 -25 13 -14 28 -25 35 -25 6 0 11 -7 11
-15 0 -9 9 -15 25 -15 16 0 25 -6 25 -15 0 -8 5 -15 11 -15 7 0 26 -16 45 -35
18 -19 37 -35 43 -35 6 0 11 -4 11 -10 0 -13 57 -70 70 -70 5 0 10 -4 10 -10
0 -5 9 -19 20 -30 11 -11 25 -20 30 -20 6 0 10 -6 10 -13 0 -7 9 -19 20 -27
11 -8 20 -20 20 -27 0 -7 7 -13 15 -13 8 0 15 -7 15 -15 0 -8 7 -15 15 -15 9
0 15 -9 15 -25 0 -14 5 -25 10 -25 6 0 10 -7 10 -15 0 -8 6 -15 14 -15 8 0 17
-11 20 -25 4 -14 11 -25 16 -25 6 0 10 -7 10 -15 0 -8 7 -15 15 -15 10 0 15
-10 15 -30 0 -16 4 -30 10 -30 5 0 12 -11 16 -25 3 -14 10 -25 15 -25 5 0 9
-11 9 -25 0 -16 6 -25 15 -25 9 0 15 -9 15 -25 0 -14 4 -25 9 -25 5 0 12 -13
16 -30 4 -16 11 -30 16 -30 5 0 9 -18 9 -40 0 -29 4 -40 15 -40 11 0 15 -11
15 -40 0 -22 4 -40 9 -40 5 0 11 -18 15 -40 3 -22 11 -40 16 -40 6 0 10 -25
10 -55 0 -42 3 -55 15 -55 12 0 15 -14 15 -65 0 -36 4 -65 9 -65 4 0 11 -19
14 -42 3 -24 11 -44 16 -46 6 -2 11 -14 11 -27 0 -13 7 -30 15 -39 8 -8 15
-32 15 -55 0 -23 4 -41 9 -41 4 0 11 -23 14 -52 4 -28 11 -54 16 -57 5 -3 12
-34 16 -68 4 -35 11 -63 16 -63 5 0 9 -49 9 -110 0 -67 4 -110 10 -110 6 0 10
-78 10 -215 0 -137 -4 -215 -10 -215 -6 0 -10 -32 -10 -75 0 -41 -4 -75 -9
-75 -5 0 -12 -13 -16 -30 -4 -16 -10 -30 -15 -30 -4 0 -11 -11 -14 -25 -4 -14
-11 -25 -16 -25 -6 0 -10 -11 -10 -25 0 -14 -4 -25 -10 -25 -5 0 -10 -6 -10
-13 0 -7 -9 -20 -20 -30 -11 -9 -20 -24 -20 -32 0 -8 -4 -15 -10 -15 -5 0 -10
-11 -10 -25 0 -16 -6 -25 -15 -25 -11 0 -15 -11 -15 -40 0 -22 -4 -40 -9 -40
-5 0 -12 -14 -16 -30 -4 -17 -11 -30 -16 -30 -5 0 -9 -11 -9 -25 0 -16 -6 -25
-15 -25 -9 0 -15 -9 -15 -25 0 -14 -4 -25 -10 -25 -5 0 -10 -7 -10 -15 0 -8
-7 -15 -15 -15 -9 0 -15 -9 -15 -25 0 -16 -6 -25 -15 -25 -8 0 -15 -7 -15 -15
0 -8 -4 -15 -10 -15 -5 0 -12 -11 -16 -25 -3 -14 -10 -25 -15 -25 -5 0 -9 -7
-9 -15 0 -8 -7 -15 -15 -15 -8 0 -15 -7 -15 -15 0 -8 -5 -15 -11 -15 -14 0
-69 -55 -69 -69 0 -6 -5 -11 -11 -11 -7 0 -22 -11 -35 -25 -13 -14 -30 -25
-39 -25 -8 0 -15 -7 -15 -15 0 -8 -9 -15 -20 -15 -11 0 -20 -4 -20 -9 0 -5
-10 -13 -22 -17 -13 -4 -33 -17 -45 -30 -12 -13 -31 -24 -43 -24 -11 0 -20 -4
-20 -9 0 -5 -11 -12 -25 -15 -14 -4 -25 -10 -25 -15 0 -5 -13 -12 -30 -16 -16
-4 -30 -11 -30 -16 0 -5 -18 -9 -40 -9 -29 0 -40 -4 -40 -15 0 -11 -11 -15
-40 -15 -22 0 -40 -4 -40 -9 0 -5 -25 -13 -55 -16 -30 -4 -55 -11 -55 -16 0
-5 -29 -9 -65 -9 -51 0 -65 -3 -65 -15 0 -13 -44 -15 -335 -15 -291 0 -335 2
-335 15 0 13 -32 15 -230 15 -198 0 -230 -2 -230 -15 0 -12 -16 -15 -80 -15
-44 0 -80 -4 -80 -9 0 -4 -39 -11 -87 -15 -49 -3 -89 -11 -91 -16 -2 -6 -47
-10 -103 -10 -81 0 -99 -3 -99 -15 0 -12 -18 -15 -105 -15 -58 0 -105 -4 -105
-9 0 -4 -42 -11 -92 -15 -51 -4 -95 -11 -98 -15 -3 -4 -50 -11 -105 -15 -55
-4 -101 -11 -103 -16 -2 -6 -42 -10 -88 -10 -46 0 -84 -4 -84 -9 0 -4 -35 -11
-77 -15 -42 -3 -79 -10 -82 -15 -3 -4 -37 -11 -76 -14 -38 -4 -71 -11 -73 -17
-2 -5 -28 -10 -58 -10 -30 0 -54 -4 -54 -9 0 -5 -23 -11 -51 -13 -28 -3 -54
-10 -58 -15 -3 -6 -28 -13 -56 -16 -27 -3 -51 -10 -53 -16 -2 -6 -21 -11 -43
-11 -28 0 -39 -4 -39 -15 0 -11 -12 -15 -50 -15 -27 0 -50 -4 -50 -10 0 -5
-13 -10 -29 -10 -16 0 -36 -7 -45 -15 -8 -8 -26 -15 -40 -15 -16 0 -26 -6 -26
-15 0 -11 -11 -15 -40 -15 -22 0 -40 -4 -40 -9 0 -5 -13 -12 -30 -16 -17 -4
-30 -11 -30 -16 0 -5 -11 -9 -25 -9 -16 0 -25 -6 -25 -15 0 -9 -9 -15 -25 -15
-14 0 -25 -4 -25 -9 0 -5 -14 -12 -30 -16 -17 -4 -30 -10 -30 -15 0 -4 -11
-11 -25 -14 -24 -6 -37 -46 -15 -46 6 0 10 -6 10 -13 0 -14 35 -47 50 -47 6 0
10 -7 10 -15 0 -8 7 -15 15 -15 8 0 15 -5 15 -11 0 -14 25 -39 39 -39 6 0 11
-7 11 -15 0 -8 7 -15 15 -15 8 0 15 -5 15 -11 0 -14 25 -39 39 -39 6 0 11 -7
11 -15 0 -8 7 -15 15 -15 8 0 15 -4 15 -9 0 -5 10 -13 21 -16 12 -4 36 -22 54
-41 18 -19 37 -34 42 -34 11 0 43 -37 43 -50 0 -6 9 -10 20 -10 12 0 31 -11
43 -24 12 -13 32 -26 45 -30 12 -4 22 -12 22 -17 0 -5 14 -9 30 -9 20 0 30 -5
30 -15 0 -8 7 -15 15 -15 8 0 15 -4 15 -10 0 -5 11 -12 25 -16 14 -3 25 -10
25 -15 0 -5 7 -9 15 -9 8 0 15 -7 15 -15 0 -9 9 -15 25 -15 14 0 25 -4 25 -9
0 -5 14 -12 30 -16 17 -4 30 -11 30 -16 0 -5 11 -11 25 -15 14 -3 25 -10 25
-15 0 -5 18 -9 40 -9 29 0 40 -4 40 -15 0 -9 9 -15 25 -15 14 0 25 -4 25 -9 0
-5 11 -12 25 -15 14 -4 25 -11 25 -16 0 -6 14 -10 30 -10 17 0 30 -4 30 -9 0
-5 18 -11 40 -15 22 -3 40 -10 40 -15 0 -5 18 -11 40 -15 22 -3 40 -11 40 -16
0 -6 18 -10 40 -10 29 0 40 -4 40 -15 0 -12 13 -15 55 -15 30 0 55 -4 55 -9 0
-5 25 -13 55 -16 30 -4 55 -11 55 -16 0 -5 29 -9 65 -9 51 0 65 -3 65 -15 0
-12 17 -15 94 -15 52 0 96 -4 98 -10 2 -5 60 -13 131 -16 70 -4 127 -11 127
-16 0 -4 25 -8 55 -8 30 0 55 4 55 9 0 5 102 10 227 13 166 3 228 7 231 16 2
8 36 12 113 12 90 0 109 3 109 15 0 12 14 15 65 15 36 0 65 4 65 9 0 5 23 11
50 15 28 4 50 11 50 16 0 6 25 10 55 10 42 0 55 3 55 15 0 11 12 15 45 15 25
0 45 4 45 9 0 5 18 11 40 15 22 3 40 11 40 16 0 6 11 10 24 10 14 0 31 7 40
15 8 8 26 15 40 15 14 0 26 4 26 9 0 11 66 22 86 14 22 -8 17 -43 -6 -43 -11
0 -23 -6 -26 -14 -3 -8 -16 -17 -30 -20 -13 -4 -24 -11 -24 -16 0 -6 -13 -10
-30 -10 -20 0 -30 -5 -30 -15 0 -9 -9 -15 -25 -15 -14 0 -25 -4 -25 -10 0 -5
-11 -10 -25 -10 -16 0 -25 -6 -25 -15 0 -11 -11 -15 -40 -15 -29 0 -40 -4 -40
-15 0 -9 -9 -15 -25 -15 -14 0 -25 -4 -25 -9 0 -5 -13 -12 -30 -16 -16 -4 -30
-11 -30 -16 0 -5 -13 -9 -30 -9 -20 0 -30 -5 -30 -15 0 -10 -11 -15 -35 -15
-19 0 -35 -4 -35 -9 0 -5 -13 -12 -30 -16 -16 -4 -30 -10 -30 -15 0 -4 -18
-10 -40 -14 -22 -3 -40 -11 -40 -16 0 -6 -18 -10 -40 -10 -22 0 -40 -4 -40
-10 0 -5 -6 -10 -14 -10 -8 0 -21 -6 -28 -14 -8 -7 -38 -17 -66 -21 -29 -4
-52 -11 -52 -16 0 -5 -18 -9 -40 -9 -22 0 -40 -4 -40 -9 0 -5 -25 -12 -55 -16
-30 -3 -55 -10 -55 -14 0 -5 -28 -11 -62 -15 -35 -3 -64 -11 -66 -16 -2 -6
-39 -10 -83 -10 -64 0 -79 -3 -79 -15 0 -13 -24 -15 -160 -15 -100 0 -160 -4
-160 -10 0 -6 -27 -10 -60 -10 -33 0 -60 4 -60 10 0 6 -55 10 -145 10 -122 0
-145 2 -145 15 0 12 -13 15 -55 15 -30 0 -55 4 -55 9 0 5 -25 13 -55 16 -30 4
-55 11 -55 15 0 5 -22 11 -50 15 -27 4 -50 11 -50 16 0 5 -12 9 -26 9 -14 0
-32 7 -40 15 -9 8 -26 15 -40 15 -13 0 -24 4 -24 9 0 5 -13 12 -30 16 -16 4
-30 11 -30 16 0 5 -18 9 -40 9 -22 0 -40 4 -40 9 0 5 -10 13 -22 16 -11 4 -31
18 -43 31 -13 14 -34 24 -49 24 -16 0 -26 5 -26 15 0 8 -9 15 -20 15 -11 0
-20 4 -20 9 0 5 -14 12 -30 16 -17 4 -30 11 -30 16 0 5 -7 9 -15 9 -8 0 -15 7
-15 15 0 9 -9 15 -25 15 -14 0 -25 5 -25 10 0 6 -7 10 -15 10 -8 0 -15 7 -15
15 0 9 -9 15 -25 15 -16 0 -25 6 -25 15 0 8 -5 15 -11 15 -6 0 -24 14 -41 30
-16 17 -35 30 -42 30 -6 0 -18 9 -26 20 -8 11 -19 20 -25 20 -13 0 -45 36 -45
50 0 6 -7 10 -15 10 -8 0 -15 4 -15 10 0 5 -11 12 -25 16 -14 3 -25 12 -25 20
0 8 -5 14 -11 14 -14 0 -39 25 -39 39 0 6 -7 11 -15 11 -8 0 -15 7 -15 15 0 8
-5 15 -11 15 -14 0 -39 25 -39 39 0 6 -7 11 -15 11 -8 0 -15 7 -15 15 0 8 -7
15 -15 15 -9 0 -15 9 -15 25 0 14 -4 25 -10 25 -13 0 -50 32 -50 43 0 5 -15
24 -34 42 -19 18 -37 42 -41 54 -3 11 -11 21 -16 21 -5 0 -9 5 -9 11 0 6 -13
24 -30 41 -17 16 -30 36 -30 44 0 8 -4 14 -10 14 -5 0 -10 7 -10 15 0 20 -54
20 -74 0 -8 -8 -19 -15 -25 -15 -6 0 -11 -7 -11 -15 0 -8 -5 -15 -11 -15 -14
0 -39 -25 -39 -39 0 -6 -7 -11 -15 -11 -8 0 -15 -7 -15 -15 0 -8 -4 -15 -10
-15 -5 0 -12 -11 -16 -25 -3 -14 -10 -25 -15 -25 -5 0 -9 -11 -9 -25 0 -16 -6
-25 -15 -25 -8 0 -15 -9 -15 -20 0 -11 -4 -20 -10 -20 -5 0 -12 -11 -16 -25
-3 -14 -10 -25 -14 -25 -4 0 -11 -11 -14 -25 -4 -14 -11 -25 -16 -25 -6 0 -10
-12 -10 -26 0 -14 -7 -32 -15 -40 -8 -9 -15 -26 -15 -40 0 -13 -4 -24 -9 -24
-5 0 -12 -13 -16 -30 -4 -16 -11 -30 -16 -30 -5 0 -9 -18 -9 -40 0 -22 -4 -40
-10 -40 -5 0 -13 -12 -16 -27 -4 -15 -13 -34 -21 -41 -7 -7 -13 -24 -13 -38 0
-13 -4 -24 -10 -24 -5 0 -10 -13 -10 -30 0 -20 -5 -30 -15 -30 -11 0 -15 -11
-15 -40 0 -22 -4 -40 -9 -40 -5 0 -11 -18 -15 -40 -3 -22 -11 -40 -16 -40 -6
0 -10 -22 -10 -50 0 -38 -4 -50 -15 -50 -11 0 -15 -12 -15 -45 0 -25 -4 -45
-10 -45 -5 0 -12 -17 -16 -37 -4 -21 -11 -41 -17 -44 -5 -4 0 -16 12 -28 17
-17 33 -21 81 -21 33 0 60 4 60 9 0 5 23 11 50 15 28 4 50 11 50 16 0 6 14 10
30 10 20 0 30 5 30 15 0 8 7 15 15 15 8 0 15 4 15 10 0 5 11 12 25 16 14 3 25
10 25 15 0 5 7 9 15 9 9 0 15 9 15 24 0 13 7 26 15 30 8 3 15 12 15 21 0 8 5
15 10 15 6 0 10 11 10 25 0 16 6 25 15 25 9 0 15 9 15 25 0 14 4 25 9 25 5 0
11 18 15 40 3 22 11 40 16 40 6 0 10 18 10 40 0 29 4 40 15 40 10 0 15 10 15
30 0 17 4 30 9 30 5 0 11 18 15 40 3 22 11 40 16 40 6 0 10 6 10 13 0 6 4 18
9 26 7 11 19 5 55 -32 25 -25 46 -50 46 -56 0 -6 7 -11 15 -11 8 0 15 -4 15
-10 0 -5 6 -10 13 -10 18 0 57 -34 57 -49 0 -6 5 -11 10 -11 6 0 21 -11 34
-25 13 -14 28 -25 35 -25 6 0 11 -7 11 -15 0 -8 7 -15 15 -15 8 0 15 -4 15 -9
0 -5 10 -13 23 -17 12 -4 32 -17 44 -30 12 -13 31 -24 43 -24 11 0 20 -7 20
-15 0 -8 5 -15 11 -15 7 0 22 -11 35 -25 13 -14 32 -25 44 -25 11 0 20 -4 20
-9 0 -5 10 -13 22 -17 12 -3 28 -13 36 -20 7 -8 20 -14 28 -14 8 0 14 -4 14
-10 0 -5 7 -10 15 -10 8 0 15 -7 15 -15 0 -10 10 -15 30 -15 17 0 30 -4 30
-10 0 -5 11 -12 25 -16 14 -3 25 -10 25 -15 0 -5 11 -9 25 -9 16 0 25 -6 25
-15 0 -10 10 -15 30 -15 17 0 30 -4 30 -10 0 -5 11 -10 24 -10 14 0 31 -6 38
-13 7 -8 26 -17 41 -21 15 -3 27 -11 27 -16 0 -6 18 -10 40 -10 22 0 40 -4 40
-10 0 -5 18 -13 40 -16 22 -4 40 -10 40 -15 0 -4 25 -11 55 -14 30 -4 55 -11
55 -16 0 -5 18 -9 39 -9 22 0 41 -4 43 -10 2 -5 31 -13 65 -16 35 -4 63 -10
63 -15 0 -4 32 -11 70 -15 39 -3 70 -11 70 -15 0 -5 54 -9 120 -9 100 0 120
-2 120 -15 0 -13 39 -15 295 -15 256 0 295 2 295 15 0 12 17 15 95 15 52 0 95
4 95 9 0 4 42 11 92 15 51 4 95 11 98 15 3 5 33 12 68 16 34 4 62 11 62 16 0
5 25 9 55 9 30 0 55 4 55 9 0 4 28 11 62 15 34 3 65 11 68 17 4 6 26 13 49 16
22 3 41 10 41 14 0 5 18 9 40 9 22 0 40 4 40 9 0 5 18 11 40 15 22 3 40 10 40
15 0 5 18 11 40 15 22 3 40 11 40 16 0 6 23 10 50 10 38 0 50 4 50 15 0 9 9
15 25 15 14 0 25 5 25 10 0 6 9 10 19 10 11 0 26 7 35 15 8 8 31 15 50 15 25
0 36 4 36 15 0 10 10 15 30 15 17 0 30 5 30 10 0 6 11 10 24 10 14 0 31 7 39
15 8 7 26 17 41 21 14 3 26 10 26 15 0 5 11 9 25 9 14 0 25 5 25 10 0 6 11 10
25 10 14 0 25 -4 25 -10 0 -5 9 -10 19 -10 11 0 21 -5 23 -11 5 -15 121 -15
126 0 2 6 21 11 43 11 21 0 39 4 39 10 0 5 11 12 25 16 14 3 25 10 25 15 0 5
7 9 15 9 8 0 15 7 15 15 0 9 9 15 25 15 14 0 25 4 25 9 0 5 11 12 25 15 14 4
25 11 25 16 0 6 7 10 15 10 9 0 18 7 21 15 4 8 17 15 30 15 15 0 24 6 24 15 0
9 9 15 25 15 14 0 25 4 25 10 0 5 11 12 25 16 14 3 25 10 25 15 0 5 7 9 15 9
8 0 15 7 15 15 0 9 9 15 25 15 14 0 25 4 25 9 0 5 14 12 30 16 17 4 30 11 30
16 0 5 7 9 15 9 8 0 15 7 15 15 0 9 9 15 25 15 14 0 25 4 25 10 0 5 11 12 25
16 14 3 25 10 25 15 0 5 7 9 15 9 8 0 15 7 15 15 0 9 10 15 26 15 14 0 32 6
39 12 34 30 45 38 55 38 6 0 13 7 16 15 4 8 17 15 30 15 13 0 24 5 24 10 0 6
6 10 14 10 8 0 21 6 28 14 8 7 24 17 36 20 12 4 22 12 22 17 0 5 7 9 15 9 8 0
15 7 15 15 0 9 9 15 25 15 14 0 25 4 25 9 0 5 14 12 30 16 17 4 30 11 30 16 0
5 7 9 15 9 8 0 15 7 15 15 0 9 9 15 25 15 14 0 25 4 25 9 0 5 9 13 21 16 29 9
64 46 52 54 -6 3 -14 17 -18 31 -4 13 -14 30 -21 38 -8 7 -14 20 -14 28 0 8
-4 14 -10 14 -5 0 -10 11 -10 25 0 14 -4 25 -9 25 -5 0 -12 11 -15 25 -4 14
-11 25 -16 25 -6 0 -10 7 -10 15 0 8 -7 15 -15 15 -10 0 -15 10 -15 30 0 20
-5 30 -15 30 -9 0 -15 9 -15 25 0 14 -4 25 -9 25 -5 0 -12 11 -15 25 -4 14
-11 25 -16 25 -6 0 -10 11 -10 25 0 16 -6 25 -15 25 -10 0 -15 10 -15 30 0 20
-5 30 -15 30 -8 0 -15 7 -15 15 0 8 -4 15 -10 15 -5 0 -10 11 -10 25 0 16 -6
25 -15 25 -10 0 -15 10 -15 30 0 17 -4 30 -9 30 -5 0 -13 10 -17 22 -3 12 -13
28 -20 36 -8 7 -14 20 -14 28 0 8 -4 14 -10 14 -5 0 -10 7 -10 15 0 8 -4 15
-9 15 -5 0 -12 13 -16 30 -4 16 -11 30 -16 30 -5 0 -11 11 -15 25 -3 14 -10
25 -15 25 -5 0 -9 11 -9 25 0 23 -4 25 -40 25 -22 0 -40 -4 -40 -10 0 -5 -6
-10 -14 -10 -8 0 -28 -13 -44 -30 -17 -16 -40 -30 -51 -30 -12 0 -21 -4 -21
-9 0 -5 -13 -12 -30 -16 -16 -4 -30 -13 -30 -21 0 -8 -7 -14 -15 -14 -8 0 -15
-4 -15 -10 0 -5 -11 -10 -25 -10 -14 0 -25 -4 -25 -10 0 -5 -11 -12 -25 -16
-14 -3 -25 -10 -25 -15 0 -5 -7 -9 -15 -9 -8 0 -15 -7 -15 -15 0 -10 -10 -15
-30 -15 -20 0 -30 -5 -30 -15 0 -8 -9 -15 -20 -15 -11 0 -20 -4 -20 -10 0 -5
-7 -10 -15 -10 -9 0 -18 -7 -21 -15 -4 -8 -17 -15 -30 -15 -15 0 -24 -6 -24
-15 0 -9 -9 -15 -25 -15 -14 0 -25 -4 -25 -10 0 -5 -7 -10 -15 -10 -8 0 -15
-7 -15 -15 0 -9 -9 -15 -25 -15 -16 0 -25 -6 -25 -15 0 -9 -9 -15 -25 -15 -14
0 -25 -4 -25 -10 0 -5 -6 -10 -13 -10 -7 0 -20 -9 -30 -20 -9 -11 -24 -20 -32
-20 -8 0 -15 -4 -15 -10 0 -5 -11 -10 -25 -10 -14 0 -25 -4 -25 -9 0 -5 -10
-13 -22 -16 -11 -4 -31 -18 -43 -31 -12 -13 -32 -24 -44 -24 -12 0 -21 -6 -21
-15 0 -10 -10 -15 -30 -15 -20 0 -30 -5 -30 -15 0 -8 -7 -15 -15 -15 -8 0 -15
-4 -15 -10 0 -5 -11 -10 -25 -10 -16 0 -25 -6 -25 -15 0 -8 -9 -15 -20 -15
-12 0 -31 -11 -44 -25 -13 -14 -33 -25 -45 -25 -12 0 -21 -6 -21 -15 0 -8 -4
-15 -10 -15 -15 0 -50 -33 -50 -47 0 -7 -4 -13 -10 -13 -5 0 -12 -11 -16 -25
-3 -14 -10 -25 -15 -25 -5 0 -9 -5 -9 -11 0 -19 -28 -39 -54 -39 -14 0 -26 -4
-26 -10 0 -5 -18 -13 -40 -16 -22 -4 -40 -10 -40 -14 0 -5 -13 -11 -30 -15
-16 -4 -30 -11 -30 -16 0 -5 -16 -9 -35 -9 -24 0 -35 -5 -35 -15 0 -10 -10
-15 -30 -15 -16 0 -30 -4 -30 -9 0 -5 -18 -11 -40 -15 -22 -3 -40 -11 -40 -16
0 -6 -18 -10 -40 -10 -29 0 -40 -4 -40 -15 0 -11 -11 -15 -40 -15 -22 0 -40
-4 -40 -9 0 -5 -25 -13 -55 -16 -30 -4 -55 -11 -55 -15 0 -5 -25 -12 -55 -15
-30 -4 -55 -11 -55 -16 0 -5 -25 -9 -55 -9 -30 0 -55 -4 -55 -9 0 -5 -36 -13
-80 -17 -44 -3 -80 -10 -80 -14 0 -5 -47 -11 -105 -15 -58 -4 -105 -11 -105
-16 0 -5 -101 -9 -225 -9 -124 0 -225 4 -225 8 0 5 -48 12 -107 16 -59 3 -109
10 -113 15 -3 5 -33 13 -68 17 -34 3 -62 11 -62 15 0 5 -20 9 -45 9 -25 0 -45
4 -45 9 0 5 -22 12 -50 16 -27 4 -50 11 -50 15 0 5 -13 11 -30 15 -16 4 -30
11 -30 16 0 5 -18 9 -40 9 -29 0 -40 4 -40 15 0 9 -9 15 -25 15 -14 0 -25 4
-25 9 0 5 -11 12 -25 15 -14 4 -25 11 -25 16 0 6 -13 10 -30 10 -20 0 -30 5
-30 15 0 8 -9 15 -20 15 -12 0 -31 11 -43 24 -12 13 -32 26 -44 30 -13 4 -23
12 -23 17 0 5 -7 9 -15 9 -8 0 -15 4 -15 9 0 5 -10 13 -22 16 -11 4 -31 18
-43 31 -12 13 -27 24 -34 24 -6 0 -11 4 -11 10 0 5 -11 12 -25 16 -14 3 -25
12 -25 20 0 8 -5 14 -11 14 -14 0 -39 25 -39 39 0 6 -7 11 -15 11 -8 0 -15 7
-15 15 0 8 -5 15 -11 15 -14 0 -39 25 -39 39 0 6 -4 11 -10 11 -13 0 -70 57
-70 70 0 5 -7 10 -15 10 -10 0 -15 10 -15 30 0 20 5 30 15 30 8 0 15 5 15 10
0 6 9 10 20 10 11 0 20 4 20 9 0 5 13 12 30 16 17 4 30 10 30 15 0 5 13 11 30
15 16 4 30 11 30 16 0 5 16 9 35 9 24 0 35 5 35 15 0 11 11 15 40 15 22 0 40
4 40 9 0 4 19 11 42 14 24 3 44 11 46 16 2 7 36 11 83 11 64 0 79 3 79 15 0
12 20 15 119 15 71 0 121 4 123 10 2 6 120 13 311 17 169 3 307 10 307 15 0 4
162 8 360 8 313 0 360 2 360 15 0 13 22 15 135 15 74 0 135 4 135 8 0 5 48 12
107 16 59 3 109 10 112 15 3 5 41 12 84 16 42 4 77 11 77 16 0 5 36 9 79 9 44
0 81 4 83 10 2 5 31 13 66 16 34 4 62 10 62 15 0 4 25 11 55 14 30 4 55 11 55
16 0 5 23 9 50 9 28 0 50 4 50 9 0 4 19 11 41 14 23 3 45 10 48 15 3 5 23 12
44 16 20 4 37 11 37 16 0 6 18 10 40 10 29 0 40 4 40 15 0 11 11 15 40 15 22
0 40 4 40 9 0 5 18 11 40 15 22 3 40 11 40 16 0 6 14 10 30 10 20 0 30 5 30
15 0 10 11 15 35 15 19 0 35 4 35 9 0 5 14 12 30 16 17 4 30 11 30 16 0 5 11
9 25 9 16 0 25 6 25 15 0 9 9 15 25 15 14 0 25 4 25 9 0 5 12 12 27 16 15 3
37 17 50 31 12 13 31 24 43 24 11 0 20 4 20 9 0 5 10 13 22 16 11 4 31 18 43
31 12 13 32 24 44 24 12 0 21 6 21 15 0 8 7 15 15 15 8 0 15 4 15 9 0 5 11 12
25 15 14 4 25 11 25 16 0 6 7 10 15 10 8 0 15 7 15 15 0 8 5 15 11 15 14 0 69
55 69 69 0 6 9 11 20 11 19 0 170 142 170 160 0 6 18 27 40 49 22 21 40 44 40
50 0 6 7 11 15 11 9 0 15 9 15 25 0 16 6 25 15 25 8 0 15 7 15 15 0 8 5 15 10
15 6 0 10 11 10 25 0 16 6 25 15 25 8 0 15 7 15 15 0 8 4 15 10 15 5 0 12 11
16 25 3 14 10 25 15 25 5 0 9 11 9 25 0 16 6 25 15 25 10 0 15 10 15 30 0 17
4 30 9 30 5 0 12 11 15 25 4 14 10 25 15 25 5 0 12 13 16 30 4 16 11 30 16 30
5 0 9 18 9 40 0 22 4 40 9 40 5 0 11 18 15 40 3 22 10 40 15 40 5 0 12 25 16
55 3 30 11 55 16 55 5 0 9 41 9 90 0 53 4 90 10 90 6 0 10 75 10 205 0 130 -4
205 -10 205 -6 0 -10 38 -10 95 0 52 -4 95 -9 95 -5 0 -12 23 -16 50 -4 28
-10 50 -15 50 -4 0 -11 25 -15 55 -3 30 -11 55 -16 55 -5 0 -9 18 -9 40 0 22
-4 40 -9 40 -5 0 -12 14 -16 30 -4 17 -10 30 -15 30 -4 0 -10 18 -14 40 -3 22
-11 40 -16 40 -6 0 -10 11 -10 25 0 16 -6 25 -15 25 -10 0 -15 10 -15 30 0 17
-4 30 -9 30 -5 0 -12 11 -15 25 -4 14 -11 25 -16 25 -6 0 -10 14 -10 30 0 20
-5 30 -15 30 -9 0 -15 9 -15 25 0 14 -4 25 -9 25 -5 0 -12 11 -15 25 -4 14
-11 25 -16 25 -6 0 -10 7 -10 15 0 8 -7 15 -15 15 -9 0 -15 9 -15 25 0 14 -4
25 -10 25 -5 0 -10 6 -10 14 0 8 -13 28 -30 44 -16 17 -30 38 -30 47 0 9 -11
26 -25 39 -14 13 -25 28 -25 35 0 6 -7 11 -15 11 -8 0 -15 7 -15 15 0 8 -4 15
-9 15 -5 0 -12 11 -15 25 -4 14 -13 25 -21 25 -8 0 -15 7 -15 15 0 8 -4 15
-10 15 -5 0 -10 7 -10 15 0 8 -5 15 -11 15 -14 0 -39 25 -39 39 0 6 -7 11 -15
11 -8 0 -15 7 -15 15 0 8 -7 15 -15 15 -9 0 -15 9 -15 25 0 14 -5 25 -11 25
-14 0 -39 25 -39 39 0 6 -7 11 -15 11 -8 0 -15 7 -15 15 0 8 -7 15 -15 15 -8
0 -15 4 -15 10 0 5 -11 12 -25 16 -14 3 -25 11 -25 16 0 10 -25 38 -34 38 -8
0 -46 38 -46 46 0 11 -29 34 -44 34 -9 0 -16 7 -16 15 0 8 -7 15 -15 15 -9 0
-26 11 -39 25 -13 14 -28 25 -35 25 -6 0 -11 7 -11 15 0 8 -7 15 -15 15 -8 0
-15 4 -15 9 0 5 -11 12 -25 15 -14 4 -25 11 -25 16 0 6 -7 10 -15 10 -8 0 -15
7 -15 15 0 9 -9 15 -25 15 -14 0 -25 5 -25 10 0 6 -7 10 -15 10 -8 0 -15 6
-15 14 0 8 -11 17 -25 20 -14 4 -25 11 -25 16 0 6 -7 10 -15 10 -8 0 -15 4
-15 9 0 5 -12 12 -26 15 -15 4 -32 12 -40 19 -36 32 -45 37 -69 37 -16 0 -25
6 -25 15 0 9 -9 15 -25 15 -14 0 -25 4 -25 9 0 5 -13 12 -30 16 -16 4 -30 11
-30 16 0 5 -11 9 -25 9 -16 0 -25 6 -25 15 0 10 -10 15 -30 15 -16 0 -30 4
-30 10 0 5 -16 12 -35 16 -19 3 -35 10 -35 15 0 5 -13 9 -30 9 -20 0 -30 5
-30 15 0 11 -11 15 -40 15 -22 0 -40 4 -40 10 0 5 -18 13 -40 16 -22 4 -40 10
-40 15 0 5 -18 12 -40 15 -22 4 -40 10 -40 15 0 5 -25 9 -55 9 -30 0 -55 4
-55 9 0 5 -25 13 -55 16 -30 4 -55 11 -55 15 0 4 -29 11 -65 15 -36 3 -65 11
-65 16 0 5 -54 9 -120 9 -73 0 -120 4 -120 10 0 6 -92 10 -255 10 -163 0 -255
-4 -255 -10z"/>
<path d="M3538 6673 c-32 -2 -58 -8 -58 -13 0 -6 -36 -10 -80 -10 -64 0 -80
-3 -80 -15 0 -12 -14 -15 -65 -15 -36 0 -65 -4 -65 -9 0 -5 -25 -12 -55 -16
-30 -3 -55 -11 -55 -16 0 -5 -22 -9 -50 -9 -38 0 -50 -4 -50 -15 0 -11 -11
-15 -40 -15 -22 0 -40 -4 -40 -9 0 -4 -19 -11 -41 -14 -23 -3 -45 -10 -48 -15
-3 -5 -23 -12 -43 -16 -21 -4 -38 -11 -38 -16 0 -6 -11 -10 -25 -10 -14 0 -25
-4 -25 -9 0 -5 -13 -12 -30 -16 -16 -4 -30 -11 -30 -16 0 -5 -11 -9 -24 -9
-14 0 -31 -7 -40 -15 -8 -8 -26 -15 -40 -15 -16 0 -26 -6 -26 -15 0 -9 -9 -15
-25 -15 -14 0 -25 -4 -25 -9 0 -5 -13 -12 -30 -16 -16 -4 -30 -11 -30 -16 0
-5 -11 -9 -25 -9 -16 0 -25 -6 -25 -15 0 -8 -7 -15 -15 -15 -8 0 -15 -4 -15
-9 0 -5 -11 -12 -25 -15 -14 -4 -25 -11 -25 -16 0 -6 -11 -10 -25 -10 -16 0
-25 -6 -25 -15 0 -8 -7 -15 -15 -15 -8 0 -15 -4 -15 -9 0 -5 -11 -12 -25 -15
-14 -4 -25 -11 -25 -16 0 -6 -7 -10 -15 -10 -9 0 -18 -7 -21 -15 -4 -8 -15
-15 -25 -15 -10 0 -19 -5 -19 -10 0 -6 -8 -14 -17 -17 -23 -9 -43 -29 -43 -42
0 -6 -11 -11 -25 -11 -14 0 -25 -4 -25 -10 0 -5 -7 -10 -15 -10 -8 0 -15 -7
-15 -15 0 -8 -7 -15 -15 -15 -8 0 -15 -7 -15 -15 0 -8 -7 -15 -15 -15 -8 0
-15 -7 -15 -15 0 -9 -9 -15 -25 -15 -14 0 -25 -5 -25 -11 0 -14 -25 -39 -39
-39 -6 0 -11 -7 -11 -15 0 -8 -5 -15 -11 -15 -16 0 -103 -90 -94 -98 4 -4 10
-1 12 6 3 6 13 12 24 12 10 0 19 4 19 9 0 5 10 13 23 17 12 4 32 17 44 30 12
13 31 24 43 24 11 0 20 7 20 15 0 9 9 15 25 15 14 0 25 4 25 9 0 5 11 12 25
15 14 4 25 11 25 16 0 6 14 10 30 10 20 0 30 5 30 15 0 8 7 15 15 15 8 0 15 5
15 10 0 6 6 10 14 10 8 0 21 6 28 13 7 8 30 17 51 21 20 4 37 11 37 16 0 6 11
10 25 10 14 0 25 4 25 9 0 5 13 12 30 16 17 4 30 10 30 15 0 4 18 10 40 14 22
3 40 11 40 16 0 6 18 10 40 10 22 0 40 4 40 10 0 5 18 13 40 16 22 4 40 10 40
14 0 5 13 11 30 15 17 4 30 11 30 16 0 5 11 9 25 9 16 0 25 6 25 15 0 9 9 15
25 15 14 0 25 4 25 9 0 5 14 12 30 16 17 4 30 11 30 16 0 5 11 9 25 9 16 0 25
6 25 15 0 9 9 15 25 15 14 0 25 4 25 10 0 5 18 13 40 16 22 4 40 10 40 15 0 5
14 9 30 9 20 0 30 5 30 15 0 10 11 15 35 15 19 0 35 5 35 10 0 6 9 10 19 10
11 0 26 6 33 14 8 7 38 17 66 21 29 4 52 11 52 16 0 5 18 9 40 9 22 0 40 4 40
9 0 5 18 11 40 15 22 3 40 10 40 15 0 5 29 13 65 16 36 4 65 11 65 16 0 5 32
9 70 9 56 0 70 3 70 15 0 12 18 15 105 15 63 0 105 4 105 10 0 6 88 10 245 10
157 0 245 -4 245 -10 0 -6 38 -10 95 -10 78 0 95 -3 95 -15 0 -12 14 -15 65
-15 37 0 65 -4 65 -10 0 -5 18 -10 40 -10 22 0 40 5 40 10 0 6 -18 10 -40 10
-29 0 -40 4 -40 15 0 10 -10 15 -30 15 -16 0 -30 4 -30 9 0 5 -22 12 -50 16
-27 4 -50 11 -50 16 0 5 -25 9 -55 9 -42 0 -55 3 -55 15 0 12 -15 15 -79 15
-55 0 -81 4 -83 13 -4 9 -75 12 -309 13 -167 1 -330 -1 -361 -3z"/>
<path d="M3720 6531 c0 -5 -34 -12 -75 -16 -41 -4 -75 -10 -75 -14 0 -5 -30
-11 -67 -14 -38 -4 -69 -11 -71 -17 -2 -5 -26 -10 -53 -10 -27 0 -49 -4 -49
-9 0 -4 -19 -11 -41 -14 -23 -3 -45 -10 -48 -15 -3 -5 -23 -12 -43 -16 -21 -4
-38 -11 -38 -16 0 -6 -18 -10 -40 -10 -29 0 -40 -4 -40 -15 0 -11 -11 -15 -40
-15 -22 0 -40 -4 -40 -10 0 -5 -18 -13 -40 -16 -22 -4 -40 -10 -40 -15 0 -5
-13 -9 -30 -9 -20 0 -30 -5 -30 -15 0 -9 -9 -15 -25 -15 -14 0 -25 -4 -25 -10
0 -5 18 -10 40 -10 22 0 40 5 40 10 0 6 33 10 80 10 64 0 80 3 80 15 0 12 19
15 110 15 67 0 110 4 110 10 0 6 118 10 335 10 217 0 335 -4 335 -10 0 -6 42
-10 105 -10 87 0 105 -3 105 -15 0 -12 16 -15 80 -15 44 0 80 -4 80 -9 0 -5
25 -12 55 -16 30 -3 55 -11 55 -16 0 -5 25 -9 55 -9 42 0 55 -3 55 -15 0 -11
11 -15 39 -15 22 0 41 -5 43 -10 2 -6 21 -13 43 -17 22 -3 46 -12 53 -20 7 -7
24 -13 38 -13 13 0 24 -4 24 -10 0 -5 18 -10 40 -10 22 0 40 -4 40 -9 0 -5 11
-12 25 -15 14 -4 25 -10 25 -15 0 -5 14 -12 30 -16 17 -4 30 -11 30 -16 0 -5
14 -9 30 -9 17 0 30 -4 30 -10 0 -5 11 -12 25 -16 14 -3 25 -10 25 -14 0 -4
11 -11 25 -14 14 -4 25 -11 25 -16 0 -6 11 -10 25 -10 16 0 25 -6 25 -15 0
-10 10 -15 30 -15 20 0 30 -5 30 -15 0 -8 7 -15 15 -15 8 0 15 -4 15 -10 0 -5
11 -10 25 -10 16 0 25 -6 25 -15 0 -8 7 -15 15 -15 8 0 15 -4 15 -10 0 -5 11
-12 25 -16 14 -3 25 -12 25 -20 0 -8 7 -14 15 -14 8 0 15 -4 15 -10 0 -5 7
-10 15 -10 8 0 15 -4 15 -10 0 -5 11 -12 25 -16 14 -3 25 -11 25 -16 0 -13 26
-38 39 -38 6 0 11 -4 11 -10 0 -5 7 -10 15 -10 8 0 15 -4 15 -10 0 -5 9 -19
20 -30 11 -11 25 -20 30 -20 6 0 10 -5 10 -10 0 -13 57 -70 70 -70 6 0 10 -7
10 -15 0 -8 5 -15 10 -15 6 0 10 7 10 15 0 8 -4 15 -10 15 -5 0 -12 11 -16 25
-3 14 -10 25 -14 25 -4 0 -11 11 -14 25 -4 14 -11 25 -16 25 -6 0 -10 7 -10
16 0 8 -6 22 -12 29 -26 29 -34 40 -41 58 -3 9 -11 17 -17 17 -5 0 -10 9 -10
20 0 11 -7 20 -15 20 -8 0 -15 7 -15 16 0 18 -23 44 -39 44 -6 0 -11 11 -11
25 0 16 -6 25 -15 25 -8 0 -15 7 -15 15 0 8 -4 15 -10 15 -5 0 -10 7 -10 15 0
8 -7 15 -15 15 -8 0 -15 7 -15 15 0 8 -7 15 -15 15 -9 0 -15 9 -15 25 0 14 -5
25 -11 25 -14 0 -69 55 -69 69 0 6 -5 11 -11 11 -14 0 -69 55 -69 69 0 6 -7
11 -15 11 -8 0 -15 7 -15 15 0 8 -7 15 -15 15 -8 0 -15 4 -15 9 0 5 -10 13
-22 17 -26 8 -48 28 -48 43 0 6 -7 11 -15 11 -8 0 -15 4 -15 9 0 5 -11 12 -25
15 -14 4 -25 11 -25 16 0 6 -7 10 -15 10 -8 0 -15 7 -15 15 0 10 -10 15 -30
15 -16 0 -30 4 -30 9 0 5 -18 11 -40 15 -22 3 -40 10 -40 15 0 5 -18 11 -40
15 -22 3 -40 11 -40 16 0 6 -18 10 -39 10 -22 0 -41 4 -43 10 -1 5 -31 13 -65
16 -35 4 -63 10 -63 15 0 4 -31 11 -70 15 -38 3 -70 11 -70 15 0 5 -157 9
-350 9 -196 0 -350 -4 -350 -9z"/>
<path d="M3160 6261 c0 -4 -35 -11 -77 -15 -43 -3 -79 -11 -81 -16 -2 -6 -39
-10 -83 -10 -64 0 -79 -3 -79 -15 0 -12 -13 -15 -55 -15 -30 0 -55 -4 -55 -9
0 -5 -22 -12 -50 -16 -27 -4 -50 -11 -50 -16 0 -5 -13 -9 -30 -9 -20 0 -30 -5
-30 -15 0 -10 -10 -15 -30 -15 -16 0 -30 -4 -30 -9 0 -5 -10 -13 -22 -17 -12
-3 -28 -13 -36 -20 -7 -8 -20 -14 -28 -14 -8 0 -14 -4 -14 -10 0 -5 -5 -10
-11 -10 -6 0 -24 -13 -41 -30 -16 -16 -36 -30 -44 -30 -8 0 -14 -4 -14 -10 0
-5 -7 -10 -15 -10 -8 0 -15 -7 -15 -15 0 -9 -9 -15 -25 -15 -14 0 -25 -5 -25
-11 0 -14 -25 -39 -39 -39 -6 0 -11 -7 -11 -15 0 -8 -7 -15 -15 -15 -8 0 -15
-4 -15 -10 0 -5 -6 -10 -14 -10 -8 0 -39 -25 -70 -55 -30 -30 -59 -55 -65 -55
-6 0 -11 -7 -11 -15 0 -8 -5 -15 -11 -15 -14 0 -69 -55 -69 -69 0 -6 -7 -11
-15 -11 -8 0 -15 -7 -15 -15 0 -8 -5 -15 -11 -15 -14 0 -39 -25 -39 -39 0 -6
-7 -11 -15 -11 -8 0 -15 -5 -15 -11 0 -14 -55 -69 -69 -69 -6 0 -11 -9 -11
-20 0 -11 -18 -37 -40 -59 -22 -21 -40 -44 -40 -50 0 -6 -4 -11 -10 -11 -5 0
-12 -11 -16 -25 -3 -14 -11 -25 -16 -25 -15 0 -38 -27 -38 -44 0 -9 -4 -16
-10 -16 -5 0 -12 -11 -16 -25 -3 -14 -12 -25 -20 -25 -8 0 -14 -7 -14 -15 0
-8 -4 -15 -10 -15 -5 0 -10 -11 -10 -25 0 -16 -6 -25 -15 -25 -8 0 -15 -7 -15
-15 0 -8 -4 -15 -10 -15 -5 0 -12 -11 -16 -25 -3 -14 -10 -25 -15 -25 -5 0 -9
-7 -9 -15 0 -8 -7 -15 -15 -15 -9 0 -15 -9 -15 -25 0 -14 -4 -25 -10 -25 -5 0
-12 -11 -16 -25 -3 -14 -10 -25 -15 -25 -5 0 -9 -13 -9 -30 0 -20 -5 -30 -15
-30 -8 0 -15 -7 -15 -15 0 -8 -4 -15 -10 -15 -5 0 -12 -11 -16 -25 -3 -14 -10
-25 -14 -25 -4 0 -11 -11 -14 -25 -4 -14 -11 -25 -16 -25 -6 0 -10 -13 -10
-30 0 -16 -4 -30 -10 -30 -5 0 -10 -6 -10 -13 0 -8 -9 -24 -20 -37 -11 -13
-20 -31 -20 -42 0 -10 -4 -18 -10 -18 -5 0 -10 -11 -10 -25 0 -14 -4 -25 -10
-25 -5 0 -12 -17 -16 -37 -4 -21 -13 -44 -21 -51 -7 -7 -13 -20 -13 -28 0 -8
-4 -14 -10 -14 -5 0 -10 -18 -10 -40 0 -22 -4 -40 -9 -40 -5 0 -12 -13 -16
-30 -4 -16 -11 -30 -15 -30 -5 0 -12 -16 -16 -35 -3 -19 -10 -35 -15 -35 -5 0
-9 -13 -9 -30 0 -20 -5 -30 -15 -30 -12 0 -15 -13 -15 -55 0 -30 -4 -55 -10
-55 -5 0 -13 -18 -16 -40 -4 -22 -10 -40 -15 -40 -5 0 -9 -22 -9 -50 0 -38 -4
-50 -15 -50 -11 0 -15 -12 -15 -45 0 -25 -4 -45 -9 -45 -5 0 -12 -23 -16 -50
-4 -27 -11 -50 -16 -50 -5 0 -9 -27 -9 -60 0 -47 -3 -60 -15 -60 -12 0 -15
-17 -15 -89 0 -61 -4 -91 -12 -93 -17 -6 -17 -420 0 -426 8 -2 12 -31 12 -88
0 -68 3 -84 15 -84 11 0 15 -12 15 -50 0 -27 4 -50 9 -50 5 0 11 -18 15 -40 3
-22 11 -40 16 -40 6 0 10 -18 10 -40 0 -29 4 -40 15 -40 10 0 15 -10 15 -30 0
-16 5 -30 10 -30 6 0 10 -11 10 -25 0 -16 6 -25 15 -25 10 0 15 -10 15 -30 0
-20 5 -30 15 -30 9 0 15 -9 15 -25 0 -14 5 -25 10 -25 6 0 10 -6 10 -14 0 -8
6 -21 14 -28 7 -8 17 -24 20 -36 4 -12 12 -22 17 -22 5 0 9 -7 9 -15 0 -8 5
-15 10 -15 6 0 10 5 10 10 0 6 7 10 15 10 9 0 18 7 21 15 4 8 15 15 25 15 10
0 19 7 19 15 0 8 7 15 16 15 8 0 22 6 29 12 33 30 45 38 53 38 5 0 18 11 28
25 10 14 24 25 31 25 6 0 25 14 41 30 17 16 35 30 41 30 6 0 11 4 11 9 0 5 11
12 25 15 14 4 25 11 25 16 0 6 7 10 15 10 8 0 15 7 15 15 0 9 9 15 25 15 16 0
25 6 25 15 0 8 7 15 15 15 8 0 15 4 15 9 0 5 18 11 40 15 22 3 40 11 40 16 0
6 11 10 25 10 16 0 25 6 25 15 0 10 10 15 30 15 17 0 30 4 30 10 0 5 11 12 25
16 14 3 25 10 25 15 0 5 18 9 40 9 29 0 40 4 40 15 0 12 13 15 55 15 30 0 55
4 55 10 0 5 18 13 40 16 22 4 40 10 40 14 0 4 42 10 93 14 50 4 94 11 95 16 2
6 62 10 138 10 74 0 134 4 134 9 0 4 34 11 77 14 42 3 79 10 82 15 3 5 33 12
66 16 33 4 62 11 63 16 2 6 39 10 83 10 64 0 79 3 79 15 0 12 16 15 85 15 47
0 85 4 85 9 0 5 41 12 90 15 50 4 90 12 90 17 0 5 49 9 110 9 91 0 110 3 110
15 0 12 18 15 105 15 58 0 105 4 105 9 0 4 53 11 118 15 64 4 119 11 120 17 2
5 57 9 123 9 99 0 119 3 119 15 0 12 19 15 110 15 61 0 110 4 110 8 0 5 46 12
102 16 56 3 105 10 108 15 3 4 48 11 100 15 52 4 97 11 98 16 2 6 39 10 83 10
43 0 79 4 79 9 0 4 28 11 62 15 34 3 64 10 67 15 3 5 41 12 84 16 42 4 77 11
77 16 0 5 25 9 55 9 30 0 55 4 55 9 0 5 18 11 40 15 22 3 40 10 40 15 0 5 18
11 40 15 22 3 40 11 40 16 0 6 18 10 40 10 29 0 40 4 40 15 0 9 10 15 26 15
26 0 54 20 54 39 0 6 11 11 25 11 16 0 25 6 25 15 0 8 7 15 15 15 9 0 15 9 15
25 0 16 6 25 15 25 8 0 15 7 15 15 0 8 4 15 10 15 5 0 12 11 16 25 3 14 10 25
15 25 5 0 9 7 9 15 0 8 7 15 15 15 9 0 15 10 15 26 0 14 7 32 15 40 8 9 15 26
15 40 0 13 5 24 10 24 6 0 10 20 10 45 0 33 4 45 15 45 12 0 15 14 15 65 0 36
4 65 9 65 5 0 12 36 16 80 4 44 11 80 16 80 5 0 9 43 9 95 0 78 3 95 15 95 13
0 15 35 15 255 0 220 -2 255 -15 255 -12 0 -15 13 -15 55 0 30 -4 55 -9 55 -5
0 -11 18 -15 40 -3 22 -11 40 -16 40 -6 0 -10 23 -10 50 0 38 -4 50 -15 50
-11 0 -15 11 -15 40 0 22 -4 40 -9 40 -6 0 -13 20 -17 45 -3 25 -10 45 -15 45
-5 0 -9 11 -9 25 0 16 -6 25 -15 25 -10 0 -15 10 -15 30 0 17 -4 30 -9 30 -5
0 -12 11 -15 25 -4 14 -11 25 -16 25 -6 0 -10 11 -10 25 0 16 -6 25 -15 25 -8
0 -15 5 -15 11 0 6 -13 24 -30 41 -16 16 -30 36 -30 44 0 8 -4 14 -10 14 -5 0
-10 7 -10 15 0 8 -5 15 -11 15 -14 0 -69 55 -69 69 0 6 -5 11 -11 11 -14 0
-69 55 -69 69 0 6 -5 11 -11 11 -6 0 -24 14 -41 30 -16 17 -34 30 -39 30 -6 0
-25 16 -43 35 -19 19 -38 35 -45 35 -6 0 -11 7 -11 15 0 8 -9 15 -20 15 -10 0
-33 14 -50 30 -17 17 -37 30 -45 30 -8 0 -15 5 -15 10 0 6 -7 10 -15 10 -8 0
-15 7 -15 15 0 9 -9 15 -25 15 -14 0 -25 4 -25 9 0 5 -13 12 -30 16 -16 4 -30
11 -30 16 0 5 -7 9 -15 9 -8 0 -15 7 -15 15 0 9 -9 15 -25 15 -14 0 -25 4 -25
10 0 5 -18 13 -40 16 -24 4 -40 12 -40 20 0 8 -10 14 -25 14 -14 0 -25 5 -25
10 0 6 -11 10 -25 10 -14 0 -25 4 -25 9 0 5 -13 12 -30 16 -16 4 -30 10 -30
15 0 4 -18 10 -40 14 -22 3 -40 11 -40 16 0 6 -18 10 -40 10 -22 0 -40 4 -40
10 0 5 -18 13 -40 16 -22 4 -40 10 -40 15 0 4 -25 11 -55 14 -30 4 -55 11 -55
16 0 5 -22 9 -50 9 -38 0 -50 4 -50 15 0 12 -14 15 -70 15 -38 0 -70 4 -70 9
0 5 -36 12 -80 16 -44 4 -80 11 -80 16 0 5 -189 9 -445 9 -245 0 -445 -4 -445
-9z m760 -240 c0 -4 39 -11 86 -14 48 -3 89 -9 93 -15 3 -5 36 -13 74 -16 37
-4 67 -12 67 -17 0 -5 18 -9 40 -9 29 0 40 -4 40 -15 0 -11 12 -15 50 -15 28
0 50 -4 50 -9 0 -5 14 -12 30 -16 17 -4 30 -11 30 -16 0 -5 18 -9 40 -9 29 0
40 -4 40 -15 0 -9 9 -15 25 -15 14 0 25 -4 25 -9 0 -5 14 -12 30 -16 17 -4 30
-10 30 -15 0 -4 11 -11 25 -14 14 -4 25 -11 25 -16 0 -6 11 -10 25 -10 24 0
33 -5 69 -37 8 -7 25 -15 40 -19 14 -3 26 -10 26 -15 0 -5 7 -9 15 -9 8 0 15
-4 15 -10 0 -5 11 -12 25 -16 14 -3 25 -12 25 -20 0 -8 7 -14 15 -14 8 0 15
-4 15 -10 0 -5 7 -10 15 -10 8 0 15 -7 15 -15 0 -9 9 -15 25 -15 16 0 25 -6
25 -15 0 -8 5 -15 11 -15 14 0 39 -25 39 -39 0 -6 9 -11 20 -11 12 0 31 -11
44 -25 13 -14 28 -25 35 -25 6 0 11 -5 11 -11 0 -14 165 -179 179 -179 6 0 11
-9 11 -20 0 -12 11 -31 25 -44 14 -13 25 -28 25 -35 0 -6 7 -11 15 -11 9 0 15
-9 15 -25 0 -16 6 -25 15 -25 8 0 15 -7 15 -15 0 -8 5 -15 10 -15 6 0 10 -11
10 -25 0 -16 6 -25 15 -25 8 0 15 -7 15 -15 0 -8 4 -15 10 -15 5 0 12 -11 16
-25 3 -14 10 -25 14 -25 4 0 11 -11 14 -25 4 -14 11 -25 16 -25 6 0 10 -13 10
-30 0 -16 4 -30 9 -30 5 0 12 -11 15 -25 4 -14 10 -25 15 -25 5 0 12 -13 16
-30 4 -16 11 -30 16 -30 5 0 9 -18 9 -40 0 -22 4 -40 10 -40 5 0 12 -17 16
-37 4 -21 11 -41 15 -44 5 -3 12 -40 15 -82 4 -42 11 -77 15 -77 5 0 9 -61 9
-135 0 -74 -4 -135 -9 -135 -5 0 -11 -23 -13 -51 -3 -28 -10 -54 -15 -58 -6
-3 -13 -23 -17 -43 -4 -21 -11 -38 -16 -38 -6 0 -10 -13 -10 -30 0 -16 -4 -30
-10 -30 -5 0 -12 -11 -16 -25 -3 -14 -10 -25 -14 -25 -4 0 -11 -11 -14 -25 -4
-14 -11 -25 -16 -25 -6 0 -10 -7 -10 -15 0 -8 -4 -15 -9 -15 -5 0 -12 -11 -15
-25 -4 -14 -13 -25 -21 -25 -8 0 -15 -5 -15 -11 0 -14 -25 -39 -39 -39 -6 0
-11 -7 -11 -15 0 -8 -7 -15 -15 -15 -8 0 -15 -5 -15 -11 0 -14 -25 -39 -39
-39 -6 0 -11 -7 -11 -15 0 -9 -9 -15 -25 -15 -16 0 -25 -6 -25 -15 0 -8 -5
-15 -11 -15 -7 0 -22 -11 -34 -24 -12 -13 -32 -27 -43 -31 -12 -3 -22 -11 -22
-16 0 -5 -9 -9 -20 -9 -12 0 -31 -11 -43 -24 -13 -14 -35 -28 -50 -31 -15 -4
-27 -11 -27 -16 0 -5 -11 -9 -25 -9 -14 0 -25 -4 -25 -9 0 -5 -11 -12 -25 -15
-14 -4 -25 -11 -25 -16 0 -5 -18 -13 -40 -16 -22 -4 -40 -10 -40 -15 0 -5 -13
-9 -30 -9 -20 0 -30 -5 -30 -15 0 -11 -11 -15 -40 -15 -22 0 -40 -4 -40 -9 0
-5 -18 -11 -40 -15 -22 -3 -40 -11 -40 -16 0 -6 -22 -10 -50 -10 -38 0 -50 -4
-50 -15 0 -12 -13 -15 -55 -15 -30 0 -55 -4 -55 -9 0 -5 -24 -12 -52 -16 -29
-4 -56 -11 -59 -16 -3 -5 -33 -12 -67 -15 -34 -4 -62 -11 -62 -15 0 -5 -36 -9
-79 -9 -44 0 -81 -4 -83 -10 -1 -5 -45 -12 -95 -16 -51 -4 -93 -10 -93 -14 0
-5 -61 -11 -135 -15 -74 -4 -135 -11 -135 -16 0 -5 -162 -9 -365 -9 -201 0
-365 -4 -365 -8 0 -5 -138 -12 -307 -16 -169 -3 -309 -10 -312 -15 -4 -4 -64
-11 -136 -15 -71 -4 -131 -12 -133 -17 -2 -5 -37 -9 -78 -9 -59 0 -74 -3 -74
-15 0 -12 -14 -15 -70 -15 -38 0 -70 -4 -70 -9 0 -5 -18 -11 -40 -15 -22 -3
-40 -11 -40 -16 0 -6 -22 -10 -50 -10 -38 0 -50 -4 -50 -15 0 -11 -12 -15 -45
-15 -25 0 -45 -4 -45 -10 0 -5 -18 -13 -40 -16 -22 -4 -40 -10 -40 -15 0 -5
-11 -9 -25 -9 -16 0 -25 -6 -25 -15 0 -9 -9 -15 -25 -15 -14 0 -25 -4 -25 -9
0 -5 -13 -12 -30 -16 -17 -4 -30 -10 -30 -15 0 -5 -14 -11 -30 -15 -16 -4 -30
-11 -30 -16 0 -5 -11 -9 -25 -9 -16 0 -25 6 -25 15 0 8 -4 15 -9 15 -4 0 -11
28 -15 63 -3 34 -11 64 -16 65 -6 2 -10 45 -10 98 0 56 -4 94 -10 94 -6 0 -10
87 -10 240 0 153 4 240 10 240 6 0 10 38 10 95 0 52 4 95 9 95 4 0 11 28 15
62 3 34 10 64 15 67 5 3 12 32 16 64 4 31 11 57 16 57 5 0 9 18 9 40 0 22 4
40 9 40 5 0 12 23 16 50 4 28 11 50 16 50 5 0 12 18 15 40 4 22 10 40 15 40 5
0 9 11 9 25 0 16 6 25 15 25 10 0 15 10 15 30 0 17 4 30 10 30 5 0 13 18 16
40 4 22 10 40 15 40 5 0 9 11 9 25 0 16 6 25 15 25 10 0 15 10 15 30 0 20 5
30 15 30 8 0 15 7 15 15 0 8 5 15 10 15 6 0 10 11 10 25 0 16 6 25 15 25 10 0
15 10 15 30 0 17 4 30 10 30 5 0 12 11 16 25 3 14 12 25 20 25 8 0 14 7 14 15
0 8 5 15 10 15 6 0 10 11 10 25 0 16 6 25 15 25 8 0 15 7 15 15 0 8 4 15 10
15 5 0 12 11 16 25 3 14 10 25 15 25 5 0 9 5 9 11 0 6 12 24 28 39 42 45 52
58 52 70 0 5 7 10 15 10 8 0 15 5 15 11 0 7 11 22 25 35 14 13 25 32 25 44 0
11 7 20 15 20 8 0 15 7 15 15 0 8 5 15 11 15 14 0 39 25 39 39 0 6 7 11 15 11
8 0 15 7 15 15 0 8 5 15 11 15 14 0 69 55 69 69 0 6 5 11 11 11 14 0 69 55 69
69 0 6 7 11 15 11 8 0 15 4 15 9 0 5 11 12 25 15 14 4 25 13 25 21 0 8 5 15
11 15 14 0 39 25 39 39 0 6 7 11 15 11 8 0 15 5 15 10 0 6 7 10 15 10 8 0 15
7 15 15 0 9 9 15 25 15 16 0 25 6 25 15 0 8 5 15 11 15 7 0 22 11 35 25 13 14
32 25 44 25 11 0 20 7 20 15 0 8 7 15 15 15 8 0 15 4 15 10 0 5 11 12 25 16
14 3 25 12 25 20 0 8 7 14 15 14 8 0 15 5 15 10 0 6 11 10 25 10 14 0 25 4 25
10 0 5 11 12 25 16 14 3 25 10 25 14 0 5 14 11 30 15 17 4 30 11 30 16 0 5 7
9 15 9 8 0 15 4 15 10 0 5 11 12 25 16 14 3 25 10 25 14 0 4 18 10 40 14 22 3
40 11 40 16 0 6 11 10 25 10 16 0 25 6 25 15 0 10 10 15 30 15 17 0 30 4 30 9
0 5 18 11 40 15 22 3 40 11 40 16 0 6 18 10 40 10 29 0 40 4 40 15 0 11 12 15
50 15 28 0 50 4 50 9 0 5 26 12 58 16 31 4 60 11 63 16 3 5 51 12 107 16 56 3
102 10 102 15 0 4 86 8 190 8 105 0 190 -4 190 -9z"/>
<path d="M5290 6180 c0 -5 5 -10 10 -10 6 0 10 5 10 10 0 6 -4 10 -10 10 -5 0
-10 -4 -10 -10z"/>
<path d="M5310 6150 c0 -5 7 -10 15 -10 8 0 15 -7 15 -15 0 -8 5 -15 11 -15
16 0 39 -26 39 -44 0 -9 5 -16 11 -16 15 0 49 -39 49 -57 0 -7 5 -13 10 -13 6
0 10 -7 10 -15 0 -8 7 -15 15 -15 8 0 15 -5 15 -11 0 -7 11 -22 25 -35 14 -13
25 -32 25 -44 0 -11 4 -20 10 -20 13 0 50 -32 50 -43 0 -5 6 -15 13 -22 29
-34 37 -45 37 -55 0 -6 6 -18 13 -25 30 -34 37 -45 43 -69 3 -14 10 -26 15
-26 5 0 9 -7 9 -15 0 -8 5 -15 10 -15 6 0 10 -6 10 -14 0 -8 6 -21 14 -28 7
-8 17 -24 20 -36 4 -12 12 -22 17 -22 5 0 9 -7 9 -15 0 -8 7 -15 15 -15 11 0
15 -11 15 -40 0 -22 4 -40 9 -40 5 0 12 -11 15 -25 4 -14 11 -25 16 -25 6 0
10 -9 10 -20 0 -11 7 -20 15 -20 9 0 15 -9 15 -25 0 -14 4 -25 9 -25 5 0 12
-11 15 -25 4 -14 11 -25 16 -25 6 0 10 -11 10 -25 0 -16 6 -25 15 -25 10 0 15
11 15 35 0 24 -5 35 -15 35 -11 0 -15 11 -15 40 0 22 -4 40 -10 40 -5 0 -10
13 -10 29 0 16 -7 36 -15 45 -8 8 -15 26 -15 40 0 16 -6 26 -15 26 -10 0 -15
10 -15 30 0 17 -4 30 -10 30 -5 0 -10 11 -10 25 0 16 -6 25 -15 25 -9 0 -15 9
-15 25 0 16 -6 25 -15 25 -10 0 -15 10 -15 30 0 17 -4 30 -10 30 -5 0 -10 7
-10 15 0 8 -13 28 -30 45 -16 17 -30 38 -30 47 0 8 -18 33 -40 54 -22 22 -40
46 -40 55 0 18 -53 74 -69 74 -6 0 -11 7 -11 15 0 8 -7 15 -15 15 -8 0 -15 5
-15 11 0 6 -13 24 -29 40 -16 16 -34 29 -40 29 -6 0 -11 5 -11 11 0 6 -13 24
-29 40 -16 16 -34 29 -40 29 -6 0 -11 4 -11 9 0 5 -11 12 -25 15 -14 4 -25 11
-25 16 0 6 -7 10 -15 10 -8 0 -15 -4 -15 -10z"/>
<path d="M2300 6040 c0 -5 -11 -10 -25 -10 -14 0 -25 -4 -25 -9 0 -5 -18 -11
-40 -15 -22 -3 -40 -10 -40 -15 0 -5 -11 -12 -25 -15 -14 -4 -25 -11 -25 -16
0 -6 -13 -10 -30 -10 -20 0 -30 -5 -30 -15 0 -9 -9 -15 -25 -15 -14 0 -25 -4
-25 -9 0 -5 -11 -12 -25 -15 -14 -4 -25 -11 -25 -16 0 -6 -9 -10 -20 -10 -11
0 -20 -7 -20 -15 0 -9 -9 -15 -25 -15 -14 0 -25 -4 -25 -10 0 -5 -6 -10 -14
-10 -8 0 -21 -6 -28 -14 -8 -7 -24 -17 -36 -20 -12 -4 -22 -12 -22 -17 0 -5
-7 -9 -15 -9 -8 0 -15 -4 -15 -10 0 -5 -6 -10 -14 -10 -8 0 -28 -13 -44 -30
-17 -16 -35 -30 -41 -30 -6 0 -11 -4 -11 -9 0 -5 -11 -12 -25 -15 -14 -4 -25
-11 -25 -16 0 -6 -7 -10 -15 -10 -8 0 -15 -7 -15 -15 0 -8 -7 -15 -15 -15 -8
0 -15 -7 -15 -15 0 -8 -7 -15 -15 -15 -8 0 -15 -4 -15 -9 0 -5 -10 -13 -22
-17 -26 -8 -48 -28 -48 -43 0 -6 -7 -11 -15 -11 -8 0 -15 -7 -15 -15 0 -8 -5
-15 -11 -15 -14 0 -39 -25 -39 -39 0 -6 -7 -11 -15 -11 -9 0 -15 -9 -15 -25 0
-16 -6 -25 -15 -25 -8 0 -15 -7 -15 -15 0 -8 -7 -15 -15 -15 -8 0 -15 -7 -15
-15 0 -8 -4 -15 -10 -15 -5 0 -12 -11 -16 -25 -3 -14 -10 -25 -15 -25 -5 0 -9
-7 -9 -15 0 -8 -4 -15 -10 -15 -5 0 -12 -11 -16 -25 -3 -14 -12 -25 -20 -25
-8 0 -14 -7 -14 -15 0 -8 -4 -15 -10 -15 -5 0 -10 -11 -10 -25 0 -16 -6 -25
-15 -25 -8 0 -15 -7 -15 -15 0 -8 -4 -15 -10 -15 -5 0 -12 -11 -16 -25 -3 -14
-10 -25 -15 -25 -5 0 -9 -11 -9 -24 0 -13 -7 -26 -15 -30 -8 -3 -15 -12 -15
-21 0 -8 -4 -15 -10 -15 -5 0 -12 -11 -16 -25 -3 -14 -10 -25 -15 -25 -5 0 -9
-11 -9 -25 0 -16 -6 -25 -15 -25 -10 0 -15 -10 -15 -30 0 -16 -4 -30 -10 -30
-5 0 -12 -11 -16 -25 -3 -14 -10 -25 -15 -25 -5 0 -9 -11 -9 -25 0 -16 -6 -25
-15 -25 -10 0 -15 -10 -15 -30 0 -16 -4 -30 -10 -30 -5 0 -12 -16 -16 -35 -3
-19 -10 -35 -15 -35 -5 0 -9 -13 -9 -30 0 -20 -5 -30 -15 -30 -11 0 -15 -11
-15 -40 0 -22 -4 -40 -10 -40 -5 0 -13 -18 -16 -40 -4 -22 -10 -40 -15 -40 -5
0 -12 -18 -15 -40 -4 -22 -10 -40 -15 -40 -5 0 -9 -20 -9 -45 0 -25 -4 -45 -9
-45 -6 0 -13 -21 -17 -47 -4 -27 -11 -51 -16 -54 -4 -3 -11 -42 -15 -87 -3
-45 -10 -82 -14 -82 -5 0 -9 -119 -9 -265 0 -146 4 -265 9 -265 4 0 11 -53 15
-117 4 -65 11 -119 17 -121 5 -2 9 -16 9 -30 0 -45 12 -102 21 -102 5 0 9 47
9 105 0 58 4 105 9 105 5 0 12 48 16 108 4 59 11 110 16 113 5 3 12 33 15 67
4 34 11 62 15 62 5 0 9 23 9 50 0 38 4 50 15 50 11 0 15 12 15 45 0 25 4 45 9
45 5 0 12 23 16 50 4 28 11 50 16 50 5 0 9 20 9 45 0 33 4 45 15 45 11 0 15
12 15 50 0 28 4 50 10 50 5 0 13 18 16 40 4 22 10 40 15 40 5 0 9 14 9 30 0
20 5 30 15 30 10 0 15 11 15 35 0 19 4 35 9 35 5 0 12 14 16 30 4 17 11 30 16
30 5 0 12 18 15 40 4 22 10 40 15 40 5 0 9 12 9 26 0 14 7 32 15 40 8 9 15 26
15 39 0 12 7 25 15 29 8 3 15 17 15 31 0 14 5 25 10 25 6 0 10 9 10 20 0 12
11 31 24 43 14 13 28 35 31 50 4 15 11 27 16 27 5 0 9 11 9 25 0 14 4 25 9 25
5 0 12 11 15 25 4 14 10 25 15 25 5 0 12 14 16 30 4 17 11 30 16 30 5 0 9 11
9 25 0 16 6 25 15 25 8 0 15 9 15 20 0 12 11 31 25 44 14 13 25 33 25 45 0 12
6 21 15 21 8 0 15 7 15 15 0 8 4 15 9 15 5 0 12 11 15 25 4 14 11 25 16 25 6
0 10 7 10 15 0 8 7 15 15 15 9 0 15 9 15 24 0 13 7 26 15 30 8 3 15 10 15 16
0 15 25 40 39 40 6 0 11 9 11 20 0 11 18 38 40 60 22 22 40 49 40 60 0 11 7
20 15 20 8 0 15 7 15 15 0 8 5 15 11 15 14 0 39 25 39 39 0 6 7 11 15 11 8 0
15 5 15 11 0 14 55 69 69 69 6 0 11 5 11 11 0 7 11 22 25 35 14 13 25 28 25
34 0 5 5 10 10 10 6 0 43 34 84 75 41 41 79 75 85 75 6 0 11 7 11 15 0 8 7 15
15 15 8 0 15 7 15 15 0 9 9 15 25 15 16 0 25 6 25 15 0 8 7 15 15 15 8 0 15 5
15 10 0 6 7 10 15 10 8 0 15 5 15 11 0 13 25 39 39 39 5 0 23 14 39 30 17 17
40 30 51 30 12 0 21 5 21 10 0 6 -11 10 -25 10 -14 0 -25 -4 -25 -10z"/>
<path d="M1610 5720 c0 -5 5 -10 10 -10 6 0 10 5 10 10 0 6 -4 10 -10 10 -5 0
-10 -4 -10 -10z"/>
<path d="M6010 5100 c0 -5 5 -10 10 -10 6 0 10 5 10 10 0 6 -4 10 -10 10 -5 0
-10 -4 -10 -10z"/>
<path d="M6147 4564 c-7 -44 2 -124 14 -124 5 0 9 -43 9 -95 0 -57 4 -95 10
-95 6 0 10 -83 10 -230 0 -147 -4 -230 -10 -230 -6 0 -10 -33 -10 -80 0 -44 4
-80 9 -80 11 0 21 35 21 77 0 17 6 33 13 36 16 5 18 554 1 565 -6 4 -14 45
-17 92 -3 47 -10 86 -16 88 -6 2 -11 28 -11 58 0 61 -14 72 -23 18z"/>
<path d="M6115 4100 c-4 -66 -11 -120 -16 -120 -5 0 -9 -34 -9 -75 0 -60 -3
-75 -15 -75 -12 0 -15 -14 -15 -70 0 -38 -4 -70 -9 -70 -5 0 -12 -25 -16 -55
-3 -30 -11 -55 -16 -55 -5 0 -9 -18 -9 -40 0 -29 -4 -40 -15 -40 -11 0 -15
-11 -15 -36 0 -26 -7 -43 -25 -60 -14 -13 -25 -32 -25 -44 0 -11 -7 -20 -15
-20 -8 0 -15 -7 -15 -15 0 -8 -4 -15 -10 -15 -5 0 -10 -4 -10 -10 0 -5 11 -10
25 -10 16 0 25 6 25 15 0 8 6 15 13 15 7 0 19 9 27 20 8 11 20 20 27 20 7 0
13 5 13 10 0 6 11 21 25 34 14 13 25 33 25 45 0 12 6 21 15 21 11 0 15 13 15
54 0 33 5 56 12 58 6 2 13 32 16 69 3 35 9 67 14 70 23 15 21 499 -2 499 -4 0
-11 -54 -15 -120z"/>
<path d="M6150 3595 c0 -8 5 -15 10 -15 6 0 10 7 10 15 0 8 -4 15 -10 15 -5 0
-10 -7 -10 -15z"/>
<path d="M5980 3299 c0 -14 -25 -39 -39 -39 -6 0 -11 -7 -11 -15 0 -10 -10
-15 -30 -15 -16 0 -30 -4 -30 -10 0 -5 -11 -12 -25 -16 -14 -3 -25 -10 -25
-15 0 -5 -11 -9 -25 -9 -16 0 -25 -6 -25 -15 0 -8 -5 -15 -11 -15 -6 0 -24
-13 -41 -30 -16 -16 -35 -30 -42 -30 -6 0 -18 -9 -26 -20 -8 -11 -19 -20 -25
-20 -6 0 -18 -9 -28 -20 -9 -11 -24 -20 -32 -20 -8 0 -15 -4 -15 -10 0 -5 -7
-10 -15 -10 -8 0 -15 -4 -15 -10 0 -5 -11 -12 -25 -16 -14 -3 -25 -10 -25 -14
0 -4 -11 -11 -25 -14 -14 -4 -25 -11 -25 -16 0 -6 -11 -10 -25 -10 -16 0 -25
-6 -25 -15 0 -10 -10 -15 -30 -15 -16 0 -30 -4 -30 -10 0 -5 -11 -12 -25 -16
-14 -3 -25 -10 -25 -15 0 -5 -13 -9 -30 -9 -20 0 -30 -5 -30 -15 0 -11 -11
-15 -40 -15 -22 0 -40 -4 -40 -9 0 -5 -11 -12 -25 -15 -14 -4 -25 -11 -25 -16
0 -6 -18 -10 -40 -10 -29 0 -40 -4 -40 -15 0 -11 -12 -15 -45 -15 -25 0 -45
-4 -45 -9 0 -5 -18 -12 -40 -16 -22 -4 -40 -10 -40 -15 0 -4 -22 -11 -50 -15
-27 -4 -50 -11 -50 -16 0 -5 -18 -9 -40 -9 -22 0 -40 -4 -40 -9 0 -4 -28 -11
-62 -15 -34 -3 -64 -10 -67 -15 -3 -5 -32 -12 -63 -16 -32 -4 -58 -11 -58 -16
0 -5 -27 -9 -60 -9 -47 0 -60 -3 -60 -15 0 -11 -12 -15 -45 -15 -25 0 -45 -4
-45 -9 0 -9 129 -21 233 -21 38 0 67 -4 67 -10 0 -6 57 -10 150 -10 83 0 150
4 150 9 0 4 51 11 112 14 65 3 114 10 116 16 2 6 33 11 73 11 55 0 69 3 69 15
0 11 11 15 40 15 22 0 40 4 40 10 0 5 18 13 40 16 22 4 40 10 40 14 0 5 14 11
30 15 17 4 30 11 30 16 0 5 11 9 25 9 14 0 25 5 25 10 0 6 6 10 14 10 8 0 21
6 28 14 8 7 24 17 36 20 12 4 22 12 22 17 0 5 7 9 15 9 8 0 15 7 15 15 0 9 9
15 25 15 14 0 25 5 25 10 0 6 6 10 13 10 14 0 47 35 47 50 0 6 7 10 15 10 8 0
15 5 15 10 0 6 6 10 13 10 18 0 57 34 57 49 0 6 7 11 15 11 8 0 17 11 21 25 3
14 10 25 15 25 5 0 9 7 9 15 0 8 7 15 15 15 8 0 15 7 15 15 0 8 4 15 10 15 5
0 12 11 16 25 3 14 10 25 15 25 5 0 9 7 9 15 0 8 7 15 15 15 9 0 15 9 15 25 0
16 6 25 15 25 9 0 15 9 15 25 0 14 5 25 10 25 6 0 10 14 10 30 0 20 5 30 15
30 9 0 15 9 15 25 0 16 -6 25 -15 25 -8 0 -15 -5 -15 -11z"/>
<path d="M588 3133 c-3 -75 3 -138 13 -141 5 -2 9 -39 9 -83 0 -43 4 -79 9
-79 5 0 12 -36 16 -80 4 -44 11 -80 15 -80 4 0 10 -18 14 -40 3 -22 11 -40 16
-40 6 0 10 -18 10 -40 0 -22 4 -40 9 -40 4 0 11 -19 14 -41 3 -23 10 -45 15
-48 5 -3 12 -23 16 -43 4 -21 11 -38 16 -38 6 0 10 -16 10 -35 0 -24 5 -35 15
-35 10 0 15 -10 15 -30 0 -16 4 -30 9 -30 5 0 12 -11 15 -25 4 -14 11 -25 16
-25 6 0 10 -13 10 -30 0 -20 5 -30 15 -30 9 0 15 -9 15 -25 0 -14 4 -25 9 -25
5 0 12 -12 15 -26 7 -25 28 -54 40 -54 3 0 15 8 26 17 24 21 26 56 5 77 -8 8
-15 19 -15 25 0 6 -7 11 -15 11 -10 0 -15 10 -15 30 0 17 -4 30 -9 30 -5 0
-12 11 -15 25 -4 14 -11 25 -16 25 -6 0 -10 11 -10 25 0 16 -6 25 -15 25 -9 0
-15 9 -15 25 0 14 -4 25 -10 25 -5 0 -10 9 -10 19 0 11 -7 26 -15 35 -8 8 -15
26 -15 40 0 16 -6 26 -15 26 -10 0 -15 11 -15 35 0 19 -4 35 -10 35 -5 0 -10
13 -10 29 0 16 -6 36 -14 44 -8 8 -18 31 -21 51 -4 20 -11 36 -16 36 -5 0 -9
20 -9 45 0 25 -4 45 -9 45 -4 0 -11 28 -15 62 -3 34 -10 64 -15 67 -4 3 -11
33 -15 66 -4 33 -11 62 -16 63 -6 2 -10 42 -10 88 0 89 -19 120 -22 37z"/>
<path d="M5550 3080 c0 -5 -18 -10 -40 -10 -22 0 -40 -4 -40 -9 0 -5 -22 -12
-50 -16 -27 -4 -50 -11 -50 -15 0 -4 -27 -11 -60 -15 -33 -4 -60 -11 -60 -16
0 -5 -29 -9 -65 -9 -36 0 -65 -4 -65 -9 0 -5 -36 -12 -80 -16 -44 -4 -80 -11
-80 -15 0 -4 -36 -11 -80 -15 -44 -4 -80 -11 -80 -16 0 -5 -47 -9 -105 -9 -87
0 -105 -3 -105 -15 0 -12 -19 -15 -110 -15 -60 0 -110 -4 -110 -9 0 -5 -54
-12 -120 -16 -66 -4 -120 -11 -120 -16 0 -5 -49 -9 -110 -9 -91 0 -110 -3
-110 -15 0 -12 -20 -15 -120 -15 -66 0 -120 -4 -120 -9 0 -5 -54 -12 -120 -16
-66 -4 -120 -11 -120 -16 0 -5 -43 -9 -95 -9 -78 0 -95 -3 -95 -15 0 -12 -16
-15 -80 -15 -44 0 -80 -4 -80 -9 0 -4 -39 -11 -87 -15 -48 -3 -90 -11 -93 -16
-4 -6 -30 -13 -58 -17 -104 -12 -48 -23 117 -23 94 0 171 -4 173 -9 2 -5 57
-13 123 -17 66 -4 122 -10 125 -15 3 -4 58 -11 123 -15 64 -4 117 -11 117 -15
0 -5 54 -9 120 -9 100 0 120 -2 120 -15 0 -12 17 -15 95 -15 78 0 95 3 95 15
0 12 14 15 65 15 36 0 65 4 65 9 0 4 28 11 62 15 34 3 64 10 67 15 3 5 32 12
64 16 31 4 57 11 57 16 0 5 29 9 65 9 36 0 65 4 65 9 0 5 23 12 50 16 28 4 50
10 50 15 0 4 19 10 42 13 24 3 44 11 46 16 2 6 26 11 53 11 37 0 49 4 49 15 0
11 11 15 40 15 22 0 40 4 40 10 0 5 18 13 40 16 22 4 40 10 40 15 0 5 14 9 30
9 20 0 30 5 30 15 0 11 11 15 40 15 22 0 40 4 40 9 0 5 14 12 30 16 17 4 30
11 30 16 0 5 16 9 35 9 24 0 35 5 35 15 0 9 9 15 25 15 14 0 25 5 25 10 0 6 7
10 15 10 9 0 18 7 21 15 4 8 17 15 30 15 15 0 24 6 24 15 0 9 9 15 25 15 14 0
25 4 25 9 0 5 11 12 25 15 14 4 25 11 25 16 0 6 7 10 15 10 8 0 15 7 15 15 0
9 9 15 25 15 14 0 25 5 25 10 0 6 -11 10 -25 10 -14 0 -25 -4 -25 -10z"/>
<path d="M690 2910 c0 -16 5 -30 10 -30 6 0 10 14 10 30 0 17 -4 30 -10 30 -5
0 -10 -13 -10 -30z"/>
<path d="M2540 2601 c0 -4 -35 -11 -77 -15 -43 -3 -79 -11 -81 -16 -2 -6 -26
-10 -53 -10 -37 0 -49 -4 -49 -15 0 -11 -12 -15 -45 -15 -25 0 -45 -4 -45 -9
0 -4 -24 -11 -52 -14 -29 -4 -54 -11 -56 -17 -2 -5 -21 -10 -43 -10 -28 0 -39
-4 -39 -15 0 -11 -11 -15 -40 -15 -22 0 -40 -4 -40 -10 0 -5 -11 -10 -24 -10
-14 0 -31 -7 -40 -15 -8 -8 -31 -15 -50 -15 -25 0 -36 -4 -36 -15 0 -10 -10
-15 -30 -15 -16 0 -30 -4 -30 -9 0 -5 -13 -12 -30 -16 -16 -4 -30 -10 -30 -15
0 -4 -16 -11 -35 -14 -19 -4 -35 -11 -35 -16 0 -6 -11 -10 -25 -10 -14 0 -25
-4 -25 -10 0 -5 -9 -10 -19 -10 -11 0 -26 -6 -33 -14 -8 -7 -24 -17 -36 -20
-12 -4 -22 -12 -22 -17 0 -5 -13 -9 -30 -9 -16 0 -30 -4 -30 -10 0 -5 -11 -12
-25 -16 -14 -3 -25 -10 -25 -15 0 -5 -7 -9 -15 -9 -8 0 -15 -7 -15 -15 0 -8
-7 -15 -15 -15 -8 0 -15 -7 -15 -15 0 -8 -5 -15 -11 -15 -14 0 -39 -25 -39
-39 0 -6 -7 -11 -15 -11 -8 0 -15 -7 -15 -15 0 -8 -5 -15 -11 -15 -17 0 -39
-27 -39 -50 0 -31 34 -63 59 -55 12 3 21 11 21 16 0 5 14 9 30 9 20 0 30 5 30
15 0 9 9 15 25 15 14 0 25 4 25 9 0 5 11 12 25 15 14 4 25 11 25 16 0 6 14 10
30 10 20 0 30 5 30 15 0 10 11 15 35 15 19 0 35 5 35 10 0 6 9 10 19 10 11 0
26 7 35 15 8 8 31 15 50 15 25 0 36 4 36 15 0 11 11 15 40 15 22 0 40 4 40 9
0 5 25 12 55 16 30 3 55 10 55 14 0 5 18 11 40 15 22 3 40 11 40 16 0 6 25 10
55 10 30 0 55 4 55 9 0 4 23 11 52 14 28 4 54 11 57 16 3 5 34 12 69 16 34 4
62 11 62 16 0 5 36 9 80 9 44 0 80 4 80 9 0 5 36 12 80 16 44 4 80 10 80 15 0
4 42 10 93 14 50 4 94 11 95 16 2 6 46 10 98 10 77 0 94 3 94 15 0 12 18 15
105 15 58 0 105 4 105 9 0 4 42 11 93 15 50 4 94 11 95 16 2 6 51 10 108 10
86 0 104 3 104 15 0 12 16 15 80 15 81 0 94 7 66 36 -11 10 -43 14 -130 14
-96 0 -116 3 -116 15 0 12 -19 15 -109 15 -60 0 -111 4 -113 10 -1 5 -74 12
-160 16 -87 4 -158 11 -158 16 0 4 -85 8 -190 8 -104 0 -190 -4 -190 -9z"/>
<path d="M2030 2545 c0 -11 -11 -15 -40 -15 -22 0 -40 -4 -40 -9 0 -5 -22 -12
-50 -16 -27 -4 -50 -11 -50 -16 0 -5 -18 -9 -40 -9 -29 0 -40 -4 -40 -15 0
-10 -10 -15 -30 -15 -16 0 -30 -4 -30 -10 0 -5 -11 -12 -25 -16 -14 -3 -25
-10 -25 -15 0 -5 -11 -9 -25 -9 -16 0 -25 -6 -25 -15 0 -9 9 -15 25 -15 16 0
25 6 25 15 0 11 11 15 40 15 22 0 40 4 40 10 0 5 11 12 25 16 14 3 25 10 25
15 0 5 18 9 40 9 29 0 40 4 40 15 0 11 11 15 40 15 22 0 40 4 40 10 0 5 18 13
40 16 22 4 40 10 40 15 0 5 18 9 40 9 29 0 40 4 40 15 0 11 -11 15 -40 15 -29
0 -40 -4 -40 -15z"/>
<path d="M6580 2490 c0 -5 -9 -10 -20 -10 -11 0 -20 -7 -20 -15 0 -9 -9 -15
-25 -15 -14 0 -25 -4 -25 -10 0 -5 -11 -12 -25 -16 -14 -3 -25 -10 -25 -15 0
-5 -11 -9 -25 -9 -16 0 -25 -6 -25 -15 0 -8 -7 -15 -15 -15 -8 0 -15 -4 -15
-9 0 -5 -13 -12 -30 -16 -16 -4 -30 -10 -30 -15 0 -4 -11 -11 -25 -14 -16 -4
-25 -13 -25 -26 0 -11 4 -20 9 -20 5 0 12 -12 16 -27 3 -15 17 -37 31 -50 13
-12 24 -31 24 -43 0 -11 7 -20 15 -20 9 0 15 -9 15 -25 0 -14 4 -25 9 -25 5 0
12 -13 16 -30 4 -16 11 -30 16 -30 5 0 9 -7 9 -15 0 -8 7 -15 15 -15 9 0 15
-9 15 -25 0 -14 4 -25 9 -25 5 0 12 -11 15 -25 4 -14 11 -25 16 -25 6 0 10
-11 10 -25 0 -16 6 -25 15 -25 10 0 15 -10 15 -30 0 -20 5 -30 15 -30 8 0 15
-7 15 -15 0 -8 4 -15 9 -15 5 0 12 -11 15 -25 4 -14 11 -25 16 -25 6 0 10 -9
10 -20 0 -24 40 -67 49 -53 3 6 16 13 29 17 12 4 22 12 22 17 0 5 9 9 20 9 11
0 20 7 20 15 0 9 9 15 25 15 14 0 25 4 25 10 0 5 11 12 25 16 14 3 25 10 25
15 0 5 11 9 25 9 16 0 25 6 25 15 0 8 7 15 15 15 8 0 15 4 15 9 0 5 14 12 30
16 17 4 30 13 30 20 0 7 6 15 12 17 9 3 8 9 -5 22 -9 10 -17 24 -17 32 0 8 -4
14 -10 14 -5 0 -10 7 -10 15 0 8 -7 15 -15 15 -10 0 -15 10 -15 30 0 17 -4 30
-10 30 -5 0 -12 11 -16 25 -3 14 -10 25 -15 25 -5 0 -9 11 -9 25 0 16 -6 25
-15 25 -8 0 -15 7 -15 15 0 8 -4 15 -9 15 -5 0 -12 14 -16 30 -4 17 -11 30
-16 30 -5 0 -9 9 -9 20 0 11 -7 20 -15 20 -10 0 -15 10 -15 26 0 15 -10 36
-24 49 -13 12 -27 32 -31 43 -3 12 -11 22 -16 22 -5 0 -9 14 -9 30 0 17 -4 30
-9 30 -5 0 -13 10 -17 22 -3 12 -12 28 -20 35 -15 15 -54 17 -54 3z m40 -185
c0 -8 -9 -15 -20 -15 -11 0 -20 -4 -20 -10 0 -5 -6 -10 -13 -10 -7 0 -20 -9
-30 -20 -9 -11 -24 -20 -32 -20 -8 0 -15 -4 -15 -10 0 -5 -11 -10 -25 -10 -14
0 -25 -4 -25 -10 0 -5 -11 -10 -25 -10 -14 0 -25 3 -25 6 0 10 26 31 48 38 12
4 22 11 22 16 0 5 14 11 30 15 17 4 30 11 30 16 0 5 7 9 15 9 8 0 15 4 15 9 0
5 8 12 18 14 35 9 52 7 52 -8z m14 -151 c25 -9 19 -24 -9 -24 -16 0 -25 -6
-25 -15 0 -8 -7 -15 -15 -15 -8 0 -15 -4 -15 -9 0 -5 -11 -12 -25 -15 -14 -4
-25 -11 -25 -16 0 -6 -11 -10 -25 -10 -14 0 -25 5 -25 10 0 6 5 10 10 10 6 0
10 7 10 15 0 8 7 15 15 15 8 0 15 7 15 15 0 9 10 15 26 15 14 0 32 7 40 15 17
17 25 18 48 9z m69 -126 c7 -26 -22 -58 -53 -58 -11 0 -20 -7 -20 -15 0 -9 -9
-15 -25 -15 -14 0 -25 -4 -25 -10 0 -5 -7 -10 -15 -10 -9 0 -15 9 -15 25 0 20
5 25 25 25 14 0 25 4 25 10 0 5 11 12 25 16 14 3 25 10 25 15 0 5 7 9 15 9 8
0 15 7 15 15 0 23 17 18 23 -7z m137 -112 c0 -17 -7 -26 -25 -30 -14 -4 -25
-11 -25 -16 0 -6 -7 -10 -15 -10 -8 0 -15 -4 -15 -9 0 -5 -12 -12 -26 -15 -24
-6 -35 -13 -69 -43 -18 -17 -45 -16 -45 1 0 19 27 46 46 46 8 0 14 5 14 10 0
6 7 10 15 10 8 0 15 4 15 9 0 5 11 12 25 15 14 4 25 10 25 15 0 5 14 12 30 16
17 4 30 11 30 16 0 5 5 9 10 9 6 0 10 -11 10 -24z"/>
<path d="M1550 2360 c0 -5 11 -10 25 -10 14 0 25 5 25 10 0 6 -11 10 -25 10
-14 0 -25 -4 -25 -10z"/>
<path d="M990 1955 c0 -8 -7 -15 -15 -15 -8 0 -15 -7 -15 -15 0 -9 9 -15 25
-15 16 0 25 6 25 15 0 8 7 15 15 15 8 0 15 7 15 15 0 9 -9 15 -25 15 -16 0
-25 -6 -25 -15z"/>
<path d="M1040 1899 c0 -6 -7 -17 -15 -26 -9 -8 -14 -20 -12 -27 6 -18 46 -19
53 -2 3 9 12 16 20 16 15 0 17 10 8 34 -7 18 -54 22 -54 5z"/>
<path d="M904 1875 c-4 -8 -17 -15 -30 -15 -13 0 -24 -5 -24 -11 0 -14 -55
-69 -69 -69 -6 0 -11 -7 -11 -15 0 -8 -7 -15 -15 -15 -8 0 -15 -5 -15 -11 0
-14 -25 -39 -39 -39 -6 0 -11 -5 -11 -11 0 -6 -13 -24 -30 -41 -16 -16 -30
-34 -30 -39 0 -5 -22 -31 -50 -58 -29 -28 -50 -57 -50 -70 0 -12 -6 -21 -15
-21 -8 0 -15 -7 -15 -15 0 -8 -4 -15 -10 -15 -5 0 -12 -11 -16 -25 -3 -14 -10
-25 -15 -25 -5 0 -9 -7 -9 -15 0 -8 -7 -15 -15 -15 -8 0 -15 -9 -15 -20 0 -12
-11 -31 -25 -44 -14 -14 -25 -34 -25 -50 0 -16 -5 -26 -15 -26 -9 0 -15 -9
-15 -25 0 -14 -4 -25 -10 -25 -5 0 -12 -11 -16 -25 -3 -14 -10 -25 -14 -25 -5
0 -11 -13 -15 -30 -4 -17 -11 -30 -16 -30 -5 0 -9 -18 -9 -40 0 -22 -4 -40
-10 -40 -5 0 -12 -11 -16 -25 -3 -14 -10 -25 -15 -25 -5 0 -12 -18 -15 -40 -4
-22 -10 -40 -15 -40 -5 0 -9 -18 -9 -39 0 -22 -5 -41 -10 -43 -6 -2 -13 -21
-17 -43 -3 -22 -10 -42 -14 -46 -5 -3 -12 -26 -15 -52 -6 -39 -4 -47 10 -47 9
0 16 -7 16 -15 0 -8 7 -15 15 -15 8 0 15 -7 15 -16 0 -24 25 -11 28 16 2 13
10 30 18 37 8 8 14 23 14 34 0 10 5 19 10 19 6 0 10 11 10 25 0 14 4 25 10 25
5 0 12 16 16 35 3 19 10 35 14 35 5 0 11 14 15 30 4 16 11 30 16 30 5 0 9 18
9 40 0 29 4 40 15 40 9 0 15 9 15 25 0 14 4 25 9 25 5 0 12 14 16 30 4 16 11
30 16 30 5 0 9 14 9 30 0 20 5 30 15 30 9 0 15 9 15 25 0 14 4 25 9 25 5 0 12
11 15 25 4 14 11 25 16 25 6 0 10 14 10 30 0 20 5 30 15 30 9 0 15 9 15 25 0
14 4 25 10 25 5 0 12 11 16 25 3 14 10 25 15 25 5 0 9 7 9 15 0 8 7 15 15 15
9 0 15 9 15 25 0 14 5 25 10 25 6 0 10 7 10 15 0 8 7 15 15 15 8 0 17 11 21
25 3 14 10 25 15 25 5 0 9 7 9 15 0 8 7 15 15 15 8 0 15 5 15 11 0 7 11 22 25
35 14 13 25 32 25 44 0 11 5 20 11 20 16 0 37 25 45 54 3 14 10 26 15 26 5 0
9 7 9 15 0 8 5 15 11 15 15 0 35 22 43 48 4 12 12 22 17 22 5 0 9 20 9 45 0
44 -15 60 -26 30z"/>
<path d="M1120 1820 c0 -5 -6 -10 -14 -10 -18 0 -46 -27 -46 -45 0 -7 7 -20
15 -29 8 -8 15 -19 15 -25 0 -6 7 -11 15 -11 8 0 15 -9 15 -20 0 -12 11 -31
25 -44 14 -13 25 -28 25 -35 0 -6 7 -11 15 -11 8 0 15 -7 15 -15 0 -8 4 -15 9
-15 5 0 12 -11 15 -25 4 -14 11 -25 17 -25 16 0 39 -26 39 -44 0 -9 5 -16 10
-16 13 0 70 -57 70 -70 0 -6 5 -10 11 -10 14 0 39 -25 39 -39 0 -6 7 -11 15
-11 8 0 15 -7 15 -15 0 -8 5 -15 11 -15 14 0 39 -25 39 -39 0 -6 5 -11 10 -11
11 0 50 -36 50 -46 0 -10 28 -34 40 -34 14 0 40 -25 40 -39 0 -6 11 -13 25
-17 14 -3 25 -10 25 -15 0 -5 7 -9 15 -9 8 0 15 -4 15 -10 0 -5 7 -10 15 -10
8 0 15 -7 15 -15 0 -8 11 -17 25 -21 14 -3 25 -10 25 -15 0 -5 7 -9 15 -9 8 0
15 -7 15 -15 0 -8 7 -15 15 -15 8 0 15 -4 15 -10 0 -5 11 -12 25 -16 14 -3 25
-10 25 -15 0 -5 11 -9 25 -9 16 0 25 -6 25 -15 0 -9 9 -15 24 -15 13 0 26 -7
30 -15 3 -8 12 -15 21 -15 8 0 15 -4 15 -10 0 -5 11 -10 25 -10 16 0 25 -6 25
-15 0 -9 9 -15 25 -15 14 0 25 -4 25 -9 0 -5 12 -12 26 -15 15 -4 33 -14 41
-21 8 -8 25 -15 39 -15 13 0 24 -4 24 -10 0 -5 14 -10 30 -10 17 0 30 -4 30
-10 0 -5 17 -12 37 -16 21 -4 44 -13 51 -21 7 -7 22 -13 33 -13 10 0 19 -4 19
-10 0 -6 26 -10 59 -10 33 0 61 -4 63 -10 2 -5 26 -13 53 -16 28 -4 53 -12 57
-18 4 -6 48 -12 103 -14 52 -2 95 -8 95 -13 0 -5 88 -9 200 -9 110 0 200 4
200 9 0 4 46 11 101 14 56 3 105 9 108 15 3 5 40 12 81 15 41 3 76 11 78 17 2
5 28 10 58 10 30 0 54 4 54 9 0 5 23 11 50 15 27 4 50 10 50 15 0 5 19 11 42
14 24 3 44 11 46 16 2 6 26 11 53 11 27 0 49 4 49 9 0 5 14 12 30 16 17 4 30
10 30 15 0 4 18 10 40 14 22 3 40 11 40 16 0 6 14 10 30 10 20 0 30 5 30 15 0
10 -10 15 -30 15 -20 0 -30 -5 -30 -15 0 -12 -13 -15 -55 -15 -30 0 -55 -4
-55 -9 0 -5 -25 -13 -55 -16 -30 -4 -55 -11 -55 -15 0 -4 -29 -11 -65 -15 -36
-3 -65 -11 -65 -16 0 -5 -42 -9 -94 -9 -67 0 -96 -4 -99 -12 -6 -19 -659 -18
-665 0 -2 8 -29 12 -83 12 -43 0 -79 4 -79 9 0 5 -25 13 -55 16 -30 4 -55 11
-55 15 0 5 -25 12 -55 15 -30 4 -55 11 -55 16 0 5 -18 9 -40 9 -29 0 -40 4
-40 15 0 11 -11 15 -40 15 -22 0 -40 4 -40 10 0 5 -18 13 -40 16 -22 4 -40 10
-40 15 0 5 -11 9 -25 9 -16 0 -25 6 -25 15 0 9 -10 15 -26 15 -14 0 -32 7 -40
15 -9 8 -26 15 -40 15 -13 0 -24 5 -24 10 0 6 -13 10 -30 10 -20 0 -30 5 -30
15 0 8 -9 15 -20 15 -12 0 -31 11 -43 24 -12 13 -32 26 -44 30 -13 4 -23 12
-23 17 0 5 -11 9 -24 9 -13 0 -26 7 -30 15 -3 8 -12 15 -21 15 -8 0 -15 4 -15
10 0 5 -11 12 -25 16 -14 3 -25 10 -25 15 0 5 -7 9 -15 9 -8 0 -15 4 -15 10 0
5 -11 12 -25 16 -14 3 -25 11 -25 16 0 13 -26 38 -39 38 -6 0 -11 7 -11 15 0
8 -9 15 -20 15 -12 0 -31 11 -44 25 -13 14 -28 25 -35 25 -6 0 -11 7 -11 15 0
8 -5 15 -11 15 -6 0 -24 12 -39 28 -40 37 -58 52 -65 52 -9 0 -45 40 -45 50 0
6 -5 10 -10 10 -13 0 -70 57 -70 70 0 6 -5 10 -11 10 -14 0 -39 25 -39 39 0 6
-7 11 -15 11 -8 0 -15 7 -15 15 0 8 -5 15 -11 15 -6 0 -17 6 -25 14 -8 8 -14
19 -14 25 0 6 -4 11 -10 11 -17 0 -50 39 -50 60 0 11 -7 20 -15 20 -8 0 -15 5
-15 11 0 14 -25 39 -39 39 -6 0 -11 -4 -11 -10z"/>
<path d="M960 1790 c0 -5 5 -10 10 -10 6 0 10 5 10 10 0 6 -4 10 -10 10 -5 0
-10 -4 -10 -10z"/>
<path d="M1660 1360 c0 -5 5 -10 10 -10 6 0 10 5 10 10 0 6 -4 10 -10 10 -5 0
-10 -4 -10 -10z"/>
<path d="M1690 1335 c0 -8 5 -15 10 -15 6 0 10 7 10 15 0 8 -4 15 -10 15 -5 0
-10 -7 -10 -15z"/>
<path d="M610 1295 c0 -16 -6 -25 -15 -25 -9 0 -15 -9 -15 -24 0 -13 -7 -26
-15 -30 -8 -3 -15 -17 -15 -31 0 -14 -4 -25 -10 -25 -5 0 -10 -7 -10 -15 0 -8
-7 -15 -15 -15 -9 0 -15 -9 -15 -25 0 -14 -4 -25 -9 -25 -5 0 -12 -13 -16 -30
-4 -16 -11 -30 -16 -30 -5 0 -9 -11 -9 -25 0 -16 -6 -25 -15 -25 -11 0 -15
-11 -15 -40 0 -22 -4 -40 -10 -40 -5 0 -12 -11 -16 -25 -3 -14 -10 -25 -15
-25 -5 0 -9 -18 -9 -40 0 -29 -4 -40 -15 -40 -10 0 -15 -10 -15 -30 0 -16 -4
-30 -9 -30 -5 0 -12 -11 -15 -25 -4 -14 -11 -25 -16 -25 -5 0 -13 -18 -16 -40
-4 -22 -10 -40 -15 -40 -5 0 -9 -13 -9 -30 0 -16 -4 -30 -10 -30 -5 0 -10 -11
-10 -25 0 -20 5 -25 25 -25 14 0 25 -4 25 -10 0 -5 11 -10 25 -10 23 0 25 4
25 40 0 29 4 40 15 40 11 0 15 11 15 40 0 22 4 40 9 40 5 0 12 23 16 50 4 28
11 50 16 50 5 0 9 18 9 40 0 29 4 40 15 40 11 0 15 11 15 41 0 23 7 47 15 55
8 9 15 26 15 40 0 13 5 24 10 24 6 0 10 14 10 30 0 20 5 30 15 30 11 0 15 11
15 40 0 22 4 40 10 40 5 0 13 12 16 27 4 15 13 34 21 41 7 7 13 24 13 38 0 13
5 24 10 24 6 0 10 14 10 30 0 17 5 30 10 30 6 0 10 11 10 25 0 14 -4 25 -10
25 -5 0 -10 -11 -10 -25z"/>
<path d="M1740 1310 c0 -5 7 -10 15 -10 8 0 15 -7 15 -15 0 -8 5 -15 10 -15 6
0 10 -7 10 -15 0 -8 9 -15 20 -15 12 0 31 -11 43 -24 12 -13 32 -26 45 -30 12
-4 22 -12 22 -17 0 -5 7 -9 16 -9 8 0 22 -6 29 -12 34 -31 45 -38 69 -44 14
-3 26 -10 26 -15 0 -5 7 -9 15 -9 8 0 15 -4 15 -10 0 -5 11 -12 25 -16 14 -3
25 -10 25 -14 0 -4 11 -11 25 -14 14 -4 25 -11 25 -16 0 -6 14 -10 30 -10 20
0 30 -5 30 -15 0 -9 9 -15 25 -15 14 0 25 -4 25 -10 0 -5 18 -13 40 -16 22 -4
40 -10 40 -15 0 -5 14 -9 30 -9 20 0 30 -5 30 -15 0 -11 11 -15 40 -15 22 0
40 -4 40 -10 0 -5 16 -12 35 -16 19 -3 35 -10 35 -15 0 -5 20 -9 45 -9 33 0
45 -4 45 -15 0 -12 14 -15 65 -15 36 0 65 -4 65 -9 0 -5 24 -12 53 -16 28 -4
54 -11 57 -16 3 -4 58 -11 123 -15 64 -4 117 -11 117 -15 0 -5 86 -9 190 -9
105 0 190 4 190 9 0 5 54 12 120 16 66 4 120 10 120 14 0 5 28 11 63 15 34 3
64 11 65 16 2 6 28 10 58 10 41 0 54 4 54 15 0 12 -14 15 -70 15 -56 0 -70 -3
-70 -15 0 -13 -45 -15 -345 -15 -300 0 -345 2 -345 15 0 12 -19 15 -109 15
-63 0 -111 4 -113 10 -1 5 -31 13 -65 16 -35 4 -63 11 -63 15 0 5 -29 9 -65 9
-51 0 -65 3 -65 15 0 12 -13 15 -55 15 -30 0 -55 4 -55 10 0 5 -18 13 -40 16
-22 4 -40 10 -40 15 0 5 -18 9 -40 9 -29 0 -40 4 -40 15 0 11 -11 15 -40 15
-22 0 -40 4 -40 10 0 5 -18 13 -40 16 -22 4 -40 10 -40 14 0 5 -13 11 -30 15
-16 4 -30 11 -30 16 0 5 -11 9 -25 9 -14 0 -25 4 -25 9 0 5 -13 12 -30 16 -16
4 -30 10 -30 15 0 4 -11 11 -25 14 -14 4 -25 11 -25 16 0 6 -13 10 -30 10 -16
0 -30 4 -30 10 0 5 -11 12 -25 16 -14 3 -25 10 -25 14 0 4 -11 11 -25 14 -14
4 -25 11 -25 16 0 6 -11 10 -25 10 -16 0 -25 6 -25 15 0 8 -7 15 -15 15 -8 0
-15 4 -15 9 0 5 -11 12 -25 15 -14 4 -25 11 -25 16 0 6 -7 10 -15 10 -8 0 -15
-4 -15 -10z"/>
<path d="M4080 850 c0 -5 5 -10 10 -10 6 0 10 5 10 10 0 6 -4 10 -10 10 -5 0
-10 -4 -10 -10z"/>
<path d="M4290 850 c0 -5 11 -10 25 -10 14 0 25 5 25 10 0 6 -11 10 -25 10
-14 0 -25 -4 -25 -10z"/>
</g>
</svg>
